<mxfile host="Electron" agent="Mozilla/5.0 (Windows NT 10.0; Win64; x64) AppleWebKit/537.36 (KHTML, like Gecko) draw.io/24.7.5 Chrome/126.0.6478.183 Electron/31.3.0 Safari/537.36" version="24.7.5">
  <diagram name="Page-1" id="AfhZhwZtE2IUO5dlyzL3">
    <mxGraphModel dx="4300" dy="2470" grid="0" gridSize="10" guides="0" tooltips="1" connect="1" arrows="1" fold="1" page="0" pageScale="1" pageWidth="827" pageHeight="1169" math="0" shadow="0">
      <root>
        <mxCell id="0" />
        <mxCell id="1" parent="0" />
        <mxCell id="_w_OkT1hiIyt1mrQMRYV-1" value="&lt;blockquote style=&quot;margin: 0px 0px 0px 40px; border: none; padding: 0px; font-size: 20px;&quot;&gt;&lt;b style=&quot;background-color: rgb(0, 255, 0);&quot;&gt;io = socket server&lt;/b&gt;&lt;br&gt;&lt;/blockquote&gt;&lt;blockquote style=&quot;margin: 0px 0px 0px 40px; border: none; padding: 0px; font-size: 20px;&quot;&gt;&lt;b style=&quot;background-color: rgb(0, 255, 0);&quot;&gt;&lt;br&gt;&lt;/b&gt;&lt;/blockquote&gt;&lt;blockquote style=&quot;margin: 0px 0px 0px 40px; border: none; padding: 0px; font-size: 20px;&quot;&gt;&lt;font color=&quot;#ff00ff&quot;&gt;&lt;b&gt;&lt;font style=&quot;font-size: 20px;&quot;&gt;&lt;font style=&quot;font-size: 20px;&quot;&gt;socket =&amp;nbsp;&lt;/font&gt;&lt;/font&gt;&lt;span style=&quot;background-color: initial;&quot;&gt;a connected client (&lt;/span&gt;&lt;/b&gt;&lt;/font&gt;&lt;b style=&quot;color: rgb(255, 0, 255); background-color: initial;&quot;&gt;&lt;span style=&quot;background-color: initial;&quot;&gt;&lt;span style=&quot;background-color: initial;&quot;&gt;socket object representing that client connection&lt;/span&gt;&lt;/span&gt;&lt;/b&gt;&lt;b style=&quot;background-color: initial; color: rgb(255, 0, 255);&quot;&gt;)&lt;/b&gt;&lt;/blockquote&gt;&lt;blockquote style=&quot;margin: 0px 0px 0px 40px; border: none; padding: 0px;&quot;&gt;&lt;span style=&quot;font-size: 20px; background-color: initial; color: rgb(255, 0, 255);&quot;&gt;&amp;nbsp; &amp;nbsp; &amp;nbsp; &amp;nbsp; &amp;nbsp; &amp;nbsp; &amp;nbsp;- the socket&amp;nbsp;&lt;/span&gt;&lt;span style=&quot;background-color: initial;&quot;&gt;&lt;font color=&quot;#ff00ff&quot; style=&quot;font-size: 20px;&quot;&gt;allows the server to interact with that particular client&lt;/font&gt;&lt;/span&gt;&lt;/blockquote&gt;&lt;blockquote style=&quot;margin: 0px 0px 0px 40px; border: none; padding: 0px;&quot;&gt;&lt;span style=&quot;background-color: initial;&quot;&gt;&lt;font color=&quot;#ff00ff&quot; style=&quot;font-size: 20px;&quot;&gt;&lt;br&gt;&lt;/font&gt;&lt;/span&gt;&lt;/blockquote&gt;&lt;blockquote style=&quot;margin: 0px 0px 0px 40px; border: none; padding: 0px;&quot;&gt;&lt;span style=&quot;background-color: initial;&quot;&gt;&lt;font color=&quot;#ff0080&quot; style=&quot;font-size: 20px;&quot;&gt;&lt;b&gt;server = http server&lt;/b&gt;&lt;/font&gt;&lt;/span&gt;&lt;/blockquote&gt;&lt;blockquote style=&quot;margin: 0px 0px 0px 40px; border: none; padding: 0px;&quot;&gt;&lt;span style=&quot;background-color: initial;&quot;&gt;&lt;font color=&quot;#ff0080&quot; style=&quot;font-size: 20px;&quot;&gt;&lt;b&gt;&lt;br&gt;&lt;/b&gt;&lt;/font&gt;&lt;/span&gt;&lt;/blockquote&gt;&lt;blockquote style=&quot;margin: 0px 0px 0px 40px; border: none; padding: 0px; font-size: 20px;&quot;&gt;&lt;font color=&quot;#ff8000&quot;&gt;&lt;b&gt;Namespaces&lt;/b&gt;&lt;/font&gt;&amp;nbsp;allow you to segment the communication channels on the server and client sides.&lt;span style=&quot;font-size: 20px; background-color: initial;&quot;&gt;&lt;font color=&quot;#ff0080&quot; style=&quot;font-size: 20px;&quot;&gt;&lt;b&gt;&lt;br&gt;&lt;/b&gt;&lt;/font&gt;&lt;/span&gt;&lt;/blockquote&gt;" style="rounded=0;whiteSpace=wrap;html=1;labelBorderColor=none;labelBackgroundColor=none;fontColor=default;strokeColor=none;fillColor=none;strokeWidth=5;align=left;verticalAlign=top;" parent="1" vertex="1">
          <mxGeometry x="-200" y="-127" width="922" height="260" as="geometry" />
        </mxCell>
        <mxCell id="_w_OkT1hiIyt1mrQMRYV-16" value="Socket Server" style="text;html=1;align=left;verticalAlign=middle;whiteSpace=wrap;rounded=0;fontSize=20;fontStyle=1" parent="1" vertex="1">
          <mxGeometry x="-154" y="-192" width="240" height="50" as="geometry" />
        </mxCell>
        <mxCell id="_w_OkT1hiIyt1mrQMRYV-24" value="" style="group" parent="1" vertex="1" connectable="0">
          <mxGeometry x="832" y="54" width="610" height="970" as="geometry" />
        </mxCell>
        <mxCell id="_w_OkT1hiIyt1mrQMRYV-33" value="" style="group" parent="_w_OkT1hiIyt1mrQMRYV-24" vertex="1" connectable="0">
          <mxGeometry y="-25" width="610" height="995" as="geometry" />
        </mxCell>
        <mxCell id="_w_OkT1hiIyt1mrQMRYV-21" value="Data" style="text;html=1;align=center;verticalAlign=middle;whiteSpace=wrap;rounded=0;fontSize=20;fontStyle=1" parent="_w_OkT1hiIyt1mrQMRYV-33" vertex="1">
          <mxGeometry y="25" width="70" height="30" as="geometry" />
        </mxCell>
        <mxCell id="_3at-q2v9w0iWCzONIYG-10" style="edgeStyle=orthogonalEdgeStyle;rounded=0;orthogonalLoop=1;jettySize=auto;html=1;" edge="1" parent="_w_OkT1hiIyt1mrQMRYV-33" source="_w_OkT1hiIyt1mrQMRYV-23">
          <mxGeometry relative="1" as="geometry">
            <mxPoint x="-269.3529411764707" y="535" as="targetPoint" />
          </mxGeometry>
        </mxCell>
        <UserObject label="&lt;div style=&quot;color: #cccccc;background-color: #1f1f1f;font-family: Consolas, &#39;Courier New&#39;, monospace;font-weight: normal;font-size: 14px;line-height: 19px;white-space: pre;&quot;&gt;&lt;div&gt;&lt;span style=&quot;color: #c586c0;&quot;&gt;import&lt;/span&gt;&lt;span style=&quot;color: #cccccc;&quot;&gt; &lt;/span&gt;&lt;span style=&quot;color: #9cdcfe;&quot;&gt;Namespace&lt;/span&gt;&lt;span style=&quot;color: #cccccc;&quot;&gt; &lt;/span&gt;&lt;span style=&quot;color: #c586c0;&quot;&gt;from&lt;/span&gt;&lt;span style=&quot;color: #cccccc;&quot;&gt; &lt;/span&gt;&lt;span style=&quot;color: #ce9178;&quot;&gt;&quot;@/utils/chat/Namespace&quot;&lt;/span&gt;&lt;span style=&quot;color: #cccccc;&quot;&gt;;&lt;/span&gt;&lt;/div&gt;&lt;div&gt;&lt;span style=&quot;color: #c586c0;&quot;&gt;import&lt;/span&gt;&lt;span style=&quot;color: #cccccc;&quot;&gt; &lt;/span&gt;&lt;span style=&quot;color: #9cdcfe;&quot;&gt;Room&lt;/span&gt;&lt;span style=&quot;color: #cccccc;&quot;&gt; &lt;/span&gt;&lt;span style=&quot;color: #c586c0;&quot;&gt;from&lt;/span&gt;&lt;span style=&quot;color: #cccccc;&quot;&gt; &lt;/span&gt;&lt;span style=&quot;color: #ce9178;&quot;&gt;&quot;@/utils/chat/Room&quot;&lt;/span&gt;&lt;span style=&quot;color: #cccccc;&quot;&gt;;&lt;/span&gt;&lt;/div&gt;&lt;br&gt;&lt;div&gt;&lt;span style=&quot;color: #6a9955;&quot;&gt;// Namespace(id, name, image, endpoint)&lt;/span&gt;&lt;/div&gt;&lt;div&gt;&lt;span style=&quot;color: #6a9955;&quot;&gt;//.addRoom()&lt;/span&gt;&lt;/div&gt;&lt;br&gt;&lt;div&gt;&lt;span style=&quot;color: #6a9955;&quot;&gt;//here we are hardcoding; in production: connect to database to get data&lt;/span&gt;&lt;/div&gt;&lt;div&gt;&lt;span style=&quot;color: #569cd6;&quot;&gt;const&lt;/span&gt;&lt;span style=&quot;color: #cccccc;&quot;&gt; &lt;/span&gt;&lt;span style=&quot;color: #4fc1ff;&quot;&gt;wikiNs&lt;/span&gt;&lt;span style=&quot;color: #cccccc;&quot;&gt; &lt;/span&gt;&lt;span style=&quot;color: #d4d4d4;&quot;&gt;=&lt;/span&gt;&lt;span style=&quot;color: #cccccc;&quot;&gt; &lt;/span&gt;&lt;span style=&quot;color: #569cd6;&quot;&gt;new&lt;/span&gt;&lt;span style=&quot;color: #cccccc;&quot;&gt; &lt;/span&gt;&lt;span style=&quot;color: #4ec9b0;&quot;&gt;Namespace&lt;/span&gt;&lt;span style=&quot;color: #cccccc;&quot;&gt;(&lt;/span&gt;&lt;/div&gt;&lt;div&gt;&lt;span style=&quot;color: #cccccc;&quot;&gt;&amp;nbsp; &lt;/span&gt;&lt;span style=&quot;color: #b5cea8;&quot;&gt;0&lt;/span&gt;&lt;span style=&quot;color: #cccccc;&quot;&gt;,&lt;/span&gt;&lt;/div&gt;&lt;div&gt;&lt;span style=&quot;color: #cccccc;&quot;&gt;&amp;nbsp; &lt;/span&gt;&lt;span style=&quot;color: #ce9178;&quot;&gt;&quot;Wikipedia&quot;&lt;/span&gt;&lt;span style=&quot;color: #cccccc;&quot;&gt;,&lt;/span&gt;&lt;/div&gt;&lt;div&gt;&lt;span style=&quot;color: #cccccc;&quot;&gt;&amp;nbsp; &lt;/span&gt;&lt;span style=&quot;color: #ce9178;&quot;&gt;&quot;https://upload.wikimedia.org/wikipedia/en/thumb/8/80/Wikipedia-logo-v2.svg/103px-Wikipedia-logo-v2.svg.png&quot;&lt;/span&gt;&lt;span style=&quot;color: #cccccc;&quot;&gt;,&lt;/span&gt;&lt;/div&gt;&lt;div&gt;&lt;span style=&quot;color: #cccccc;&quot;&gt;&amp;nbsp; &lt;/span&gt;&lt;span style=&quot;color: #ce9178;&quot;&gt;&quot;/wiki&quot;&lt;/span&gt;&lt;/div&gt;&lt;div&gt;&lt;span style=&quot;color: #cccccc;&quot;&gt;);&lt;/span&gt;&lt;/div&gt;&lt;br&gt;&lt;div&gt;&lt;span style=&quot;color: #569cd6;&quot;&gt;const&lt;/span&gt;&lt;span style=&quot;color: #cccccc;&quot;&gt; &lt;/span&gt;&lt;span style=&quot;color: #4fc1ff;&quot;&gt;mozillaNs&lt;/span&gt;&lt;span style=&quot;color: #cccccc;&quot;&gt; &lt;/span&gt;&lt;span style=&quot;color: #d4d4d4;&quot;&gt;=&lt;/span&gt;&lt;span style=&quot;color: #cccccc;&quot;&gt; &lt;/span&gt;&lt;span style=&quot;color: #569cd6;&quot;&gt;new&lt;/span&gt;&lt;span style=&quot;color: #cccccc;&quot;&gt; &lt;/span&gt;&lt;span style=&quot;color: #4ec9b0;&quot;&gt;Namespace&lt;/span&gt;&lt;span style=&quot;color: #cccccc;&quot;&gt;(&lt;/span&gt;&lt;/div&gt;&lt;div&gt;&lt;span style=&quot;color: #cccccc;&quot;&gt;&amp;nbsp; &lt;/span&gt;&lt;span style=&quot;color: #b5cea8;&quot;&gt;1&lt;/span&gt;&lt;span style=&quot;color: #cccccc;&quot;&gt;,&lt;/span&gt;&lt;/div&gt;&lt;div&gt;&lt;span style=&quot;color: #cccccc;&quot;&gt;&amp;nbsp; &lt;/span&gt;&lt;span style=&quot;color: #ce9178;&quot;&gt;&quot;Mozilla&quot;&lt;/span&gt;&lt;span style=&quot;color: #cccccc;&quot;&gt;,&lt;/span&gt;&lt;/div&gt;&lt;div&gt;&lt;span style=&quot;color: #cccccc;&quot;&gt;&amp;nbsp; &lt;/span&gt;&lt;span style=&quot;color: #ce9178;&quot;&gt;&quot;https://www.mozilla.org/media/img/logos/firefox/logo-quantum.9c5e96634f92.png&quot;&lt;/span&gt;&lt;span style=&quot;color: #cccccc;&quot;&gt;,&lt;/span&gt;&lt;/div&gt;&lt;div&gt;&lt;span style=&quot;color: #cccccc;&quot;&gt;&amp;nbsp; &lt;/span&gt;&lt;span style=&quot;color: #ce9178;&quot;&gt;&quot;/mozilla&quot;&lt;/span&gt;&lt;/div&gt;&lt;div&gt;&lt;span style=&quot;color: #cccccc;&quot;&gt;);&lt;/span&gt;&lt;/div&gt;&lt;br&gt;&lt;div&gt;&lt;span style=&quot;color: #569cd6;&quot;&gt;const&lt;/span&gt;&lt;span style=&quot;color: #cccccc;&quot;&gt; &lt;/span&gt;&lt;span style=&quot;color: #4fc1ff;&quot;&gt;linuxNs&lt;/span&gt;&lt;span style=&quot;color: #cccccc;&quot;&gt; &lt;/span&gt;&lt;span style=&quot;color: #d4d4d4;&quot;&gt;=&lt;/span&gt;&lt;span style=&quot;color: #cccccc;&quot;&gt; &lt;/span&gt;&lt;span style=&quot;color: #569cd6;&quot;&gt;new&lt;/span&gt;&lt;span style=&quot;color: #cccccc;&quot;&gt; &lt;/span&gt;&lt;span style=&quot;color: #4ec9b0;&quot;&gt;Namespace&lt;/span&gt;&lt;span style=&quot;color: #cccccc;&quot;&gt;(&lt;/span&gt;&lt;/div&gt;&lt;div&gt;&lt;span style=&quot;color: #cccccc;&quot;&gt;&amp;nbsp; &lt;/span&gt;&lt;span style=&quot;color: #b5cea8;&quot;&gt;2&lt;/span&gt;&lt;span style=&quot;color: #cccccc;&quot;&gt;,&lt;/span&gt;&lt;/div&gt;&lt;div&gt;&lt;span style=&quot;color: #cccccc;&quot;&gt;&amp;nbsp; &lt;/span&gt;&lt;span style=&quot;color: #ce9178;&quot;&gt;&quot;Linux&quot;&lt;/span&gt;&lt;span style=&quot;color: #cccccc;&quot;&gt;,&lt;/span&gt;&lt;/div&gt;&lt;div&gt;&lt;span style=&quot;color: #cccccc;&quot;&gt;&amp;nbsp; &lt;/span&gt;&lt;span style=&quot;color: #ce9178;&quot;&gt;&quot;https://upload.wikimedia.org/wikipedia/commons/a/af/Tux.png&quot;&lt;/span&gt;&lt;span style=&quot;color: #cccccc;&quot;&gt;,&lt;/span&gt;&lt;/div&gt;&lt;div&gt;&lt;span style=&quot;color: #cccccc;&quot;&gt;&amp;nbsp; &lt;/span&gt;&lt;span style=&quot;color: #ce9178;&quot;&gt;&quot;/linux&quot;&lt;/span&gt;&lt;/div&gt;&lt;div&gt;&lt;span style=&quot;color: #cccccc;&quot;&gt;);&lt;/span&gt;&lt;/div&gt;&lt;br&gt;&lt;div&gt;&lt;span style=&quot;color: #6a9955;&quot;&gt;// 29. rooms and namespaces - ADD ROOMS TO NAMESPACES&lt;/span&gt;&lt;/div&gt;&lt;div&gt;&lt;span style=&quot;color: #4fc1ff;&quot;&gt;wikiNs&lt;/span&gt;&lt;span style=&quot;color: #cccccc;&quot;&gt;.&lt;/span&gt;&lt;span style=&quot;color: #dcdcaa;&quot;&gt;addRoom&lt;/span&gt;&lt;span style=&quot;color: #cccccc;&quot;&gt;(&lt;/span&gt;&lt;span style=&quot;color: #569cd6;&quot;&gt;new&lt;/span&gt;&lt;span style=&quot;color: #cccccc;&quot;&gt; &lt;/span&gt;&lt;span style=&quot;color: #4ec9b0;&quot;&gt;Room&lt;/span&gt;&lt;span style=&quot;color: #cccccc;&quot;&gt;(&lt;/span&gt;&lt;span style=&quot;color: #b5cea8;&quot;&gt;0&lt;/span&gt;&lt;span style=&quot;color: #cccccc;&quot;&gt;, &lt;/span&gt;&lt;span style=&quot;color: #ce9178;&quot;&gt;&quot;news articles&quot;&lt;/span&gt;&lt;span style=&quot;color: #cccccc;&quot;&gt;, &lt;/span&gt;&lt;span style=&quot;color: #b5cea8;&quot;&gt;0&lt;/span&gt;&lt;span style=&quot;color: #cccccc;&quot;&gt;));&lt;/span&gt;&lt;/div&gt;&lt;div&gt;&lt;span style=&quot;color: #4fc1ff;&quot;&gt;wikiNs&lt;/span&gt;&lt;span style=&quot;color: #cccccc;&quot;&gt;.&lt;/span&gt;&lt;span style=&quot;color: #dcdcaa;&quot;&gt;addRoom&lt;/span&gt;&lt;span style=&quot;color: #cccccc;&quot;&gt;(&lt;/span&gt;&lt;span style=&quot;color: #569cd6;&quot;&gt;new&lt;/span&gt;&lt;span style=&quot;color: #cccccc;&quot;&gt; &lt;/span&gt;&lt;span style=&quot;color: #4ec9b0;&quot;&gt;Room&lt;/span&gt;&lt;span style=&quot;color: #cccccc;&quot;&gt;(&lt;/span&gt;&lt;span style=&quot;color: #b5cea8;&quot;&gt;1&lt;/span&gt;&lt;span style=&quot;color: #cccccc;&quot;&gt;, &lt;/span&gt;&lt;span style=&quot;color: #ce9178;&quot;&gt;&quot;editors&quot;&lt;/span&gt;&lt;span style=&quot;color: #cccccc;&quot;&gt;, &lt;/span&gt;&lt;span style=&quot;color: #b5cea8;&quot;&gt;0&lt;/span&gt;&lt;span style=&quot;color: #cccccc;&quot;&gt;));&lt;/span&gt;&lt;/div&gt;&lt;div&gt;&lt;span style=&quot;color: #4fc1ff;&quot;&gt;wikiNs&lt;/span&gt;&lt;span style=&quot;color: #cccccc;&quot;&gt;.&lt;/span&gt;&lt;span style=&quot;color: #dcdcaa;&quot;&gt;addRoom&lt;/span&gt;&lt;span style=&quot;color: #cccccc;&quot;&gt;(&lt;/span&gt;&lt;span style=&quot;color: #569cd6;&quot;&gt;new&lt;/span&gt;&lt;span style=&quot;color: #cccccc;&quot;&gt; &lt;/span&gt;&lt;span style=&quot;color: #4ec9b0;&quot;&gt;Room&lt;/span&gt;&lt;span style=&quot;color: #cccccc;&quot;&gt;(&lt;/span&gt;&lt;span style=&quot;color: #b5cea8;&quot;&gt;2&lt;/span&gt;&lt;span style=&quot;color: #cccccc;&quot;&gt;, &lt;/span&gt;&lt;span style=&quot;color: #ce9178;&quot;&gt;&quot;other&quot;&lt;/span&gt;&lt;span style=&quot;color: #cccccc;&quot;&gt;, &lt;/span&gt;&lt;span style=&quot;color: #b5cea8;&quot;&gt;0&lt;/span&gt;&lt;span style=&quot;color: #cccccc;&quot;&gt;, &lt;/span&gt;&lt;span style=&quot;color: #569cd6;&quot;&gt;true&lt;/span&gt;&lt;span style=&quot;color: #cccccc;&quot;&gt;));&lt;/span&gt;&lt;/div&gt;&lt;br&gt;&lt;div&gt;&lt;span style=&quot;color: #4fc1ff;&quot;&gt;mozillaNs&lt;/span&gt;&lt;span style=&quot;color: #cccccc;&quot;&gt;.&lt;/span&gt;&lt;span style=&quot;color: #dcdcaa;&quot;&gt;addRoom&lt;/span&gt;&lt;span style=&quot;color: #cccccc;&quot;&gt;(&lt;/span&gt;&lt;span style=&quot;color: #569cd6;&quot;&gt;new&lt;/span&gt;&lt;span style=&quot;color: #cccccc;&quot;&gt; &lt;/span&gt;&lt;span style=&quot;color: #4ec9b0;&quot;&gt;Room&lt;/span&gt;&lt;span style=&quot;color: #cccccc;&quot;&gt;(&lt;/span&gt;&lt;span style=&quot;color: #b5cea8;&quot;&gt;0&lt;/span&gt;&lt;span style=&quot;color: #cccccc;&quot;&gt;, &lt;/span&gt;&lt;span style=&quot;color: #ce9178;&quot;&gt;&quot;firefox&quot;&lt;/span&gt;&lt;span style=&quot;color: #cccccc;&quot;&gt;, &lt;/span&gt;&lt;span style=&quot;color: #b5cea8;&quot;&gt;1&lt;/span&gt;&lt;span style=&quot;color: #cccccc;&quot;&gt;));&lt;/span&gt;&lt;/div&gt;&lt;div&gt;&lt;span style=&quot;color: #4fc1ff;&quot;&gt;mozillaNs&lt;/span&gt;&lt;span style=&quot;color: #cccccc;&quot;&gt;.&lt;/span&gt;&lt;span style=&quot;color: #dcdcaa;&quot;&gt;addRoom&lt;/span&gt;&lt;span style=&quot;color: #cccccc;&quot;&gt;(&lt;/span&gt;&lt;span style=&quot;color: #569cd6;&quot;&gt;new&lt;/span&gt;&lt;span style=&quot;color: #cccccc;&quot;&gt; &lt;/span&gt;&lt;span style=&quot;color: #4ec9b0;&quot;&gt;Room&lt;/span&gt;&lt;span style=&quot;color: #cccccc;&quot;&gt;(&lt;/span&gt;&lt;span style=&quot;color: #b5cea8;&quot;&gt;1&lt;/span&gt;&lt;span style=&quot;color: #cccccc;&quot;&gt;, &lt;/span&gt;&lt;span style=&quot;color: #ce9178;&quot;&gt;&quot;seaMonkey&quot;&lt;/span&gt;&lt;span style=&quot;color: #cccccc;&quot;&gt;, &lt;/span&gt;&lt;span style=&quot;color: #b5cea8;&quot;&gt;1&lt;/span&gt;&lt;span style=&quot;color: #cccccc;&quot;&gt;));&lt;/span&gt;&lt;/div&gt;&lt;div&gt;&lt;span style=&quot;color: #4fc1ff;&quot;&gt;mozillaNs&lt;/span&gt;&lt;span style=&quot;color: #cccccc;&quot;&gt;.&lt;/span&gt;&lt;span style=&quot;color: #dcdcaa;&quot;&gt;addRoom&lt;/span&gt;&lt;span style=&quot;color: #cccccc;&quot;&gt;(&lt;/span&gt;&lt;span style=&quot;color: #569cd6;&quot;&gt;new&lt;/span&gt;&lt;span style=&quot;color: #cccccc;&quot;&gt; &lt;/span&gt;&lt;span style=&quot;color: #4ec9b0;&quot;&gt;Room&lt;/span&gt;&lt;span style=&quot;color: #cccccc;&quot;&gt;(&lt;/span&gt;&lt;span style=&quot;color: #b5cea8;&quot;&gt;2&lt;/span&gt;&lt;span style=&quot;color: #cccccc;&quot;&gt;, &lt;/span&gt;&lt;span style=&quot;color: #ce9178;&quot;&gt;&quot;spiderMonkey&quot;&lt;/span&gt;&lt;span style=&quot;color: #cccccc;&quot;&gt;, &lt;/span&gt;&lt;span style=&quot;color: #b5cea8;&quot;&gt;1&lt;/span&gt;&lt;span style=&quot;color: #cccccc;&quot;&gt;));&lt;/span&gt;&lt;/div&gt;&lt;div&gt;&lt;span style=&quot;color: #4fc1ff;&quot;&gt;mozillaNs&lt;/span&gt;&lt;span style=&quot;color: #cccccc;&quot;&gt;.&lt;/span&gt;&lt;span style=&quot;color: #dcdcaa;&quot;&gt;addRoom&lt;/span&gt;&lt;span style=&quot;color: #cccccc;&quot;&gt;(&lt;/span&gt;&lt;span style=&quot;color: #569cd6;&quot;&gt;new&lt;/span&gt;&lt;span style=&quot;color: #cccccc;&quot;&gt; &lt;/span&gt;&lt;span style=&quot;color: #4ec9b0;&quot;&gt;Room&lt;/span&gt;&lt;span style=&quot;color: #cccccc;&quot;&gt;(&lt;/span&gt;&lt;span style=&quot;color: #b5cea8;&quot;&gt;3&lt;/span&gt;&lt;span style=&quot;color: #cccccc;&quot;&gt;, &lt;/span&gt;&lt;span style=&quot;color: #ce9178;&quot;&gt;&quot;rust&quot;&lt;/span&gt;&lt;span style=&quot;color: #cccccc;&quot;&gt;, &lt;/span&gt;&lt;span style=&quot;color: #b5cea8;&quot;&gt;1&lt;/span&gt;&lt;span style=&quot;color: #cccccc;&quot;&gt;));&lt;/span&gt;&lt;/div&gt;&lt;br&gt;&lt;div&gt;&lt;span style=&quot;color: #4fc1ff;&quot;&gt;linuxNs&lt;/span&gt;&lt;span style=&quot;color: #cccccc;&quot;&gt;.&lt;/span&gt;&lt;span style=&quot;color: #dcdcaa;&quot;&gt;addRoom&lt;/span&gt;&lt;span style=&quot;color: #cccccc;&quot;&gt;(&lt;/span&gt;&lt;span style=&quot;color: #569cd6;&quot;&gt;new&lt;/span&gt;&lt;span style=&quot;color: #cccccc;&quot;&gt; &lt;/span&gt;&lt;span style=&quot;color: #4ec9b0;&quot;&gt;Room&lt;/span&gt;&lt;span style=&quot;color: #cccccc;&quot;&gt;(&lt;/span&gt;&lt;span style=&quot;color: #b5cea8;&quot;&gt;0&lt;/span&gt;&lt;span style=&quot;color: #cccccc;&quot;&gt;, &lt;/span&gt;&lt;span style=&quot;color: #ce9178;&quot;&gt;&quot;Debian&quot;&lt;/span&gt;&lt;span style=&quot;color: #cccccc;&quot;&gt;, &lt;/span&gt;&lt;span style=&quot;color: #b5cea8;&quot;&gt;2&lt;/span&gt;&lt;span style=&quot;color: #cccccc;&quot;&gt;));&lt;/span&gt;&lt;/div&gt;&lt;div&gt;&lt;span style=&quot;color: #4fc1ff;&quot;&gt;linuxNs&lt;/span&gt;&lt;span style=&quot;color: #cccccc;&quot;&gt;.&lt;/span&gt;&lt;span style=&quot;color: #dcdcaa;&quot;&gt;addRoom&lt;/span&gt;&lt;span style=&quot;color: #cccccc;&quot;&gt;(&lt;/span&gt;&lt;span style=&quot;color: #569cd6;&quot;&gt;new&lt;/span&gt;&lt;span style=&quot;color: #cccccc;&quot;&gt; &lt;/span&gt;&lt;span style=&quot;color: #4ec9b0;&quot;&gt;Room&lt;/span&gt;&lt;span style=&quot;color: #cccccc;&quot;&gt;(&lt;/span&gt;&lt;span style=&quot;color: #b5cea8;&quot;&gt;1&lt;/span&gt;&lt;span style=&quot;color: #cccccc;&quot;&gt;, &lt;/span&gt;&lt;span style=&quot;color: #ce9178;&quot;&gt;&quot;Red hat&quot;&lt;/span&gt;&lt;span style=&quot;color: #cccccc;&quot;&gt;, &lt;/span&gt;&lt;span style=&quot;color: #b5cea8;&quot;&gt;2&lt;/span&gt;&lt;span style=&quot;color: #cccccc;&quot;&gt;));&lt;/span&gt;&lt;/div&gt;&lt;div&gt;&lt;span style=&quot;color: #4fc1ff;&quot;&gt;linuxNs&lt;/span&gt;&lt;span style=&quot;color: #cccccc;&quot;&gt;.&lt;/span&gt;&lt;span style=&quot;color: #dcdcaa;&quot;&gt;addRoom&lt;/span&gt;&lt;span style=&quot;color: #cccccc;&quot;&gt;(&lt;/span&gt;&lt;span style=&quot;color: #569cd6;&quot;&gt;new&lt;/span&gt;&lt;span style=&quot;color: #cccccc;&quot;&gt; &lt;/span&gt;&lt;span style=&quot;color: #4ec9b0;&quot;&gt;Room&lt;/span&gt;&lt;span style=&quot;color: #cccccc;&quot;&gt;(&lt;/span&gt;&lt;span style=&quot;color: #b5cea8;&quot;&gt;2&lt;/span&gt;&lt;span style=&quot;color: #cccccc;&quot;&gt;, &lt;/span&gt;&lt;span style=&quot;color: #ce9178;&quot;&gt;&quot;Ubuntu&quot;&lt;/span&gt;&lt;span style=&quot;color: #cccccc;&quot;&gt;, &lt;/span&gt;&lt;span style=&quot;color: #b5cea8;&quot;&gt;2&lt;/span&gt;&lt;span style=&quot;color: #cccccc;&quot;&gt;));&lt;/span&gt;&lt;/div&gt;&lt;div&gt;&lt;span style=&quot;color: #4fc1ff;&quot;&gt;linuxNs&lt;/span&gt;&lt;span style=&quot;color: #cccccc;&quot;&gt;.&lt;/span&gt;&lt;span style=&quot;color: #dcdcaa;&quot;&gt;addRoom&lt;/span&gt;&lt;span style=&quot;color: #cccccc;&quot;&gt;(&lt;/span&gt;&lt;span style=&quot;color: #569cd6;&quot;&gt;new&lt;/span&gt;&lt;span style=&quot;color: #cccccc;&quot;&gt; &lt;/span&gt;&lt;span style=&quot;color: #4ec9b0;&quot;&gt;Room&lt;/span&gt;&lt;span style=&quot;color: #cccccc;&quot;&gt;(&lt;/span&gt;&lt;span style=&quot;color: #b5cea8;&quot;&gt;3&lt;/span&gt;&lt;span style=&quot;color: #cccccc;&quot;&gt;, &lt;/span&gt;&lt;span style=&quot;color: #ce9178;&quot;&gt;&quot;MacOS&quot;&lt;/span&gt;&lt;span style=&quot;color: #cccccc;&quot;&gt;, &lt;/span&gt;&lt;span style=&quot;color: #b5cea8;&quot;&gt;2&lt;/span&gt;&lt;span style=&quot;color: #cccccc;&quot;&gt;));&lt;/span&gt;&lt;/div&gt;&lt;br&gt;&lt;div&gt;&lt;span style=&quot;color: #569cd6;&quot;&gt;const&lt;/span&gt;&lt;span style=&quot;color: #cccccc;&quot;&gt; &lt;/span&gt;&lt;span style=&quot;color: #4fc1ff;&quot;&gt;namespaces&lt;/span&gt;&lt;span style=&quot;color: #cccccc;&quot;&gt; &lt;/span&gt;&lt;span style=&quot;color: #d4d4d4;&quot;&gt;=&lt;/span&gt;&lt;span style=&quot;color: #cccccc;&quot;&gt; [&lt;/span&gt;&lt;span style=&quot;color: #4fc1ff;&quot;&gt;wikiNs&lt;/span&gt;&lt;span style=&quot;color: #cccccc;&quot;&gt;, &lt;/span&gt;&lt;span style=&quot;color: #4fc1ff;&quot;&gt;mozillaNs&lt;/span&gt;&lt;span style=&quot;color: #cccccc;&quot;&gt;, &lt;/span&gt;&lt;span style=&quot;color: #4fc1ff;&quot;&gt;linuxNs&lt;/span&gt;&lt;span style=&quot;color: #cccccc;&quot;&gt;];&lt;/span&gt;&lt;/div&gt;&lt;br&gt;&lt;div&gt;&lt;span style=&quot;color: #c586c0;&quot;&gt;export&lt;/span&gt;&lt;span style=&quot;color: #cccccc;&quot;&gt; { &lt;/span&gt;&lt;span style=&quot;color: #4fc1ff;&quot;&gt;namespaces&lt;/span&gt;&lt;span style=&quot;color: #cccccc;&quot;&gt; };&lt;/span&gt;&lt;/div&gt;&lt;br&gt;&lt;/div&gt;" link="&lt;div style=&quot;color: #cccccc;background-color: #1f1f1f;font-family: Consolas, &#39;Courier New&#39;, monospace;font-weight: normal;font-size: 14px;line-height: 19px;white-space: pre;&quot;&gt;&lt;div&gt;&lt;span style=&quot;color: #c586c0;&quot;&gt;import&lt;/span&gt;&lt;span style=&quot;color: #cccccc;&quot;&gt; &lt;/span&gt;&lt;span style=&quot;color: #9cdcfe;&quot;&gt;Namespace&lt;/span&gt;&lt;span style=&quot;color: #cccccc;&quot;&gt; &lt;/span&gt;&lt;span style=&quot;color: #c586c0;&quot;&gt;from&lt;/span&gt;&lt;span style=&quot;color: #cccccc;&quot;&gt; &lt;/span&gt;&lt;span style=&quot;color: #ce9178;&quot;&gt;&quot;@/utils/chat/Namespace&quot;&lt;/span&gt;&lt;span style=&quot;color: #cccccc;&quot;&gt;;&lt;/span&gt;&lt;/div&gt;&lt;div&gt;&lt;span style=&quot;color: #c586c0;&quot;&gt;import&lt;/span&gt;&lt;span style=&quot;color: #cccccc;&quot;&gt; &lt;/span&gt;&lt;span style=&quot;color: #9cdcfe;&quot;&gt;Room&lt;/span&gt;&lt;span style=&quot;color: #cccccc;&quot;&gt; &lt;/span&gt;&lt;span style=&quot;color: #c586c0;&quot;&gt;from&lt;/span&gt;&lt;span style=&quot;color: #cccccc;&quot;&gt; &lt;/span&gt;&lt;span style=&quot;color: #ce9178;&quot;&gt;&quot;@/utils/chat/Room&quot;&lt;/span&gt;&lt;span style=&quot;color: #cccccc;&quot;&gt;;&lt;/span&gt;&lt;/div&gt;&lt;br&gt;&lt;div&gt;&lt;span style=&quot;color: #6a9955;&quot;&gt;// Namespace(id, name, image, endpoint)&lt;/span&gt;&lt;/div&gt;&lt;div&gt;&lt;span style=&quot;color: #6a9955;&quot;&gt;//.addRoom()&lt;/span&gt;&lt;/div&gt;&lt;br&gt;&lt;div&gt;&lt;span style=&quot;color: #6a9955;&quot;&gt;//here we are hardcoding; in production: connect to database to get data&lt;/span&gt;&lt;/div&gt;&lt;div&gt;&lt;span style=&quot;color: #569cd6;&quot;&gt;const&lt;/span&gt;&lt;span style=&quot;color: #cccccc;&quot;&gt; &lt;/span&gt;&lt;span style=&quot;color: #4fc1ff;&quot;&gt;wikiNs&lt;/span&gt;&lt;span style=&quot;color: #cccccc;&quot;&gt; &lt;/span&gt;&lt;span style=&quot;color: #d4d4d4;&quot;&gt;=&lt;/span&gt;&lt;span style=&quot;color: #cccccc;&quot;&gt; &lt;/span&gt;&lt;span style=&quot;color: #569cd6;&quot;&gt;new&lt;/span&gt;&lt;span style=&quot;color: #cccccc;&quot;&gt; &lt;/span&gt;&lt;span style=&quot;color: #4ec9b0;&quot;&gt;Namespace&lt;/span&gt;&lt;span style=&quot;color: #cccccc;&quot;&gt;(&lt;/span&gt;&lt;/div&gt;&lt;div&gt;&lt;span style=&quot;color: #cccccc;&quot;&gt;&amp;nbsp; &lt;/span&gt;&lt;span style=&quot;color: #b5cea8;&quot;&gt;0&lt;/span&gt;&lt;span style=&quot;color: #cccccc;&quot;&gt;,&lt;/span&gt;&lt;/div&gt;&lt;div&gt;&lt;span style=&quot;color: #cccccc;&quot;&gt;&amp;nbsp; &lt;/span&gt;&lt;span style=&quot;color: #ce9178;&quot;&gt;&quot;Wikipedia&quot;&lt;/span&gt;&lt;span style=&quot;color: #cccccc;&quot;&gt;,&lt;/span&gt;&lt;/div&gt;&lt;div&gt;&lt;span style=&quot;color: #cccccc;&quot;&gt;&amp;nbsp; &lt;/span&gt;&lt;span style=&quot;color: #ce9178;&quot;&gt;&quot;https://upload.wikimedia.org/wikipedia/en/thumb/8/80/Wikipedia-logo-v2.svg/103px-Wikipedia-logo-v2.svg.png&quot;&lt;/span&gt;&lt;span style=&quot;color: #cccccc;&quot;&gt;,&lt;/span&gt;&lt;/div&gt;&lt;div&gt;&lt;span style=&quot;color: #cccccc;&quot;&gt;&amp;nbsp; &lt;/span&gt;&lt;span style=&quot;color: #ce9178;&quot;&gt;&quot;/wiki&quot;&lt;/span&gt;&lt;/div&gt;&lt;div&gt;&lt;span style=&quot;color: #cccccc;&quot;&gt;);&lt;/span&gt;&lt;/div&gt;&lt;br&gt;&lt;div&gt;&lt;span style=&quot;color: #569cd6;&quot;&gt;const&lt;/span&gt;&lt;span style=&quot;color: #cccccc;&quot;&gt; &lt;/span&gt;&lt;span style=&quot;color: #4fc1ff;&quot;&gt;mozillaNs&lt;/span&gt;&lt;span style=&quot;color: #cccccc;&quot;&gt; &lt;/span&gt;&lt;span style=&quot;color: #d4d4d4;&quot;&gt;=&lt;/span&gt;&lt;span style=&quot;color: #cccccc;&quot;&gt; &lt;/span&gt;&lt;span style=&quot;color: #569cd6;&quot;&gt;new&lt;/span&gt;&lt;span style=&quot;color: #cccccc;&quot;&gt; &lt;/span&gt;&lt;span style=&quot;color: #4ec9b0;&quot;&gt;Namespace&lt;/span&gt;&lt;span style=&quot;color: #cccccc;&quot;&gt;(&lt;/span&gt;&lt;/div&gt;&lt;div&gt;&lt;span style=&quot;color: #cccccc;&quot;&gt;&amp;nbsp; &lt;/span&gt;&lt;span style=&quot;color: #b5cea8;&quot;&gt;1&lt;/span&gt;&lt;span style=&quot;color: #cccccc;&quot;&gt;,&lt;/span&gt;&lt;/div&gt;&lt;div&gt;&lt;span style=&quot;color: #cccccc;&quot;&gt;&amp;nbsp; &lt;/span&gt;&lt;span style=&quot;color: #ce9178;&quot;&gt;&quot;Mozilla&quot;&lt;/span&gt;&lt;span style=&quot;color: #cccccc;&quot;&gt;,&lt;/span&gt;&lt;/div&gt;&lt;div&gt;&lt;span style=&quot;color: #cccccc;&quot;&gt;&amp;nbsp; &lt;/span&gt;&lt;span style=&quot;color: #ce9178;&quot;&gt;&quot;https://www.mozilla.org/media/img/logos/firefox/logo-quantum.9c5e96634f92.png&quot;&lt;/span&gt;&lt;span style=&quot;color: #cccccc;&quot;&gt;,&lt;/span&gt;&lt;/div&gt;&lt;div&gt;&lt;span style=&quot;color: #cccccc;&quot;&gt;&amp;nbsp; &lt;/span&gt;&lt;span style=&quot;color: #ce9178;&quot;&gt;&quot;/mozilla&quot;&lt;/span&gt;&lt;/div&gt;&lt;div&gt;&lt;span style=&quot;color: #cccccc;&quot;&gt;);&lt;/span&gt;&lt;/div&gt;&lt;br&gt;&lt;div&gt;&lt;span style=&quot;color: #569cd6;&quot;&gt;const&lt;/span&gt;&lt;span style=&quot;color: #cccccc;&quot;&gt; &lt;/span&gt;&lt;span style=&quot;color: #4fc1ff;&quot;&gt;linuxNs&lt;/span&gt;&lt;span style=&quot;color: #cccccc;&quot;&gt; &lt;/span&gt;&lt;span style=&quot;color: #d4d4d4;&quot;&gt;=&lt;/span&gt;&lt;span style=&quot;color: #cccccc;&quot;&gt; &lt;/span&gt;&lt;span style=&quot;color: #569cd6;&quot;&gt;new&lt;/span&gt;&lt;span style=&quot;color: #cccccc;&quot;&gt; &lt;/span&gt;&lt;span style=&quot;color: #4ec9b0;&quot;&gt;Namespace&lt;/span&gt;&lt;span style=&quot;color: #cccccc;&quot;&gt;(&lt;/span&gt;&lt;/div&gt;&lt;div&gt;&lt;span style=&quot;color: #cccccc;&quot;&gt;&amp;nbsp; &lt;/span&gt;&lt;span style=&quot;color: #b5cea8;&quot;&gt;2&lt;/span&gt;&lt;span style=&quot;color: #cccccc;&quot;&gt;,&lt;/span&gt;&lt;/div&gt;&lt;div&gt;&lt;span style=&quot;color: #cccccc;&quot;&gt;&amp;nbsp; &lt;/span&gt;&lt;span style=&quot;color: #ce9178;&quot;&gt;&quot;Linux&quot;&lt;/span&gt;&lt;span style=&quot;color: #cccccc;&quot;&gt;,&lt;/span&gt;&lt;/div&gt;&lt;div&gt;&lt;span style=&quot;color: #cccccc;&quot;&gt;&amp;nbsp; &lt;/span&gt;&lt;span style=&quot;color: #ce9178;&quot;&gt;&quot;https://upload.wikimedia.org/wikipedia/commons/a/af/Tux.png&quot;&lt;/span&gt;&lt;span style=&quot;color: #cccccc;&quot;&gt;,&lt;/span&gt;&lt;/div&gt;&lt;div&gt;&lt;span style=&quot;color: #cccccc;&quot;&gt;&amp;nbsp; &lt;/span&gt;&lt;span style=&quot;color: #ce9178;&quot;&gt;&quot;/linux&quot;&lt;/span&gt;&lt;/div&gt;&lt;div&gt;&lt;span style=&quot;color: #cccccc;&quot;&gt;);&lt;/span&gt;&lt;/div&gt;&lt;br&gt;&lt;div&gt;&lt;span style=&quot;color: #6a9955;&quot;&gt;// 29. rooms and namespaces - ADD ROOMS TO NAMESPACES&lt;/span&gt;&lt;/div&gt;&lt;div&gt;&lt;span style=&quot;color: #4fc1ff;&quot;&gt;wikiNs&lt;/span&gt;&lt;span style=&quot;color: #cccccc;&quot;&gt;.&lt;/span&gt;&lt;span style=&quot;color: #dcdcaa;&quot;&gt;addRoom&lt;/span&gt;&lt;span style=&quot;color: #cccccc;&quot;&gt;(&lt;/span&gt;&lt;span style=&quot;color: #569cd6;&quot;&gt;new&lt;/span&gt;&lt;span style=&quot;color: #cccccc;&quot;&gt; &lt;/span&gt;&lt;span style=&quot;color: #4ec9b0;&quot;&gt;Room&lt;/span&gt;&lt;span style=&quot;color: #cccccc;&quot;&gt;(&lt;/span&gt;&lt;span style=&quot;color: #b5cea8;&quot;&gt;0&lt;/span&gt;&lt;span style=&quot;color: #cccccc;&quot;&gt;, &lt;/span&gt;&lt;span style=&quot;color: #ce9178;&quot;&gt;&quot;news articles&quot;&lt;/span&gt;&lt;span style=&quot;color: #cccccc;&quot;&gt;, &lt;/span&gt;&lt;span style=&quot;color: #b5cea8;&quot;&gt;0&lt;/span&gt;&lt;span style=&quot;color: #cccccc;&quot;&gt;));&lt;/span&gt;&lt;/div&gt;&lt;div&gt;&lt;span style=&quot;color: #4fc1ff;&quot;&gt;wikiNs&lt;/span&gt;&lt;span style=&quot;color: #cccccc;&quot;&gt;.&lt;/span&gt;&lt;span style=&quot;color: #dcdcaa;&quot;&gt;addRoom&lt;/span&gt;&lt;span style=&quot;color: #cccccc;&quot;&gt;(&lt;/span&gt;&lt;span style=&quot;color: #569cd6;&quot;&gt;new&lt;/span&gt;&lt;span style=&quot;color: #cccccc;&quot;&gt; &lt;/span&gt;&lt;span style=&quot;color: #4ec9b0;&quot;&gt;Room&lt;/span&gt;&lt;span style=&quot;color: #cccccc;&quot;&gt;(&lt;/span&gt;&lt;span style=&quot;color: #b5cea8;&quot;&gt;1&lt;/span&gt;&lt;span style=&quot;color: #cccccc;&quot;&gt;, &lt;/span&gt;&lt;span style=&quot;color: #ce9178;&quot;&gt;&quot;editors&quot;&lt;/span&gt;&lt;span style=&quot;color: #cccccc;&quot;&gt;, &lt;/span&gt;&lt;span style=&quot;color: #b5cea8;&quot;&gt;0&lt;/span&gt;&lt;span style=&quot;color: #cccccc;&quot;&gt;));&lt;/span&gt;&lt;/div&gt;&lt;div&gt;&lt;span style=&quot;color: #4fc1ff;&quot;&gt;wikiNs&lt;/span&gt;&lt;span style=&quot;color: #cccccc;&quot;&gt;.&lt;/span&gt;&lt;span style=&quot;color: #dcdcaa;&quot;&gt;addRoom&lt;/span&gt;&lt;span style=&quot;color: #cccccc;&quot;&gt;(&lt;/span&gt;&lt;span style=&quot;color: #569cd6;&quot;&gt;new&lt;/span&gt;&lt;span style=&quot;color: #cccccc;&quot;&gt; &lt;/span&gt;&lt;span style=&quot;color: #4ec9b0;&quot;&gt;Room&lt;/span&gt;&lt;span style=&quot;color: #cccccc;&quot;&gt;(&lt;/span&gt;&lt;span style=&quot;color: #b5cea8;&quot;&gt;2&lt;/span&gt;&lt;span style=&quot;color: #cccccc;&quot;&gt;, &lt;/span&gt;&lt;span style=&quot;color: #ce9178;&quot;&gt;&quot;other&quot;&lt;/span&gt;&lt;span style=&quot;color: #cccccc;&quot;&gt;, &lt;/span&gt;&lt;span style=&quot;color: #b5cea8;&quot;&gt;0&lt;/span&gt;&lt;span style=&quot;color: #cccccc;&quot;&gt;, &lt;/span&gt;&lt;span style=&quot;color: #569cd6;&quot;&gt;true&lt;/span&gt;&lt;span style=&quot;color: #cccccc;&quot;&gt;));&lt;/span&gt;&lt;/div&gt;&lt;br&gt;&lt;div&gt;&lt;span style=&quot;color: #4fc1ff;&quot;&gt;mozillaNs&lt;/span&gt;&lt;span style=&quot;color: #cccccc;&quot;&gt;.&lt;/span&gt;&lt;span style=&quot;color: #dcdcaa;&quot;&gt;addRoom&lt;/span&gt;&lt;span style=&quot;color: #cccccc;&quot;&gt;(&lt;/span&gt;&lt;span style=&quot;color: #569cd6;&quot;&gt;new&lt;/span&gt;&lt;span style=&quot;color: #cccccc;&quot;&gt; &lt;/span&gt;&lt;span style=&quot;color: #4ec9b0;&quot;&gt;Room&lt;/span&gt;&lt;span style=&quot;color: #cccccc;&quot;&gt;(&lt;/span&gt;&lt;span style=&quot;color: #b5cea8;&quot;&gt;0&lt;/span&gt;&lt;span style=&quot;color: #cccccc;&quot;&gt;, &lt;/span&gt;&lt;span style=&quot;color: #ce9178;&quot;&gt;&quot;firefox&quot;&lt;/span&gt;&lt;span style=&quot;color: #cccccc;&quot;&gt;, &lt;/span&gt;&lt;span style=&quot;color: #b5cea8;&quot;&gt;1&lt;/span&gt;&lt;span style=&quot;color: #cccccc;&quot;&gt;));&lt;/span&gt;&lt;/div&gt;&lt;div&gt;&lt;span style=&quot;color: #4fc1ff;&quot;&gt;mozillaNs&lt;/span&gt;&lt;span style=&quot;color: #cccccc;&quot;&gt;.&lt;/span&gt;&lt;span style=&quot;color: #dcdcaa;&quot;&gt;addRoom&lt;/span&gt;&lt;span style=&quot;color: #cccccc;&quot;&gt;(&lt;/span&gt;&lt;span style=&quot;color: #569cd6;&quot;&gt;new&lt;/span&gt;&lt;span style=&quot;color: #cccccc;&quot;&gt; &lt;/span&gt;&lt;span style=&quot;color: #4ec9b0;&quot;&gt;Room&lt;/span&gt;&lt;span style=&quot;color: #cccccc;&quot;&gt;(&lt;/span&gt;&lt;span style=&quot;color: #b5cea8;&quot;&gt;1&lt;/span&gt;&lt;span style=&quot;color: #cccccc;&quot;&gt;, &lt;/span&gt;&lt;span style=&quot;color: #ce9178;&quot;&gt;&quot;seaMonkey&quot;&lt;/span&gt;&lt;span style=&quot;color: #cccccc;&quot;&gt;, &lt;/span&gt;&lt;span style=&quot;color: #b5cea8;&quot;&gt;1&lt;/span&gt;&lt;span style=&quot;color: #cccccc;&quot;&gt;));&lt;/span&gt;&lt;/div&gt;&lt;div&gt;&lt;span style=&quot;color: #4fc1ff;&quot;&gt;mozillaNs&lt;/span&gt;&lt;span style=&quot;color: #cccccc;&quot;&gt;.&lt;/span&gt;&lt;span style=&quot;color: #dcdcaa;&quot;&gt;addRoom&lt;/span&gt;&lt;span style=&quot;color: #cccccc;&quot;&gt;(&lt;/span&gt;&lt;span style=&quot;color: #569cd6;&quot;&gt;new&lt;/span&gt;&lt;span style=&quot;color: #cccccc;&quot;&gt; &lt;/span&gt;&lt;span style=&quot;color: #4ec9b0;&quot;&gt;Room&lt;/span&gt;&lt;span style=&quot;color: #cccccc;&quot;&gt;(&lt;/span&gt;&lt;span style=&quot;color: #b5cea8;&quot;&gt;2&lt;/span&gt;&lt;span style=&quot;color: #cccccc;&quot;&gt;, &lt;/span&gt;&lt;span style=&quot;color: #ce9178;&quot;&gt;&quot;spiderMonkey&quot;&lt;/span&gt;&lt;span style=&quot;color: #cccccc;&quot;&gt;, &lt;/span&gt;&lt;span style=&quot;color: #b5cea8;&quot;&gt;1&lt;/span&gt;&lt;span style=&quot;color: #cccccc;&quot;&gt;));&lt;/span&gt;&lt;/div&gt;&lt;div&gt;&lt;span style=&quot;color: #4fc1ff;&quot;&gt;mozillaNs&lt;/span&gt;&lt;span style=&quot;color: #cccccc;&quot;&gt;.&lt;/span&gt;&lt;span style=&quot;color: #dcdcaa;&quot;&gt;addRoom&lt;/span&gt;&lt;span style=&quot;color: #cccccc;&quot;&gt;(&lt;/span&gt;&lt;span style=&quot;color: #569cd6;&quot;&gt;new&lt;/span&gt;&lt;span style=&quot;color: #cccccc;&quot;&gt; &lt;/span&gt;&lt;span style=&quot;color: #4ec9b0;&quot;&gt;Room&lt;/span&gt;&lt;span style=&quot;color: #cccccc;&quot;&gt;(&lt;/span&gt;&lt;span style=&quot;color: #b5cea8;&quot;&gt;3&lt;/span&gt;&lt;span style=&quot;color: #cccccc;&quot;&gt;, &lt;/span&gt;&lt;span style=&quot;color: #ce9178;&quot;&gt;&quot;rust&quot;&lt;/span&gt;&lt;span style=&quot;color: #cccccc;&quot;&gt;, &lt;/span&gt;&lt;span style=&quot;color: #b5cea8;&quot;&gt;1&lt;/span&gt;&lt;span style=&quot;color: #cccccc;&quot;&gt;));&lt;/span&gt;&lt;/div&gt;&lt;br&gt;&lt;div&gt;&lt;span style=&quot;color: #4fc1ff;&quot;&gt;linuxNs&lt;/span&gt;&lt;span style=&quot;color: #cccccc;&quot;&gt;.&lt;/span&gt;&lt;span style=&quot;color: #dcdcaa;&quot;&gt;addRoom&lt;/span&gt;&lt;span style=&quot;color: #cccccc;&quot;&gt;(&lt;/span&gt;&lt;span style=&quot;color: #569cd6;&quot;&gt;new&lt;/span&gt;&lt;span style=&quot;color: #cccccc;&quot;&gt; &lt;/span&gt;&lt;span style=&quot;color: #4ec9b0;&quot;&gt;Room&lt;/span&gt;&lt;span style=&quot;color: #cccccc;&quot;&gt;(&lt;/span&gt;&lt;span style=&quot;color: #b5cea8;&quot;&gt;0&lt;/span&gt;&lt;span style=&quot;color: #cccccc;&quot;&gt;, &lt;/span&gt;&lt;span style=&quot;color: #ce9178;&quot;&gt;&quot;Debian&quot;&lt;/span&gt;&lt;span style=&quot;color: #cccccc;&quot;&gt;, &lt;/span&gt;&lt;span style=&quot;color: #b5cea8;&quot;&gt;2&lt;/span&gt;&lt;span style=&quot;color: #cccccc;&quot;&gt;));&lt;/span&gt;&lt;/div&gt;&lt;div&gt;&lt;span style=&quot;color: #4fc1ff;&quot;&gt;linuxNs&lt;/span&gt;&lt;span style=&quot;color: #cccccc;&quot;&gt;.&lt;/span&gt;&lt;span style=&quot;color: #dcdcaa;&quot;&gt;addRoom&lt;/span&gt;&lt;span style=&quot;color: #cccccc;&quot;&gt;(&lt;/span&gt;&lt;span style=&quot;color: #569cd6;&quot;&gt;new&lt;/span&gt;&lt;span style=&quot;color: #cccccc;&quot;&gt; &lt;/span&gt;&lt;span style=&quot;color: #4ec9b0;&quot;&gt;Room&lt;/span&gt;&lt;span style=&quot;color: #cccccc;&quot;&gt;(&lt;/span&gt;&lt;span style=&quot;color: #b5cea8;&quot;&gt;1&lt;/span&gt;&lt;span style=&quot;color: #cccccc;&quot;&gt;, &lt;/span&gt;&lt;span style=&quot;color: #ce9178;&quot;&gt;&quot;Red hat&quot;&lt;/span&gt;&lt;span style=&quot;color: #cccccc;&quot;&gt;, &lt;/span&gt;&lt;span style=&quot;color: #b5cea8;&quot;&gt;2&lt;/span&gt;&lt;span style=&quot;color: #cccccc;&quot;&gt;));&lt;/span&gt;&lt;/div&gt;&lt;div&gt;&lt;span style=&quot;color: #4fc1ff;&quot;&gt;linuxNs&lt;/span&gt;&lt;span style=&quot;color: #cccccc;&quot;&gt;.&lt;/span&gt;&lt;span style=&quot;color: #dcdcaa;&quot;&gt;addRoom&lt;/span&gt;&lt;span style=&quot;color: #cccccc;&quot;&gt;(&lt;/span&gt;&lt;span style=&quot;color: #569cd6;&quot;&gt;new&lt;/span&gt;&lt;span style=&quot;color: #cccccc;&quot;&gt; &lt;/span&gt;&lt;span style=&quot;color: #4ec9b0;&quot;&gt;Room&lt;/span&gt;&lt;span style=&quot;color: #cccccc;&quot;&gt;(&lt;/span&gt;&lt;span style=&quot;color: #b5cea8;&quot;&gt;2&lt;/span&gt;&lt;span style=&quot;color: #cccccc;&quot;&gt;, &lt;/span&gt;&lt;span style=&quot;color: #ce9178;&quot;&gt;&quot;Ubuntu&quot;&lt;/span&gt;&lt;span style=&quot;color: #cccccc;&quot;&gt;, &lt;/span&gt;&lt;span style=&quot;color: #b5cea8;&quot;&gt;2&lt;/span&gt;&lt;span style=&quot;color: #cccccc;&quot;&gt;));&lt;/span&gt;&lt;/div&gt;&lt;div&gt;&lt;span style=&quot;color: #4fc1ff;&quot;&gt;linuxNs&lt;/span&gt;&lt;span style=&quot;color: #cccccc;&quot;&gt;.&lt;/span&gt;&lt;span style=&quot;color: #dcdcaa;&quot;&gt;addRoom&lt;/span&gt;&lt;span style=&quot;color: #cccccc;&quot;&gt;(&lt;/span&gt;&lt;span style=&quot;color: #569cd6;&quot;&gt;new&lt;/span&gt;&lt;span style=&quot;color: #cccccc;&quot;&gt; &lt;/span&gt;&lt;span style=&quot;color: #4ec9b0;&quot;&gt;Room&lt;/span&gt;&lt;span style=&quot;color: #cccccc;&quot;&gt;(&lt;/span&gt;&lt;span style=&quot;color: #b5cea8;&quot;&gt;3&lt;/span&gt;&lt;span style=&quot;color: #cccccc;&quot;&gt;, &lt;/span&gt;&lt;span style=&quot;color: #ce9178;&quot;&gt;&quot;MacOS&quot;&lt;/span&gt;&lt;span style=&quot;color: #cccccc;&quot;&gt;, &lt;/span&gt;&lt;span style=&quot;color: #b5cea8;&quot;&gt;2&lt;/span&gt;&lt;span style=&quot;color: #cccccc;&quot;&gt;));&lt;/span&gt;&lt;/div&gt;&lt;br&gt;&lt;div&gt;&lt;span style=&quot;color: #569cd6;&quot;&gt;const&lt;/span&gt;&lt;span style=&quot;color: #cccccc;&quot;&gt; &lt;/span&gt;&lt;span style=&quot;color: #4fc1ff;&quot;&gt;namespaces&lt;/span&gt;&lt;span style=&quot;color: #cccccc;&quot;&gt; &lt;/span&gt;&lt;span style=&quot;color: #d4d4d4;&quot;&gt;=&lt;/span&gt;&lt;span style=&quot;color: #cccccc;&quot;&gt; [&lt;/span&gt;&lt;span style=&quot;color: #4fc1ff;&quot;&gt;wikiNs&lt;/span&gt;&lt;span style=&quot;color: #cccccc;&quot;&gt;, &lt;/span&gt;&lt;span style=&quot;color: #4fc1ff;&quot;&gt;mozillaNs&lt;/span&gt;&lt;span style=&quot;color: #cccccc;&quot;&gt;, &lt;/span&gt;&lt;span style=&quot;color: #4fc1ff;&quot;&gt;linuxNs&lt;/span&gt;&lt;span style=&quot;color: #cccccc;&quot;&gt;];&lt;/span&gt;&lt;/div&gt;&lt;br&gt;&lt;div&gt;&lt;span style=&quot;color: #c586c0;&quot;&gt;export&lt;/span&gt;&lt;span style=&quot;color: #cccccc;&quot;&gt; { &lt;/span&gt;&lt;span style=&quot;color: #4fc1ff;&quot;&gt;namespaces&lt;/span&gt;&lt;span style=&quot;color: #cccccc;&quot;&gt; };&lt;/span&gt;&lt;/div&gt;&lt;br&gt;&lt;/div&gt;" id="_w_OkT1hiIyt1mrQMRYV-23">
          <mxCell style="text;whiteSpace=wrap;html=1;" parent="_w_OkT1hiIyt1mrQMRYV-33" vertex="1">
            <mxGeometry x="10" y="75" width="560" height="920" as="geometry" />
          </mxCell>
        </UserObject>
        <mxCell id="_w_OkT1hiIyt1mrQMRYV-30" value="&lt;span style=&quot;color: rgb(0, 0, 0); font-family: Helvetica; font-size: 40px; font-style: normal; font-variant-ligatures: normal; font-variant-caps: normal; letter-spacing: normal; orphans: 2; text-align: left; text-indent: 0px; text-transform: none; widows: 2; word-spacing: 0px; -webkit-text-stroke-width: 0px; white-space: normal; background-color: rgb(251, 251, 251); text-decoration-thickness: initial; text-decoration-style: initial; text-decoration-color: initial; float: none; display: inline !important;&quot;&gt;@/data/chat/namespaces&lt;/span&gt;" style="text;whiteSpace=wrap;html=1;fontStyle=1;fontSize=40;verticalAlign=middle;" parent="_w_OkT1hiIyt1mrQMRYV-33" vertex="1">
          <mxGeometry x="80" width="530" height="75" as="geometry" />
        </mxCell>
        <mxCell id="_w_OkT1hiIyt1mrQMRYV-29" value="&lt;div style=&quot;line-height: 19px;&quot;&gt;&lt;div style=&quot;&quot;&gt;&lt;b style=&quot;background-color: rgb(0, 255, 0);&quot;&gt;import { Server } from &quot;socket.io&quot;;&lt;/b&gt;&lt;/div&gt;&lt;div style=&quot;&quot;&gt;import &lt;b&gt;&lt;font color=&quot;#ff8000&quot;&gt;namespaces &lt;/font&gt;&lt;/b&gt;from &quot;@/data/chat/namespaces&quot;;&lt;/div&gt;&lt;br&gt;&lt;/div&gt;&lt;div style=&quot;line-height: 19px; font-size: 20px;&quot;&gt;&lt;div style=&quot;line-height: 19px;&quot;&gt;&lt;div style=&quot;&quot;&gt;export function initializeSocketServer(&lt;font color=&quot;#ff0080&quot;&gt;&lt;b&gt;server&lt;/b&gt;&lt;/font&gt;) {&lt;/div&gt;&lt;div style=&quot;&quot;&gt;&amp;nbsp;&lt;/div&gt;&lt;div style=&quot;&quot;&gt;&lt;br&gt;&lt;/div&gt;&lt;div style=&quot;&quot;&gt;&lt;br&gt;&lt;/div&gt;&lt;/div&gt;&lt;/div&gt;&lt;blockquote style=&quot;margin: 0 0 0 40px; border: none; padding: 0px;&quot;&gt;&lt;div style=&quot;line-height: 19px; font-size: 20px;&quot;&gt;&lt;div style=&quot;line-height: 19px;&quot;&gt;&lt;div style=&quot;&quot;&gt;&lt;span style=&quot;background-color: rgb(0, 255, 0);&quot;&gt;const io = new Server(&lt;/span&gt;&lt;b style=&quot;&quot;&gt;&lt;font style=&quot;&quot; color=&quot;#ff0080&quot;&gt;server&lt;/font&gt;&lt;/b&gt;&lt;span style=&quot;background-color: rgb(0, 255, 0);&quot;&gt;);&lt;/span&gt;&lt;/div&gt;&lt;/div&gt;&lt;/div&gt;&lt;div style=&quot;line-height: 19px; font-size: 20px;&quot;&gt;&lt;div style=&quot;line-height: 19px;&quot;&gt;&lt;div style=&quot;&quot;&gt;&lt;br&gt;&lt;/div&gt;&lt;/div&gt;&lt;/div&gt;&lt;div style=&quot;line-height: 19px;&quot;&gt;&lt;div style=&quot;line-height: 19px;&quot;&gt;&lt;div style=&quot;&quot;&gt;&lt;b style=&quot;font-size: 20px;&quot;&gt;&lt;font color=&quot;#ff0080&quot;&gt;server&lt;/font&gt;&lt;/b&gt;&lt;font style=&quot;font-size: 20px;&quot; color=&quot;#ff0080&quot;&gt;&lt;b&gt;.io&lt;/b&gt;&lt;/font&gt;&lt;font style=&quot;font-size: 20px;&quot;&gt;&lt;b&gt; = &lt;/b&gt;&lt;/font&gt;&lt;span style=&quot;font-size: 20px; background-color: rgb(0, 255, 0);&quot;&gt;io;&lt;/span&gt;&lt;span style=&quot;font-size: 20px;&quot;&gt; // Assign the io instance to server: res.socket.server.io&lt;/span&gt;&lt;/div&gt;&lt;/div&gt;&lt;/div&gt;&lt;/blockquote&gt;" style="text;html=1;align=left;verticalAlign=top;whiteSpace=wrap;rounded=0;labelPosition=center;verticalLabelPosition=middle;spacingTop=0;spacing=10;strokeColor=default;" parent="1" vertex="1">
          <mxGeometry x="-159" y="137" width="670" height="241" as="geometry" />
        </mxCell>
        <mxCell id="_w_OkT1hiIyt1mrQMRYV-32" value="" style="group" parent="1" vertex="1" connectable="0">
          <mxGeometry x="944" y="1128" width="700" height="920" as="geometry" />
        </mxCell>
        <mxCell id="_w_OkT1hiIyt1mrQMRYV-25" value="" style="rounded=0;whiteSpace=wrap;html=1;" parent="_w_OkT1hiIyt1mrQMRYV-32" vertex="1">
          <mxGeometry width="700" height="920" as="geometry" />
        </mxCell>
        <mxCell id="_w_OkT1hiIyt1mrQMRYV-17" value="" style="group;labelBackgroundColor=default;fontStyle=1;fontColor=default;" parent="_w_OkT1hiIyt1mrQMRYV-32" vertex="1" connectable="0">
          <mxGeometry x="30" y="455" width="629" height="440" as="geometry" />
        </mxCell>
        <mxCell id="_w_OkT1hiIyt1mrQMRYV-13" value="&lt;div style=&quot;line-height: 19px; white-space: pre; font-weight: normal; font-size: 14px; font-family: Consolas, &amp;quot;Courier New&amp;quot;, monospace;&quot;&gt;&lt;div style=&quot;color: rgb(204, 204, 204);&quot;&gt;&lt;span style=&quot;&quot;&gt;&lt;span style=&quot;color: rgb(86, 156, 214);&quot;&gt;class&lt;/span&gt;&lt;span style=&quot;color: rgb(204, 204, 204);&quot;&gt; &lt;/span&gt;&lt;span style=&quot;color: rgb(78, 201, 176);&quot;&gt;Room&lt;/span&gt;&lt;span style=&quot;color: rgb(204, 204, 204);&quot;&gt; {&lt;/span&gt;&lt;/span&gt;&lt;/div&gt;&lt;div style=&quot;color: rgb(204, 204, 204);&quot;&gt;&lt;span style=&quot;&quot;&gt;&lt;span style=&quot;color: rgb(204, 204, 204);&quot;&gt;&amp;nbsp; &lt;/span&gt;&lt;span style=&quot;color: rgb(86, 156, 214);&quot;&gt;constructor&lt;/span&gt;&lt;span style=&quot;color: rgb(204, 204, 204);&quot;&gt;(&lt;/span&gt;&lt;span style=&quot;color: rgb(156, 220, 254);&quot;&gt;roomId&lt;/span&gt;&lt;span style=&quot;color: rgb(204, 204, 204);&quot;&gt;, &lt;/span&gt;&lt;span style=&quot;color: rgb(156, 220, 254);&quot;&gt;roomTitle&lt;/span&gt;&lt;span style=&quot;color: rgb(204, 204, 204);&quot;&gt;, &lt;/span&gt;&lt;span style=&quot;color: rgb(156, 220, 254);&quot;&gt;namespaceId&lt;/span&gt;&lt;span style=&quot;color: rgb(204, 204, 204);&quot;&gt;, &lt;/span&gt;&lt;span style=&quot;color: rgb(156, 220, 254);&quot;&gt;privateRoom&lt;/span&gt;&lt;span style=&quot;color: rgb(204, 204, 204);&quot;&gt; &lt;/span&gt;&lt;span style=&quot;color: rgb(212, 212, 212);&quot;&gt;=&lt;/span&gt;&lt;span style=&quot;color: rgb(204, 204, 204);&quot;&gt; &lt;/span&gt;&lt;span style=&quot;color: rgb(86, 156, 214);&quot;&gt;false&lt;/span&gt;&lt;span style=&quot;color: rgb(204, 204, 204);&quot;&gt;) {&lt;/span&gt;&lt;/span&gt;&lt;/div&gt;&lt;div style=&quot;color: rgb(204, 204, 204);&quot;&gt;&lt;span style=&quot;&quot;&gt;&lt;span style=&quot;color: rgb(204, 204, 204);&quot;&gt;&amp;nbsp; &amp;nbsp; &lt;/span&gt;&lt;span style=&quot;color: rgb(86, 156, 214);&quot;&gt;this&lt;/span&gt;&lt;span style=&quot;color: rgb(204, 204, 204);&quot;&gt;.&lt;/span&gt;&lt;span style=&quot;color: rgb(156, 220, 254);&quot;&gt;roomId&lt;/span&gt;&lt;span style=&quot;color: rgb(204, 204, 204);&quot;&gt; &lt;/span&gt;&lt;span style=&quot;color: rgb(212, 212, 212);&quot;&gt;=&lt;/span&gt;&lt;span style=&quot;color: rgb(204, 204, 204);&quot;&gt; &lt;/span&gt;&lt;span style=&quot;color: rgb(156, 220, 254);&quot;&gt;roomId&lt;/span&gt;&lt;span style=&quot;color: rgb(204, 204, 204);&quot;&gt;;&lt;/span&gt;&lt;/span&gt;&lt;/div&gt;&lt;div style=&quot;color: rgb(204, 204, 204);&quot;&gt;&lt;span style=&quot;&quot;&gt;&lt;span style=&quot;color: rgb(204, 204, 204);&quot;&gt;&amp;nbsp; &amp;nbsp; &lt;/span&gt;&lt;span style=&quot;color: rgb(86, 156, 214);&quot;&gt;this&lt;/span&gt;&lt;span style=&quot;color: rgb(204, 204, 204);&quot;&gt;.&lt;/span&gt;&lt;span style=&quot;color: rgb(156, 220, 254);&quot;&gt;roomTitle&lt;/span&gt;&lt;span style=&quot;color: rgb(204, 204, 204);&quot;&gt; &lt;/span&gt;&lt;span style=&quot;color: rgb(212, 212, 212);&quot;&gt;=&lt;/span&gt;&lt;span style=&quot;color: rgb(204, 204, 204);&quot;&gt; &lt;/span&gt;&lt;span style=&quot;color: rgb(156, 220, 254);&quot;&gt;roomTitle&lt;/span&gt;&lt;span style=&quot;color: rgb(204, 204, 204);&quot;&gt;;&lt;/span&gt;&lt;/span&gt;&lt;/div&gt;&lt;div style=&quot;&quot;&gt;&lt;span style=&quot;color: rgb(204, 204, 204);&quot;&gt;&amp;nbsp; &amp;nbsp; &lt;/span&gt;&lt;span style=&quot;color: rgb(86, 156, 214);&quot;&gt;this&lt;/span&gt;&lt;span style=&quot;color: rgb(204, 204, 204);&quot;&gt;.&lt;/span&gt;&lt;span style=&quot;color: rgb(156, 220, 254);&quot;&gt;namespaceId&lt;/span&gt;&lt;span style=&quot;color: rgb(204, 204, 204);&quot;&gt; &lt;/span&gt;&lt;span style=&quot;color: rgb(212, 212, 212);&quot;&gt;=&lt;/span&gt;&lt;span style=&quot;color: rgb(204, 204, 204);&quot;&gt; &lt;/span&gt;&lt;span style=&quot;background-color: rgb(0, 255, 255);&quot;&gt;&lt;font color=&quot;#1f1f1f&quot;&gt;namespaceId&lt;/font&gt;&lt;/span&gt;&lt;span style=&quot;color: rgb(204, 204, 204);&quot;&gt;;&lt;/span&gt;&lt;/div&gt;&lt;div style=&quot;color: rgb(204, 204, 204);&quot;&gt;&lt;span style=&quot;&quot;&gt;&lt;span style=&quot;color: rgb(204, 204, 204);&quot;&gt;&amp;nbsp; &amp;nbsp; &lt;/span&gt;&lt;span style=&quot;color: rgb(86, 156, 214);&quot;&gt;this&lt;/span&gt;&lt;span style=&quot;color: rgb(204, 204, 204);&quot;&gt;.&lt;/span&gt;&lt;span style=&quot;color: rgb(156, 220, 254);&quot;&gt;privateRoom&lt;/span&gt;&lt;span style=&quot;color: rgb(204, 204, 204);&quot;&gt; &lt;/span&gt;&lt;span style=&quot;color: rgb(212, 212, 212);&quot;&gt;=&lt;/span&gt;&lt;span style=&quot;color: rgb(204, 204, 204);&quot;&gt; &lt;/span&gt;&lt;span style=&quot;color: rgb(156, 220, 254);&quot;&gt;privateRoom&lt;/span&gt;&lt;span style=&quot;color: rgb(204, 204, 204);&quot;&gt;;&lt;/span&gt;&lt;/span&gt;&lt;/div&gt;&lt;div style=&quot;color: rgb(204, 204, 204);&quot;&gt;&lt;span style=&quot;&quot;&gt;&lt;span style=&quot;color: rgb(204, 204, 204);&quot;&gt;&amp;nbsp; &amp;nbsp; &lt;/span&gt;&lt;span style=&quot;color: rgb(86, 156, 214);&quot;&gt;this&lt;/span&gt;&lt;span style=&quot;color: rgb(204, 204, 204);&quot;&gt;.&lt;/span&gt;&lt;span style=&quot;color: rgb(156, 220, 254);&quot;&gt;history&lt;/span&gt;&lt;span style=&quot;color: rgb(204, 204, 204);&quot;&gt; &lt;/span&gt;&lt;span style=&quot;color: rgb(212, 212, 212);&quot;&gt;=&lt;/span&gt;&lt;span style=&quot;color: rgb(204, 204, 204);&quot;&gt; [];&lt;/span&gt;&lt;/span&gt;&lt;/div&gt;&lt;div style=&quot;color: rgb(204, 204, 204);&quot;&gt;&lt;span style=&quot;color: rgb(204, 204, 204);&quot;&gt;&amp;nbsp; }&lt;/span&gt;&lt;/div&gt;&lt;span style=&quot;color: rgb(204, 204, 204);&quot;&gt;&lt;br&gt;&lt;/span&gt;&lt;div style=&quot;color: rgb(204, 204, 204);&quot;&gt;&lt;span style=&quot;&quot;&gt;&lt;span style=&quot;color: rgb(204, 204, 204);&quot;&gt;&amp;nbsp; &lt;/span&gt;&lt;span style=&quot;color: rgb(220, 220, 170);&quot;&gt;addMessage&lt;/span&gt;&lt;span style=&quot;color: rgb(204, 204, 204);&quot;&gt;(&lt;/span&gt;&lt;span style=&quot;color: rgb(156, 220, 254);&quot;&gt;message&lt;/span&gt;&lt;span style=&quot;color: rgb(204, 204, 204);&quot;&gt;) {&lt;/span&gt;&lt;/span&gt;&lt;/div&gt;&lt;div style=&quot;color: rgb(204, 204, 204);&quot;&gt;&lt;span style=&quot;&quot;&gt;&lt;span style=&quot;color: rgb(204, 204, 204);&quot;&gt;&amp;nbsp; &amp;nbsp; &lt;/span&gt;&lt;span style=&quot;color: rgb(86, 156, 214);&quot;&gt;this&lt;/span&gt;&lt;span style=&quot;color: rgb(204, 204, 204);&quot;&gt;.&lt;/span&gt;&lt;span style=&quot;color: rgb(156, 220, 254);&quot;&gt;history&lt;/span&gt;&lt;span style=&quot;color: rgb(204, 204, 204);&quot;&gt;.&lt;/span&gt;&lt;span style=&quot;color: rgb(220, 220, 170);&quot;&gt;push&lt;/span&gt;&lt;span style=&quot;color: rgb(204, 204, 204);&quot;&gt;(&lt;/span&gt;&lt;span style=&quot;color: rgb(156, 220, 254);&quot;&gt;message&lt;/span&gt;&lt;span style=&quot;color: rgb(204, 204, 204);&quot;&gt;);&lt;/span&gt;&lt;/span&gt;&lt;/div&gt;&lt;div style=&quot;color: rgb(204, 204, 204);&quot;&gt;&lt;span style=&quot;color: rgb(204, 204, 204);&quot;&gt;&amp;nbsp; }&lt;/span&gt;&lt;/div&gt;&lt;span style=&quot;color: rgb(204, 204, 204);&quot;&gt;&lt;br&gt;&lt;/span&gt;&lt;div style=&quot;color: rgb(204, 204, 204);&quot;&gt;&lt;span style=&quot;&quot;&gt;&lt;span style=&quot;color: rgb(204, 204, 204);&quot;&gt;&amp;nbsp; &lt;/span&gt;&lt;span style=&quot;color: rgb(220, 220, 170);&quot;&gt;clearHistory&lt;/span&gt;&lt;span style=&quot;color: rgb(204, 204, 204);&quot;&gt;() {&lt;/span&gt;&lt;/span&gt;&lt;/div&gt;&lt;div style=&quot;color: rgb(204, 204, 204);&quot;&gt;&lt;span style=&quot;&quot;&gt;&lt;span style=&quot;color: rgb(204, 204, 204);&quot;&gt;&amp;nbsp; &amp;nbsp; &lt;/span&gt;&lt;span style=&quot;color: rgb(86, 156, 214);&quot;&gt;this&lt;/span&gt;&lt;span style=&quot;color: rgb(204, 204, 204);&quot;&gt;.&lt;/span&gt;&lt;span style=&quot;color: rgb(156, 220, 254);&quot;&gt;history&lt;/span&gt;&lt;span style=&quot;color: rgb(204, 204, 204);&quot;&gt; &lt;/span&gt;&lt;span style=&quot;color: rgb(212, 212, 212);&quot;&gt;=&lt;/span&gt;&lt;span style=&quot;color: rgb(204, 204, 204);&quot;&gt; [];&lt;/span&gt;&lt;/span&gt;&lt;/div&gt;&lt;div style=&quot;color: rgb(204, 204, 204);&quot;&gt;&lt;span style=&quot;color: rgb(204, 204, 204);&quot;&gt;&amp;nbsp; }&lt;/span&gt;&lt;/div&gt;&lt;div style=&quot;color: rgb(204, 204, 204);&quot;&gt;&lt;span style=&quot;color: rgb(204, 204, 204);&quot;&gt;}&lt;/span&gt;&lt;/div&gt;&lt;span style=&quot;color: rgb(204, 204, 204);&quot;&gt;&lt;br&gt;&lt;/span&gt;&lt;div style=&quot;color: rgb(204, 204, 204);&quot;&gt;&lt;span style=&quot;&quot;&gt;&lt;span style=&quot;color: rgb(197, 134, 192);&quot;&gt;export&lt;/span&gt;&lt;span style=&quot;color: rgb(204, 204, 204);&quot;&gt; &lt;/span&gt;&lt;span style=&quot;color: rgb(197, 134, 192);&quot;&gt;default&lt;/span&gt;&lt;span style=&quot;color: rgb(204, 204, 204);&quot;&gt; &lt;/span&gt;&lt;span style=&quot;color: rgb(78, 201, 176);&quot;&gt;Room&lt;/span&gt;&lt;span style=&quot;color: rgb(204, 204, 204);&quot;&gt;;&lt;/span&gt;&lt;/span&gt;&lt;/div&gt;&lt;font color=&quot;#cccccc&quot;&gt;&lt;br&gt;&lt;/font&gt;&lt;/div&gt;" style="text;whiteSpace=wrap;html=1;labelBackgroundColor=#1F1F1F;" parent="_w_OkT1hiIyt1mrQMRYV-17" vertex="1">
          <mxGeometry y="40" width="629" height="400" as="geometry" />
        </mxCell>
        <mxCell id="_w_OkT1hiIyt1mrQMRYV-15" value="Room" style="text;html=1;align=left;verticalAlign=middle;whiteSpace=wrap;rounded=0;fontSize=20;fontStyle=1" parent="_w_OkT1hiIyt1mrQMRYV-17" vertex="1">
          <mxGeometry width="240" height="50" as="geometry" />
        </mxCell>
        <mxCell id="_w_OkT1hiIyt1mrQMRYV-18" value="" style="group" parent="_w_OkT1hiIyt1mrQMRYV-32" vertex="1" connectable="0">
          <mxGeometry x="130" y="15" width="360" height="370" as="geometry" />
        </mxCell>
        <mxCell id="_w_OkT1hiIyt1mrQMRYV-12" value="&lt;div style=&quot;color: #cccccc;background-color: #1f1f1f;font-family: Consolas, &#39;Courier New&#39;, monospace;font-weight: normal;font-size: 14px;line-height: 19px;white-space: pre;&quot;&gt;&lt;div&gt;&lt;span style=&quot;color: #569cd6;&quot;&gt;class&lt;/span&gt;&lt;span style=&quot;color: #cccccc;&quot;&gt; &lt;/span&gt;&lt;span style=&quot;color: #4ec9b0;&quot;&gt;Namespace&lt;/span&gt;&lt;span style=&quot;color: #cccccc;&quot;&gt; {&lt;/span&gt;&lt;/div&gt;&lt;div&gt;&lt;span style=&quot;color: #cccccc;&quot;&gt;&amp;nbsp; &lt;/span&gt;&lt;span style=&quot;color: #569cd6;&quot;&gt;constructor&lt;/span&gt;&lt;span style=&quot;color: #cccccc;&quot;&gt;(&lt;/span&gt;&lt;span style=&quot;color: #9cdcfe;&quot;&gt;id&lt;/span&gt;&lt;span style=&quot;color: #cccccc;&quot;&gt;, &lt;/span&gt;&lt;span style=&quot;color: #9cdcfe;&quot;&gt;name&lt;/span&gt;&lt;span style=&quot;color: #cccccc;&quot;&gt;, &lt;/span&gt;&lt;span style=&quot;color: #9cdcfe;&quot;&gt;image&lt;/span&gt;&lt;span style=&quot;color: #cccccc;&quot;&gt;, &lt;/span&gt;&lt;span style=&quot;color: #9cdcfe;&quot;&gt;endpoint&lt;/span&gt;&lt;span style=&quot;color: #cccccc;&quot;&gt;) {&lt;/span&gt;&lt;/div&gt;&lt;div&gt;&lt;span style=&quot;color: #cccccc;&quot;&gt;&amp;nbsp; &amp;nbsp; &lt;/span&gt;&lt;span style=&quot;color: #569cd6;&quot;&gt;this&lt;/span&gt;&lt;span style=&quot;color: #cccccc;&quot;&gt;.&lt;/span&gt;&lt;span style=&quot;color: #9cdcfe;&quot;&gt;id&lt;/span&gt;&lt;span style=&quot;color: #cccccc;&quot;&gt; &lt;/span&gt;&lt;span style=&quot;color: #d4d4d4;&quot;&gt;=&lt;/span&gt;&lt;span style=&quot;color: #cccccc;&quot;&gt; &lt;/span&gt;&lt;span style=&quot;color: #9cdcfe;&quot;&gt;id&lt;/span&gt;&lt;span style=&quot;color: #cccccc;&quot;&gt;;&lt;/span&gt;&lt;/div&gt;&lt;div&gt;&lt;span style=&quot;color: #cccccc;&quot;&gt;&amp;nbsp; &amp;nbsp; &lt;/span&gt;&lt;span style=&quot;color: #569cd6;&quot;&gt;this&lt;/span&gt;&lt;span style=&quot;color: #cccccc;&quot;&gt;.&lt;/span&gt;&lt;span style=&quot;color: #9cdcfe;&quot;&gt;name&lt;/span&gt;&lt;span style=&quot;color: #cccccc;&quot;&gt; &lt;/span&gt;&lt;span style=&quot;color: #d4d4d4;&quot;&gt;=&lt;/span&gt;&lt;span style=&quot;color: #cccccc;&quot;&gt; &lt;/span&gt;&lt;span style=&quot;color: #9cdcfe;&quot;&gt;name&lt;/span&gt;&lt;span style=&quot;color: #cccccc;&quot;&gt;;&lt;/span&gt;&lt;/div&gt;&lt;div&gt;&lt;span style=&quot;color: #cccccc;&quot;&gt;&amp;nbsp; &amp;nbsp; &lt;/span&gt;&lt;span style=&quot;color: #569cd6;&quot;&gt;this&lt;/span&gt;&lt;span style=&quot;color: #cccccc;&quot;&gt;.&lt;/span&gt;&lt;span style=&quot;color: #9cdcfe;&quot;&gt;image&lt;/span&gt;&lt;span style=&quot;color: #cccccc;&quot;&gt; &lt;/span&gt;&lt;span style=&quot;color: #d4d4d4;&quot;&gt;=&lt;/span&gt;&lt;span style=&quot;color: #cccccc;&quot;&gt; &lt;/span&gt;&lt;span style=&quot;color: #9cdcfe;&quot;&gt;image&lt;/span&gt;&lt;span style=&quot;color: #cccccc;&quot;&gt;;&lt;/span&gt;&lt;/div&gt;&lt;div&gt;&lt;span style=&quot;color: #cccccc;&quot;&gt;&amp;nbsp; &amp;nbsp; &lt;/span&gt;&lt;span style=&quot;color: #569cd6;&quot;&gt;this&lt;/span&gt;&lt;span style=&quot;color: #cccccc;&quot;&gt;.&lt;/span&gt;&lt;span style=&quot;color: #9cdcfe;&quot;&gt;endpoint&lt;/span&gt;&lt;span style=&quot;color: #cccccc;&quot;&gt; &lt;/span&gt;&lt;span style=&quot;color: #d4d4d4;&quot;&gt;=&lt;/span&gt;&lt;span style=&quot;color: #cccccc;&quot;&gt; &lt;/span&gt;&lt;span style=&quot;color: #9cdcfe;&quot;&gt;endpoint&lt;/span&gt;&lt;span style=&quot;color: #cccccc;&quot;&gt;;&lt;/span&gt;&lt;/div&gt;&lt;div&gt;&lt;span style=&quot;color: #cccccc;&quot;&gt;&amp;nbsp; &amp;nbsp; &lt;/span&gt;&lt;span style=&quot;color: #569cd6;&quot;&gt;this&lt;/span&gt;&lt;span style=&quot;color: #cccccc;&quot;&gt;.&lt;/span&gt;&lt;span style=&quot;color: #9cdcfe;&quot;&gt;rooms&lt;/span&gt;&lt;span style=&quot;color: #cccccc;&quot;&gt; &lt;/span&gt;&lt;span style=&quot;color: #d4d4d4;&quot;&gt;=&lt;/span&gt;&lt;span style=&quot;color: #cccccc;&quot;&gt; [];&lt;/span&gt;&lt;/div&gt;&lt;div&gt;&lt;span style=&quot;color: #cccccc;&quot;&gt;&amp;nbsp; }&lt;/span&gt;&lt;/div&gt;&lt;br&gt;&lt;div&gt;&lt;span style=&quot;color: #cccccc;&quot;&gt;&amp;nbsp; &lt;/span&gt;&lt;span style=&quot;color: #dcdcaa;&quot;&gt;addRoom&lt;/span&gt;&lt;span style=&quot;color: #cccccc;&quot;&gt;(&lt;/span&gt;&lt;span style=&quot;color: #9cdcfe;&quot;&gt;roomObj&lt;/span&gt;&lt;span style=&quot;color: #cccccc;&quot;&gt;) {&lt;/span&gt;&lt;/div&gt;&lt;div&gt;&lt;span style=&quot;color: #cccccc;&quot;&gt;&amp;nbsp; &amp;nbsp; &lt;/span&gt;&lt;span style=&quot;color: #569cd6;&quot;&gt;this&lt;/span&gt;&lt;span style=&quot;color: #cccccc;&quot;&gt;.&lt;/span&gt;&lt;span style=&quot;color: #9cdcfe;&quot;&gt;rooms&lt;/span&gt;&lt;span style=&quot;color: #cccccc;&quot;&gt;.&lt;/span&gt;&lt;span style=&quot;color: #dcdcaa;&quot;&gt;push&lt;/span&gt;&lt;span style=&quot;color: #cccccc;&quot;&gt;(&lt;/span&gt;&lt;span style=&quot;color: #9cdcfe;&quot;&gt;roomObj&lt;/span&gt;&lt;span style=&quot;color: #cccccc;&quot;&gt;);&lt;/span&gt;&lt;/div&gt;&lt;div&gt;&lt;span style=&quot;color: #cccccc;&quot;&gt;&amp;nbsp; }&lt;/span&gt;&lt;/div&gt;&lt;div&gt;&lt;span style=&quot;color: #cccccc;&quot;&gt;}&lt;/span&gt;&lt;/div&gt;&lt;br&gt;&lt;div&gt;&lt;span style=&quot;color: #c586c0;&quot;&gt;export&lt;/span&gt;&lt;span style=&quot;color: #cccccc;&quot;&gt; &lt;/span&gt;&lt;span style=&quot;color: #c586c0;&quot;&gt;default&lt;/span&gt;&lt;span style=&quot;color: #cccccc;&quot;&gt; &lt;/span&gt;&lt;span style=&quot;color: #4ec9b0;&quot;&gt;Namespace&lt;/span&gt;&lt;span style=&quot;color: #cccccc;&quot;&gt;;&lt;/span&gt;&lt;/div&gt;&lt;br&gt;&lt;/div&gt;" style="text;whiteSpace=wrap;html=1;" parent="_w_OkT1hiIyt1mrQMRYV-18" vertex="1">
          <mxGeometry y="40" width="360" height="330" as="geometry" />
        </mxCell>
        <mxCell id="_w_OkT1hiIyt1mrQMRYV-14" value="Namespace" style="text;html=1;align=left;verticalAlign=middle;whiteSpace=wrap;rounded=0;fontSize=20;fontStyle=1" parent="_w_OkT1hiIyt1mrQMRYV-18" vertex="1">
          <mxGeometry width="240" height="50" as="geometry" />
        </mxCell>
        <mxCell id="_w_OkT1hiIyt1mrQMRYV-19" style="edgeStyle=orthogonalEdgeStyle;rounded=0;orthogonalLoop=1;jettySize=auto;html=1;" parent="_w_OkT1hiIyt1mrQMRYV-32" source="_w_OkT1hiIyt1mrQMRYV-13" target="_w_OkT1hiIyt1mrQMRYV-12" edge="1">
          <mxGeometry relative="1" as="geometry">
            <Array as="points">
              <mxPoint x="344" y="424" />
              <mxPoint x="344" y="424" />
            </Array>
          </mxGeometry>
        </mxCell>
        <mxCell id="_w_OkT1hiIyt1mrQMRYV-38" value="" style="group;spacingLeft=10;" parent="1" vertex="1" connectable="0">
          <mxGeometry x="-159" y="377" width="670" height="461" as="geometry" />
        </mxCell>
        <mxCell id="_w_OkT1hiIyt1mrQMRYV-4" value="&lt;blockquote style=&quot;margin: 0 0 0 40px; border: none; padding: 0px;&quot;&gt;&lt;font style=&quot;font-size: 20px;&quot;&gt;&lt;b style=&quot;&quot;&gt;&lt;font style=&quot;font-size: 20px; background-color: rgb(0, 255, 0);&quot;&gt;io&lt;/font&gt;&lt;font style=&quot;font-size: 20px;&quot;&gt;.&lt;/font&gt;on(&quot;connection&quot;, (&amp;nbsp; &amp;nbsp; &lt;font style=&quot;font-size: 20px;&quot; color=&quot;#ff00ff&quot;&gt;socket&amp;nbsp; &amp;nbsp; &lt;/font&gt;)=&amp;gt;{&lt;/b&gt;&lt;/font&gt;&lt;/blockquote&gt;&lt;br&gt;&lt;br&gt;&lt;blockquote style=&quot;margin: 0px 0px 0px 40px; border: none; padding: 0px; font-size: 20px;&quot;&gt;&lt;div&gt;&lt;div&gt;&lt;div style=&quot;line-height: 19px;&quot;&gt;&lt;div style=&quot;&quot;&gt;&lt;br&gt;&lt;/div&gt;&lt;/div&gt;&lt;/div&gt;&lt;/div&gt;&lt;div&gt;&lt;div&gt;&lt;div style=&quot;line-height: 19px;&quot;&gt;&lt;div style=&quot;&quot;&gt;&lt;br&gt;&lt;/div&gt;&lt;/div&gt;&lt;/div&gt;&lt;/div&gt;&lt;div&gt;&lt;div&gt;&lt;div style=&quot;line-height: 19px;&quot;&gt;&lt;div style=&quot;&quot;&gt;&lt;br&gt;&lt;/div&gt;&lt;/div&gt;&lt;/div&gt;&lt;/div&gt;&lt;div&gt;&lt;div&gt;&lt;div style=&quot;line-height: 19px;&quot;&gt;&lt;div style=&quot;&quot;&gt;&lt;br&gt;&lt;/div&gt;&lt;/div&gt;&lt;/div&gt;&lt;/div&gt;&lt;div&gt;&lt;div&gt;&lt;div style=&quot;line-height: 19px;&quot;&gt;&lt;div style=&quot;&quot;&gt;&lt;br&gt;&lt;/div&gt;&lt;/div&gt;&lt;/div&gt;&lt;/div&gt;&lt;div&gt;&lt;div&gt;&lt;div style=&quot;line-height: 19px;&quot;&gt;&lt;div style=&quot;&quot;&gt;&lt;br&gt;&lt;/div&gt;&lt;/div&gt;&lt;/div&gt;&lt;/div&gt;&lt;div&gt;&lt;div&gt;&lt;div style=&quot;line-height: 19px;&quot;&gt;&lt;div style=&quot;&quot;&gt;&lt;br&gt;&lt;/div&gt;&lt;/div&gt;&lt;/div&gt;&lt;/div&gt;&lt;div&gt;&lt;div&gt;&lt;div style=&quot;line-height: 19px;&quot;&gt;&lt;div style=&quot;&quot;&gt;&lt;br&gt;&lt;/div&gt;&lt;/div&gt;&lt;/div&gt;&lt;/div&gt;&lt;div&gt;&lt;div&gt;&lt;div style=&quot;line-height: 19px;&quot;&gt;&lt;div style=&quot;&quot;&gt;&lt;br&gt;&lt;/div&gt;&lt;/div&gt;&lt;/div&gt;&lt;/div&gt;&lt;div&gt;&lt;div&gt;&lt;div style=&quot;line-height: 19px;&quot;&gt;&lt;div style=&quot;&quot;&gt;&lt;br&gt;&lt;/div&gt;&lt;/div&gt;&lt;/div&gt;&lt;/div&gt;&lt;div&gt;&lt;div&gt;&lt;div style=&quot;line-height: 19px;&quot;&gt;&lt;div style=&quot;&quot;&gt;&lt;br&gt;&lt;/div&gt;&lt;/div&gt;&lt;/div&gt;&lt;/div&gt;&lt;div&gt;&lt;div&gt;&lt;div style=&quot;line-height: 19px;&quot;&gt;&lt;div style=&quot;&quot;&gt;&lt;br&gt;&lt;/div&gt;&lt;/div&gt;&lt;/div&gt;&lt;/div&gt;&lt;div&gt;&lt;div&gt;&lt;div style=&quot;line-height: 19px;&quot;&gt;&lt;div style=&quot;&quot;&gt;&lt;font style=&quot;font-size: 20px;&quot;&gt;&lt;br&gt;&lt;/font&gt;&lt;/div&gt;&lt;/div&gt;&lt;/div&gt;&lt;/div&gt;&lt;div&gt;&lt;div&gt;&lt;div style=&quot;line-height: 19px;&quot;&gt;&lt;div style=&quot;&quot;&gt;&lt;font style=&quot;font-size: 20px;&quot;&gt;&lt;br&gt;&lt;/font&gt;&lt;/div&gt;&lt;/div&gt;&lt;/div&gt;&lt;/div&gt;&lt;div&gt;&lt;div&gt;&lt;div style=&quot;line-height: 19px;&quot;&gt;&lt;div style=&quot;&quot;&gt;&lt;font style=&quot;font-size: 20px;&quot;&gt;&lt;br&gt;&lt;/font&gt;&lt;/div&gt;&lt;/div&gt;&lt;/div&gt;&lt;/div&gt;&lt;div&gt;&lt;div&gt;&lt;div style=&quot;line-height: 19px;&quot;&gt;&lt;div style=&quot;&quot;&gt;&lt;font style=&quot;font-size: 20px;&quot;&gt;&lt;br&gt;&lt;/font&gt;&lt;/div&gt;&lt;/div&gt;&lt;/div&gt;&lt;/div&gt;&lt;div&gt;&lt;div&gt;&lt;div style=&quot;line-height: 19px;&quot;&gt;&lt;div style=&quot;&quot;&gt;&lt;font style=&quot;font-size: 20px;&quot;&gt;&lt;br&gt;&lt;/font&gt;&lt;/div&gt;&lt;/div&gt;&lt;/div&gt;&lt;/div&gt;&lt;div&gt;&lt;div&gt;&lt;div style=&quot;line-height: 19px;&quot;&gt;&lt;div style=&quot;&quot;&gt;&lt;br&gt;&lt;/div&gt;&lt;/div&gt;&lt;/div&gt;&lt;/div&gt;&lt;/blockquote&gt;&lt;blockquote style=&quot;margin: 0 0 0 40px; border: none; padding: 0px;&quot;&gt;&lt;b style=&quot;font-size: 20px;&quot;&gt;&lt;font style=&quot;font-size: 20px;&quot;&gt;})&lt;/font&gt;&lt;/b&gt;&lt;/blockquote&gt;" style="text;html=1;align=left;verticalAlign=top;whiteSpace=wrap;rounded=0;labelPosition=center;verticalLabelPosition=middle;spacingTop=0;spacing=10;strokeColor=default;" parent="_w_OkT1hiIyt1mrQMRYV-38" vertex="1">
          <mxGeometry width="670" height="461" as="geometry" />
        </mxCell>
        <mxCell id="_w_OkT1hiIyt1mrQMRYV-6" value="&lt;div style=&quot;forced-color-adjust: none; color: rgb(0, 0, 0); font-family: Helvetica; font-size: 12px; font-style: normal; font-variant-ligatures: normal; font-variant-caps: normal; font-weight: 400; letter-spacing: normal; orphans: 2; text-indent: 0px; text-transform: none; widows: 2; word-spacing: 0px; -webkit-text-stroke-width: 0px; white-space: normal; background-color: rgb(251, 251, 251); text-decoration-thickness: initial; text-decoration-style: initial; text-decoration-color: initial;&quot;&gt;&lt;b style=&quot;forced-color-adjust: none;&quot;&gt;&lt;font color=&quot;#ff00ff&quot; style=&quot;forced-color-adjust: none;&quot;&gt;socket.&lt;/font&gt;emit(&quot;message&quot;,&lt;/b&gt;&lt;span&gt;&amp;nbsp;&lt;/span&gt;&quot;welcome to the server&quot;&lt;b style=&quot;forced-color-adjust: none;&quot;&gt;);&lt;/b&gt;&lt;/div&gt;" style="text;whiteSpace=wrap;html=1;strokeColor=default;align=left;verticalAlign=middle;spacing=10;" parent="_w_OkT1hiIyt1mrQMRYV-38" vertex="1">
          <mxGeometry x="75" y="48" width="560" height="50" as="geometry" />
        </mxCell>
        <UserObject label="&lt;b&gt;&lt;font color=&quot;#ff00ff&quot;&gt;socket&lt;/font&gt;.on(&quot;disconnect&quot;&lt;/b&gt;, ()=&amp;gt;{});" link="&lt;blockquote style=&quot;forced-color-adjust: none; color: rgb(0, 0, 0); font-family: Helvetica; font-size: 12px; font-style: normal; font-variant-ligatures: normal; font-variant-caps: normal; font-weight: 400; letter-spacing: normal; orphans: 2; text-align: left; text-indent: 0px; text-transform: none; widows: 2; word-spacing: 0px; -webkit-text-stroke-width: 0px; white-space: normal; background-color: rgb(251, 251, 251); text-decoration-thickness: initial; text-decoration-style: initial; text-decoration-color: initial; margin: 0px 0px 0px 40px; border: none; padding: 0px;&quot;&gt;&lt;div style=&quot;forced-color-adjust: none;&quot;&gt;&lt;div style=&quot;forced-color-adjust: none; line-height: 19px;&quot;&gt;&lt;div style=&quot;forced-color-adjust: none;&quot;&gt;&lt;font color=&quot;#ff00ff&quot; style=&quot;forced-color-adjust: none;&quot;&gt;&lt;b style=&quot;forced-color-adjust: none;&quot;&gt;socket&lt;/b&gt;&lt;/font&gt;&lt;b style=&quot;forced-color-adjust: none;&quot;&gt;.on(&quot;clientConnect&quot;&lt;/b&gt;, (data) =&amp;gt; {&lt;/div&gt;&lt;/div&gt;&lt;/div&gt;&lt;div style=&quot;forced-color-adjust: none;&quot;&gt;&lt;div style=&quot;forced-color-adjust: none; line-height: 19px;&quot;&gt;&lt;div style=&quot;forced-color-adjust: none;&quot;&gt;&amp;nbsp; &amp;nbsp; &amp;nbsp; console.log(socket.id, &quot;has connected&quot;);&lt;/div&gt;&lt;/div&gt;&lt;/div&gt;&lt;div style=&quot;forced-color-adjust: none;&quot;&gt;&lt;div style=&quot;forced-color-adjust: none; line-height: 19px;&quot;&gt;&lt;div style=&quot;forced-color-adjust: none;&quot;&gt;&amp;nbsp; &amp;nbsp; &amp;nbsp;&lt;span&gt;&amp;nbsp;&lt;/span&gt;&lt;font color=&quot;#ff00ff&quot; style=&quot;forced-color-adjust: none;&quot;&gt;&lt;b style=&quot;forced-color-adjust: none;&quot;&gt;socket&lt;/b&gt;&lt;/font&gt;&lt;b style=&quot;forced-color-adjust: none;&quot;&gt;.emit(&quot;nsList&quot;,&lt;span&gt;&amp;nbsp;&lt;/span&gt;&lt;/b&gt;namespaces); //send &amp;nbsp;namespaces to client&lt;/div&gt;&lt;/div&gt;&lt;/div&gt;&lt;div style=&quot;forced-color-adjust: none;&quot;&gt;&lt;div style=&quot;forced-color-adjust: none; line-height: 19px;&quot;&gt;&lt;div style=&quot;forced-color-adjust: none;&quot;&gt;}&lt;b style=&quot;forced-color-adjust: none;&quot;&gt;)&lt;/b&gt;;&lt;/div&gt;&lt;/div&gt;&lt;/div&gt;&lt;/blockquote&gt;&lt;div style=&quot;forced-color-adjust: none; color: rgb(0, 0, 0); font-family: Helvetica; font-size: 12px; font-style: normal; font-variant-ligatures: normal; font-variant-caps: normal; font-weight: 400; letter-spacing: normal; orphans: 2; text-align: left; text-indent: 0px; text-transform: none; widows: 2; word-spacing: 0px; -webkit-text-stroke-width: 0px; white-space: normal; background-color: rgb(251, 251, 251); text-decoration-thickness: initial; text-decoration-style: initial; text-decoration-color: initial;&quot;&gt;&lt;b style=&quot;forced-color-adjust: none;&quot;&gt;&lt;br style=&quot;forced-color-adjust: none;&quot;&gt;&lt;/b&gt;&lt;/div&gt;&lt;div style=&quot;forced-color-adjust: none; color: rgb(0, 0, 0); font-family: Helvetica; font-size: 12px; font-style: normal; font-variant-ligatures: normal; font-variant-caps: normal; font-weight: 400; letter-spacing: normal; orphans: 2; text-align: left; text-indent: 0px; text-transform: none; widows: 2; word-spacing: 0px; -webkit-text-stroke-width: 0px; white-space: normal; background-color: rgb(251, 251, 251); text-decoration-thickness: initial; text-decoration-style: initial; text-decoration-color: initial;&quot;&gt;&lt;blockquote style=&quot;forced-color-adjust: none; margin: 0px 0px 0px 40px; border: none; padding: 0px;&quot;&gt;&lt;div style=&quot;forced-color-adjust: none;&quot;&gt;&lt;div style=&quot;forced-color-adjust: none; line-height: 19px;&quot;&gt;&lt;font color=&quot;#ff00ff&quot; style=&quot;forced-color-adjust: none;&quot;&gt;&lt;b style=&quot;forced-color-adjust: none;&quot;&gt;socket&lt;/b&gt;&lt;/font&gt;&lt;b style=&quot;forced-color-adjust: none;&quot;&gt;.on(&quot;newMessageToServer&quot;&lt;/b&gt;, (data) =&amp;gt; {&lt;/div&gt;&lt;/div&gt;&lt;div style=&quot;forced-color-adjust: none;&quot;&gt;&lt;div style=&quot;forced-color-adjust: none; line-height: 19px;&quot;&gt;&amp;nbsp; &amp;nbsp; &amp;nbsp; console.log(socket.id, &quot;has connected&quot;);&lt;/div&gt;&lt;/div&gt;&lt;div style=&quot;forced-color-adjust: none;&quot;&gt;&lt;div style=&quot;forced-color-adjust: none; line-height: 19px;&quot;&gt;&amp;nbsp; &amp;nbsp; &amp;nbsp;&amp;nbsp;&lt;b style=&quot;forced-color-adjust: none;&quot;&gt;&lt;font color=&quot;#ffff00&quot; style=&quot;forced-color-adjust: none; background-color: rgb(0, 255, 0);&quot;&gt;io&lt;/font&gt;&lt;/b&gt;&lt;b style=&quot;forced-color-adjust: none;&quot;&gt;.emit(&quot;newMessageToClients&quot;,&amp;nbsp;&lt;/b&gt;{text:dataFromClient.text); //send &amp;nbsp;namespaces to client&lt;/div&gt;&lt;/div&gt;&lt;div style=&quot;forced-color-adjust: none;&quot;&gt;&lt;div style=&quot;forced-color-adjust: none; line-height: 19px;&quot;&gt;}&lt;b style=&quot;forced-color-adjust: none;&quot;&gt;)&lt;/b&gt;;&lt;/div&gt;&lt;/div&gt;&lt;div style=&quot;forced-color-adjust: none; line-height: 19px;&quot;&gt;&lt;br style=&quot;forced-color-adjust: none;&quot;&gt;&lt;/div&gt;&lt;div style=&quot;forced-color-adjust: none; line-height: 19px;&quot;&gt;&lt;font color=&quot;#ff00ff&quot; style=&quot;forced-color-adjust: none;&quot;&gt;&lt;b style=&quot;forced-color-adjust: none;&quot;&gt;socket&lt;/b&gt;&lt;/font&gt;&lt;b style=&quot;forced-color-adjust: none;&quot;&gt;.on(&quot;disconnect&quot;&lt;/b&gt;, ()=&amp;gt;{}&lt;b style=&quot;forced-color-adjust: none;&quot;&gt;);&lt;/b&gt;&lt;/div&gt;&lt;/blockquote&gt;&lt;/div&gt;" id="_w_OkT1hiIyt1mrQMRYV-7">
          <mxCell style="text;whiteSpace=wrap;html=1;strokeColor=default;spacing=10;verticalAlign=middle;align=left;" parent="_w_OkT1hiIyt1mrQMRYV-38" vertex="1">
            <mxGeometry x="75" y="328" width="560" height="70" as="geometry" />
          </mxCell>
        </UserObject>
        <mxCell id="_w_OkT1hiIyt1mrQMRYV-9" value="&lt;div style=&quot;&quot;&gt;&lt;div style=&quot;line-height: 19px;&quot;&gt;&lt;font color=&quot;#ff00ff&quot;&gt;&lt;b&gt;socket&lt;/b&gt;&lt;/font&gt;&lt;b&gt;.on(&quot;clientConnect&quot;&lt;/b&gt;, (data) =&amp;gt; {&lt;/div&gt;&lt;/div&gt;&lt;div style=&quot;&quot;&gt;&lt;div style=&quot;line-height: 19px;&quot;&gt;&amp;nbsp; &amp;nbsp; &amp;nbsp; console.log(socket.id, &quot;has connected&quot;);&lt;/div&gt;&lt;/div&gt;&lt;div style=&quot;&quot;&gt;&lt;div style=&quot;line-height: 19px;&quot;&gt;&amp;nbsp; &amp;nbsp; &amp;nbsp;&amp;nbsp;&lt;font color=&quot;#ff00ff&quot;&gt;&lt;b&gt;socket&lt;/b&gt;&lt;/font&gt;&lt;b&gt;.emit(&quot;nsList&quot;,&amp;nbsp;&lt;font color=&quot;#ff8000&quot;&gt;namespaces&lt;/font&gt;&lt;/b&gt;); //send &amp;nbsp;namespaces to client&lt;/div&gt;&lt;/div&gt;&lt;div style=&quot;&quot;&gt;&lt;div style=&quot;line-height: 19px;&quot;&gt;}&lt;b&gt;)&lt;/b&gt;;&lt;/div&gt;&lt;/div&gt;" style="rounded=0;whiteSpace=wrap;html=1;spacing=10;align=left;" parent="_w_OkT1hiIyt1mrQMRYV-38" vertex="1">
          <mxGeometry x="75" y="98" width="560" height="100" as="geometry" />
        </mxCell>
        <UserObject label="&lt;div style=&quot;forced-color-adjust: none; color: rgb(0, 0, 0); font-family: Helvetica; font-size: 12px; font-style: normal; font-variant-ligatures: normal; font-variant-caps: normal; font-weight: 400; letter-spacing: normal; orphans: 2; text-indent: 0px; text-transform: none; widows: 2; word-spacing: 0px; -webkit-text-stroke-width: 0px; white-space: normal; background-color: rgb(251, 251, 251); text-decoration-thickness: initial; text-decoration-style: initial; text-decoration-color: initial;&quot;&gt;&lt;div style=&quot;forced-color-adjust: none; line-height: 19px;&quot;&gt;&lt;font color=&quot;#ff00ff&quot; style=&quot;forced-color-adjust: none;&quot;&gt;&lt;b style=&quot;forced-color-adjust: none;&quot;&gt;socket&lt;/b&gt;&lt;/font&gt;&lt;b style=&quot;forced-color-adjust: none;&quot;&gt;.on(&quot;newMessageToServer&quot;&lt;/b&gt;, (data) =&amp;gt; {&lt;/div&gt;&lt;/div&gt;&lt;div style=&quot;forced-color-adjust: none; color: rgb(0, 0, 0); font-family: Helvetica; font-size: 12px; font-style: normal; font-variant-ligatures: normal; font-variant-caps: normal; font-weight: 400; letter-spacing: normal; orphans: 2; text-indent: 0px; text-transform: none; widows: 2; word-spacing: 0px; -webkit-text-stroke-width: 0px; white-space: normal; background-color: rgb(251, 251, 251); text-decoration-thickness: initial; text-decoration-style: initial; text-decoration-color: initial;&quot;&gt;&lt;div style=&quot;forced-color-adjust: none; line-height: 19px;&quot;&gt;&amp;nbsp; &amp;nbsp; &amp;nbsp; console.log(socket.id, &quot;has connected&quot;);&lt;/div&gt;&lt;/div&gt;&lt;div style=&quot;forced-color-adjust: none; font-family: Helvetica; font-size: 12px; font-style: normal; font-variant-ligatures: normal; font-variant-caps: normal; font-weight: 400; letter-spacing: normal; orphans: 2; text-indent: 0px; text-transform: none; widows: 2; word-spacing: 0px; -webkit-text-stroke-width: 0px; white-space: normal; background-color: rgb(251, 251, 251); text-decoration-thickness: initial; text-decoration-style: initial; text-decoration-color: initial;&quot;&gt;&lt;div style=&quot;forced-color-adjust: none; line-height: 19px;&quot;&gt;&amp;nbsp; &amp;nbsp; &amp;nbsp;&amp;nbsp;&lt;b style=&quot;forced-color-adjust: none;&quot;&gt;&lt;font style=&quot;forced-color-adjust: none; background-color: rgb(0, 255, 0);&quot;&gt;io&lt;/font&gt;&lt;/b&gt;&lt;b style=&quot;forced-color-adjust: none;&quot;&gt;.emit(&quot;newMessageToClients&quot;,&amp;nbsp;&lt;/b&gt;{text:dataFromClient.text); //send &amp;nbsp;namespaces to client&lt;/div&gt;&lt;/div&gt;&lt;div style=&quot;forced-color-adjust: none; color: rgb(0, 0, 0); font-family: Helvetica; font-size: 12px; font-style: normal; font-variant-ligatures: normal; font-variant-caps: normal; font-weight: 400; letter-spacing: normal; orphans: 2; text-indent: 0px; text-transform: none; widows: 2; word-spacing: 0px; -webkit-text-stroke-width: 0px; white-space: normal; background-color: rgb(251, 251, 251); text-decoration-thickness: initial; text-decoration-style: initial; text-decoration-color: initial;&quot;&gt;&lt;div style=&quot;forced-color-adjust: none; line-height: 19px;&quot;&gt;}&lt;b style=&quot;forced-color-adjust: none;&quot;&gt;)&lt;/b&gt;;&lt;/div&gt;&lt;/div&gt;" link="&#xa;&lt;div style=&quot;forced-color-adjust: none; color: rgb(0, 0, 0); font-family: Helvetica; font-size: 12px; font-style: normal; font-variant-ligatures: normal; font-variant-caps: normal; font-weight: 400; letter-spacing: normal; orphans: 2; text-align: left; text-indent: 0px; text-transform: none; widows: 2; word-spacing: 0px; -webkit-text-stroke-width: 0px; white-space: normal; background-color: rgb(251, 251, 251); text-decoration-thickness: initial; text-decoration-style: initial; text-decoration-color: initial;&quot;&gt;&lt;div style=&quot;forced-color-adjust: none; line-height: 19px;&quot;&gt;&lt;font style=&quot;forced-color-adjust: none;&quot; color=&quot;#ff00ff&quot;&gt;&lt;b style=&quot;forced-color-adjust: none;&quot;&gt;socket&lt;/b&gt;&lt;/font&gt;&lt;b style=&quot;forced-color-adjust: none;&quot;&gt;.on(&quot;newMessageToServer&quot;&lt;/b&gt;, (data) =&amp;gt; {&lt;/div&gt;&lt;/div&gt;&lt;div style=&quot;forced-color-adjust: none; color: rgb(0, 0, 0); font-family: Helvetica; font-size: 12px; font-style: normal; font-variant-ligatures: normal; font-variant-caps: normal; font-weight: 400; letter-spacing: normal; orphans: 2; text-align: left; text-indent: 0px; text-transform: none; widows: 2; word-spacing: 0px; -webkit-text-stroke-width: 0px; white-space: normal; background-color: rgb(251, 251, 251); text-decoration-thickness: initial; text-decoration-style: initial; text-decoration-color: initial;&quot;&gt;&lt;div style=&quot;forced-color-adjust: none; line-height: 19px;&quot;&gt;&amp;nbsp; &amp;nbsp; &amp;nbsp; console.log(socket.id, &quot;has connected&quot;);&lt;/div&gt;&lt;/div&gt;&lt;div style=&quot;forced-color-adjust: none; color: rgb(0, 0, 0); font-family: Helvetica; font-size: 12px; font-style: normal; font-variant-ligatures: normal; font-variant-caps: normal; font-weight: 400; letter-spacing: normal; orphans: 2; text-align: left; text-indent: 0px; text-transform: none; widows: 2; word-spacing: 0px; -webkit-text-stroke-width: 0px; white-space: normal; background-color: rgb(251, 251, 251); text-decoration-thickness: initial; text-decoration-style: initial; text-decoration-color: initial;&quot;&gt;&lt;div style=&quot;forced-color-adjust: none; line-height: 19px;&quot;&gt;&amp;nbsp; &amp;nbsp; &amp;nbsp;&amp;nbsp;&lt;b style=&quot;forced-color-adjust: none;&quot;&gt;&lt;font style=&quot;forced-color-adjust: none; background-color: rgb(0, 255, 0);&quot; color=&quot;#ffff00&quot;&gt;io&lt;/font&gt;&lt;/b&gt;&lt;b style=&quot;forced-color-adjust: none;&quot;&gt;.emit(&quot;newMessageToClients&quot;,&amp;nbsp;&lt;/b&gt;{text:dataFromClient.text); //send &amp;nbsp;namespaces to client&lt;/div&gt;&lt;/div&gt;&lt;div style=&quot;forced-color-adjust: none; color: rgb(0, 0, 0); font-family: Helvetica; font-size: 12px; font-style: normal; font-variant-ligatures: normal; font-variant-caps: normal; font-weight: 400; letter-spacing: normal; orphans: 2; text-align: left; text-indent: 0px; text-transform: none; widows: 2; word-spacing: 0px; -webkit-text-stroke-width: 0px; white-space: normal; background-color: rgb(251, 251, 251); text-decoration-thickness: initial; text-decoration-style: initial; text-decoration-color: initial;&quot;&gt;&lt;div style=&quot;forced-color-adjust: none; line-height: 19px;&quot;&gt;}&lt;b style=&quot;forced-color-adjust: none;&quot;&gt;)&lt;/b&gt;;&lt;/div&gt;&lt;/div&gt;&#xa;&#xa;" id="_w_OkT1hiIyt1mrQMRYV-11">
          <mxCell style="rounded=0;whiteSpace=wrap;html=1;spacing=10;align=left;" parent="_w_OkT1hiIyt1mrQMRYV-38" vertex="1">
            <mxGeometry x="75" y="198" width="560" height="130" as="geometry" />
          </mxCell>
        </UserObject>
        <mxCell id="_w_OkT1hiIyt1mrQMRYV-40" value="&lt;div style=&quot;line-height: 19px;&quot;&gt;&lt;div style=&quot;&quot;&gt;&lt;font style=&quot;font-size: 20px;&quot;&gt;}&lt;/font&gt;&lt;/div&gt;&lt;/div&gt;" style="text;html=1;align=left;verticalAlign=top;whiteSpace=wrap;rounded=0;labelPosition=center;verticalLabelPosition=middle;spacingTop=0;spacing=10;strokeColor=default;" parent="1" vertex="1">
          <mxGeometry x="-159" y="838" width="670" height="52" as="geometry" />
        </mxCell>
        <mxCell id="_3at-q2v9w0iWCzONIYG-16" value="" style="group" vertex="1" connectable="0" parent="1">
          <mxGeometry x="-181" y="956" width="1026" height="2100" as="geometry" />
        </mxCell>
        <mxCell id="uO6y8OYLciW7IVHyMsKk-1" value="&lt;font style=&quot;font-size: 20px;&quot;&gt;&lt;b&gt;Sockets&lt;/b&gt;&lt;/font&gt;" style="text;html=1;align=center;verticalAlign=middle;whiteSpace=wrap;rounded=0;" parent="_3at-q2v9w0iWCzONIYG-16" vertex="1">
          <mxGeometry x="22.65615141955836" width="64.73186119873817" height="30" as="geometry" />
        </mxCell>
        <mxCell id="_3at-q2v9w0iWCzONIYG-1" value="&lt;div style=&quot;line-height: 19px; font-size: 20px;&quot;&gt;&lt;div style=&quot;&quot;&gt;&lt;font color=&quot;#ff8000&quot;&gt;&lt;b&gt;&lt;br&gt;&lt;/b&gt;&lt;/font&gt;&lt;/div&gt;&lt;div style=&quot;&quot;&gt;export function initializeSockets() {&lt;/div&gt;&lt;div style=&quot;&quot;&gt;&lt;br&gt;&lt;/div&gt;&lt;div style=&quot;&quot;&gt;&lt;br&gt;&lt;/div&gt;&lt;div style=&quot;&quot;&gt;&lt;br&gt;&lt;/div&gt;&lt;div style=&quot;&quot;&gt;&lt;br&gt;&lt;/div&gt;&lt;div style=&quot;&quot;&gt;&lt;br&gt;&lt;/div&gt;&lt;div style=&quot;&quot;&gt;&lt;br&gt;&lt;/div&gt;&lt;div style=&quot;&quot;&gt;&lt;br&gt;&lt;/div&gt;&lt;div style=&quot;&quot;&gt;&lt;br&gt;&lt;/div&gt;&lt;div style=&quot;&quot;&gt;&lt;br&gt;&lt;/div&gt;&lt;div style=&quot;&quot;&gt;&lt;br&gt;&lt;/div&gt;&lt;div style=&quot;&quot;&gt;&lt;br&gt;&lt;/div&gt;&lt;div style=&quot;&quot;&gt;&lt;br&gt;&lt;/div&gt;&lt;div style=&quot;&quot;&gt;&lt;br&gt;&lt;/div&gt;&lt;div style=&quot;&quot;&gt;&lt;br&gt;&lt;/div&gt;&lt;div style=&quot;&quot;&gt;&lt;br&gt;&lt;/div&gt;&lt;div style=&quot;&quot;&gt;&lt;br&gt;&lt;/div&gt;&lt;div style=&quot;&quot;&gt;&lt;br&gt;&lt;/div&gt;&lt;div style=&quot;&quot;&gt;&lt;br&gt;&lt;/div&gt;&lt;div style=&quot;&quot;&gt;&lt;br&gt;&lt;/div&gt;&lt;div style=&quot;&quot;&gt;&lt;br&gt;&lt;/div&gt;&lt;div style=&quot;&quot;&gt;&lt;br&gt;&lt;/div&gt;&lt;div style=&quot;&quot;&gt;&lt;br&gt;&lt;/div&gt;&lt;div style=&quot;&quot;&gt;&lt;br&gt;&lt;/div&gt;&lt;div style=&quot;&quot;&gt;&lt;br&gt;&lt;/div&gt;&lt;div style=&quot;&quot;&gt;&lt;br&gt;&lt;/div&gt;&lt;div style=&quot;&quot;&gt;&lt;br&gt;&lt;/div&gt;&lt;div style=&quot;&quot;&gt;&lt;br&gt;&lt;/div&gt;&lt;div style=&quot;&quot;&gt;&lt;br&gt;&lt;/div&gt;&lt;div style=&quot;&quot;&gt;&lt;br&gt;&lt;/div&gt;&lt;div style=&quot;&quot;&gt;&lt;br&gt;&lt;/div&gt;&lt;div style=&quot;&quot;&gt;&lt;br&gt;&lt;/div&gt;&lt;div style=&quot;&quot;&gt;&lt;br&gt;&lt;/div&gt;&lt;div style=&quot;&quot;&gt;&lt;br&gt;&lt;/div&gt;&lt;div style=&quot;&quot;&gt;&lt;br&gt;&lt;/div&gt;&lt;div style=&quot;&quot;&gt;&lt;br&gt;&lt;/div&gt;&lt;div style=&quot;&quot;&gt;&lt;br&gt;&lt;/div&gt;&lt;div style=&quot;&quot;&gt;&lt;br&gt;&lt;/div&gt;&lt;div style=&quot;&quot;&gt;&lt;br&gt;&lt;/div&gt;&lt;div style=&quot;&quot;&gt;&lt;br&gt;&lt;/div&gt;&lt;div style=&quot;&quot;&gt;&lt;br&gt;&lt;/div&gt;&lt;div style=&quot;&quot;&gt;&lt;br&gt;&lt;/div&gt;&lt;div style=&quot;&quot;&gt;&lt;br&gt;&lt;/div&gt;&lt;div style=&quot;&quot;&gt;&lt;br&gt;&lt;/div&gt;&lt;div style=&quot;&quot;&gt;&lt;br&gt;&lt;/div&gt;&lt;div style=&quot;&quot;&gt;&lt;br&gt;&lt;/div&gt;&lt;div style=&quot;&quot;&gt;&lt;br&gt;&lt;/div&gt;&lt;div style=&quot;&quot;&gt;&lt;br&gt;&lt;/div&gt;&lt;div style=&quot;&quot;&gt;&lt;br&gt;&lt;/div&gt;&lt;div style=&quot;&quot;&gt;&lt;br&gt;&lt;/div&gt;&lt;div style=&quot;&quot;&gt;&lt;br&gt;&lt;/div&gt;&lt;div style=&quot;&quot;&gt;&lt;br&gt;&lt;/div&gt;&lt;div style=&quot;&quot;&gt;&lt;br&gt;&lt;/div&gt;&lt;div style=&quot;&quot;&gt;&lt;br&gt;&lt;/div&gt;&lt;div style=&quot;&quot;&gt;&lt;br&gt;&lt;/div&gt;&lt;div style=&quot;&quot;&gt;&lt;br&gt;&lt;/div&gt;&lt;div style=&quot;&quot;&gt;&lt;br&gt;&lt;/div&gt;&lt;div style=&quot;&quot;&gt;&lt;br&gt;&lt;/div&gt;&lt;div style=&quot;&quot;&gt;&lt;br&gt;&lt;/div&gt;&lt;div style=&quot;&quot;&gt;&lt;br&gt;&lt;/div&gt;&lt;div style=&quot;&quot;&gt;&lt;br&gt;&lt;/div&gt;&lt;div style=&quot;&quot;&gt;&lt;br&gt;&lt;/div&gt;&lt;div style=&quot;&quot;&gt;&lt;br&gt;&lt;/div&gt;&lt;div style=&quot;&quot;&gt;&lt;br&gt;&lt;/div&gt;&lt;div style=&quot;&quot;&gt;&lt;br&gt;&lt;/div&gt;&lt;div style=&quot;&quot;&gt;&lt;br&gt;&lt;/div&gt;&lt;div style=&quot;&quot;&gt;&lt;br&gt;&lt;/div&gt;&lt;div style=&quot;&quot;&gt;&lt;br&gt;&lt;/div&gt;&lt;div style=&quot;&quot;&gt;&lt;br&gt;&lt;/div&gt;&lt;div style=&quot;&quot;&gt;&lt;br&gt;&lt;/div&gt;&lt;div style=&quot;&quot;&gt;&lt;br&gt;&lt;/div&gt;&lt;div style=&quot;&quot;&gt;&lt;br&gt;&lt;/div&gt;&lt;div style=&quot;&quot;&gt;&lt;br&gt;&lt;/div&gt;&lt;div style=&quot;&quot;&gt;&lt;br&gt;&lt;/div&gt;&lt;div style=&quot;&quot;&gt;&lt;br&gt;&lt;/div&gt;&lt;div style=&quot;&quot;&gt;&lt;br&gt;&lt;/div&gt;&lt;div style=&quot;&quot;&gt;&lt;br&gt;&lt;/div&gt;&lt;div style=&quot;&quot;&gt;&lt;br&gt;&lt;/div&gt;&lt;div style=&quot;&quot;&gt;&lt;br&gt;&lt;/div&gt;&lt;div style=&quot;&quot;&gt;&lt;br&gt;&lt;/div&gt;&lt;div style=&quot;&quot;&gt;&lt;br&gt;&lt;/div&gt;&lt;div style=&quot;&quot;&gt;&lt;br&gt;&lt;/div&gt;&lt;div style=&quot;&quot;&gt;&lt;br&gt;&lt;/div&gt;&lt;div style=&quot;&quot;&gt;&lt;br&gt;&lt;/div&gt;&lt;div style=&quot;&quot;&gt;&lt;br&gt;&lt;/div&gt;&lt;div style=&quot;&quot;&gt;&lt;br&gt;&lt;/div&gt;&lt;div style=&quot;&quot;&gt;&lt;br&gt;&lt;/div&gt;&lt;div style=&quot;&quot;&gt;&lt;br&gt;&lt;/div&gt;&lt;div style=&quot;&quot;&gt;&lt;br&gt;&lt;/div&gt;&lt;div style=&quot;&quot;&gt;&lt;br&gt;&lt;/div&gt;&lt;div style=&quot;&quot;&gt;&lt;br&gt;&lt;/div&gt;&lt;div style=&quot;&quot;&gt;&lt;br&gt;&lt;/div&gt;&lt;div style=&quot;&quot;&gt;&lt;br&gt;&lt;/div&gt;&lt;div style=&quot;&quot;&gt;&lt;br&gt;&lt;/div&gt;&lt;div style=&quot;&quot;&gt;&lt;font style=&quot;font-size: 20px;&quot; color=&quot;#ff8000&quot;&gt;&lt;b&gt;&lt;br&gt;&lt;/b&gt;&lt;/font&gt;&lt;/div&gt;&lt;div style=&quot;&quot;&gt;}&lt;/div&gt;&lt;div style=&quot;color: rgb(204, 204, 204); font-family: Consolas, &amp;quot;Courier New&amp;quot;, monospace; font-size: 14px; font-weight: normal; white-space: pre; background-color: rgb(31, 31, 31);&quot;&gt;&lt;span style=&quot;color: #cccccc;&quot;&gt;&lt;/span&gt;&lt;/div&gt;&lt;/div&gt;" style="text;whiteSpace=wrap;html=1;strokeColor=default;spacing=10;" vertex="1" parent="_3at-q2v9w0iWCzONIYG-16">
          <mxGeometry x="9.71" y="212" width="1016.29" height="1888" as="geometry" />
        </mxCell>
        <mxCell id="_3at-q2v9w0iWCzONIYG-3" value="&lt;div style=&quot;forced-color-adjust: none; font-family: Helvetica; font-size: 20px; font-style: normal; font-variant-ligatures: normal; font-variant-caps: normal; letter-spacing: normal; orphans: 2; text-align: left; text-indent: 0px; text-transform: none; widows: 2; word-spacing: 0px; -webkit-text-stroke-width: 0px; white-space: normal; text-decoration-thickness: initial; text-decoration-style: initial; text-decoration-color: initial;&quot;&gt;&lt;span style=&quot;font-weight: 400; color: rgb(0, 0, 0);&quot;&gt;&lt;font color=&quot;#ff8000&quot; style=&quot;forced-color-adjust: none;&quot;&gt;&lt;b style=&quot;forced-color-adjust: none;&quot;&gt;namespaces&lt;/b&gt;&lt;/font&gt;.forEach((&lt;/span&gt;&lt;font style=&quot;&quot; color=&quot;#ff8000&quot;&gt;&lt;b&gt;namespace&lt;/b&gt;&lt;/font&gt;) =&amp;gt; {&lt;/div&gt;&lt;div style=&quot;forced-color-adjust: none; color: rgb(0, 0, 0); font-family: Helvetica; font-size: 20px; font-style: normal; font-variant-ligatures: normal; font-variant-caps: normal; font-weight: 400; letter-spacing: normal; orphans: 2; text-align: left; text-indent: 0px; text-transform: none; widows: 2; word-spacing: 0px; -webkit-text-stroke-width: 0px; white-space: normal; text-decoration-thickness: initial; text-decoration-style: initial; text-decoration-color: initial;&quot;&gt;&lt;br style=&quot;forced-color-adjust: none;&quot;&gt;&lt;/div&gt;&lt;blockquote style=&quot;margin: 0px 0px 0px 40px; border: none; padding: 0px; font-size: 20px;&quot;&gt;&lt;div style=&quot;forced-color-adjust: none; orphans: 2; text-align: left; text-indent: 0px; widows: 2; text-decoration-thickness: initial; text-decoration-style: initial; text-decoration-color: initial;&quot;&gt;&lt;div style=&quot;line-height: 19px;&quot;&gt;&lt;br&gt;&lt;/div&gt;&lt;div style=&quot;line-height: 19px;&quot;&gt;&lt;br&gt;&lt;/div&gt;&lt;div style=&quot;line-height: 19px;&quot;&gt;&lt;br&gt;&lt;/div&gt;&lt;div style=&quot;line-height: 19px;&quot;&gt;&lt;br&gt;&lt;/div&gt;&lt;/div&gt;&lt;/blockquote&gt;&lt;div style=&quot;forced-color-adjust: none; color: rgb(0, 0, 0); font-family: Helvetica; font-size: 20px; font-style: normal; font-variant-ligatures: normal; font-variant-caps: normal; font-weight: 400; letter-spacing: normal; text-transform: none; word-spacing: 0px; -webkit-text-stroke-width: 0px; white-space: normal; text-decoration-thickness: initial; text-decoration-style: initial; text-decoration-color: initial;&quot;&gt;&lt;br&gt;&lt;/div&gt;&lt;div style=&quot;forced-color-adjust: none; color: rgb(0, 0, 0); font-family: Helvetica; font-size: 20px; font-style: normal; font-variant-ligatures: normal; font-variant-caps: normal; font-weight: 400; letter-spacing: normal; orphans: 2; text-align: left; text-indent: 0px; text-transform: none; widows: 2; word-spacing: 0px; -webkit-text-stroke-width: 0px; white-space: normal; text-decoration-thickness: initial; text-decoration-style: initial; text-decoration-color: initial;&quot;&gt;&lt;br&gt;&lt;/div&gt;&lt;div style=&quot;forced-color-adjust: none; color: rgb(0, 0, 0); font-family: Helvetica; font-size: 20px; font-style: normal; font-variant-ligatures: normal; font-variant-caps: normal; font-weight: 400; letter-spacing: normal; orphans: 2; text-align: left; text-indent: 0px; text-transform: none; widows: 2; word-spacing: 0px; -webkit-text-stroke-width: 0px; white-space: normal; text-decoration-thickness: initial; text-decoration-style: initial; text-decoration-color: initial;&quot;&gt;&lt;br&gt;&lt;/div&gt;&lt;div style=&quot;forced-color-adjust: none; color: rgb(0, 0, 0); font-family: Helvetica; font-size: 20px; font-style: normal; font-variant-ligatures: normal; font-variant-caps: normal; font-weight: 400; letter-spacing: normal; orphans: 2; text-align: left; text-indent: 0px; text-transform: none; widows: 2; word-spacing: 0px; -webkit-text-stroke-width: 0px; white-space: normal; text-decoration-thickness: initial; text-decoration-style: initial; text-decoration-color: initial;&quot;&gt;&lt;br&gt;&lt;/div&gt;&lt;div style=&quot;forced-color-adjust: none; color: rgb(0, 0, 0); font-family: Helvetica; font-size: 20px; font-style: normal; font-variant-ligatures: normal; font-variant-caps: normal; font-weight: 400; letter-spacing: normal; orphans: 2; text-align: left; text-indent: 0px; text-transform: none; widows: 2; word-spacing: 0px; -webkit-text-stroke-width: 0px; white-space: normal; text-decoration-thickness: initial; text-decoration-style: initial; text-decoration-color: initial;&quot;&gt;&lt;br&gt;&lt;/div&gt;&lt;div style=&quot;forced-color-adjust: none; color: rgb(0, 0, 0); font-family: Helvetica; font-size: 20px; font-style: normal; font-variant-ligatures: normal; font-variant-caps: normal; font-weight: 400; letter-spacing: normal; orphans: 2; text-align: left; text-indent: 0px; text-transform: none; widows: 2; word-spacing: 0px; -webkit-text-stroke-width: 0px; white-space: normal; text-decoration-thickness: initial; text-decoration-style: initial; text-decoration-color: initial;&quot;&gt;&lt;br&gt;&lt;/div&gt;&lt;div style=&quot;forced-color-adjust: none; color: rgb(0, 0, 0); font-family: Helvetica; font-size: 20px; font-style: normal; font-variant-ligatures: normal; font-variant-caps: normal; font-weight: 400; letter-spacing: normal; orphans: 2; text-align: left; text-indent: 0px; text-transform: none; widows: 2; word-spacing: 0px; -webkit-text-stroke-width: 0px; white-space: normal; text-decoration-thickness: initial; text-decoration-style: initial; text-decoration-color: initial;&quot;&gt;&lt;br&gt;&lt;/div&gt;&lt;div style=&quot;forced-color-adjust: none; color: rgb(0, 0, 0); font-family: Helvetica; font-size: 20px; font-style: normal; font-variant-ligatures: normal; font-variant-caps: normal; font-weight: 400; letter-spacing: normal; orphans: 2; text-align: left; text-indent: 0px; text-transform: none; widows: 2; word-spacing: 0px; -webkit-text-stroke-width: 0px; white-space: normal; text-decoration-thickness: initial; text-decoration-style: initial; text-decoration-color: initial;&quot;&gt;&lt;br&gt;&lt;/div&gt;&lt;div style=&quot;forced-color-adjust: none; color: rgb(0, 0, 0); font-family: Helvetica; font-size: 20px; font-style: normal; font-variant-ligatures: normal; font-variant-caps: normal; font-weight: 400; letter-spacing: normal; orphans: 2; text-align: left; text-indent: 0px; text-transform: none; widows: 2; word-spacing: 0px; -webkit-text-stroke-width: 0px; white-space: normal; text-decoration-thickness: initial; text-decoration-style: initial; text-decoration-color: initial;&quot;&gt;&lt;br&gt;&lt;/div&gt;&lt;div style=&quot;forced-color-adjust: none; color: rgb(0, 0, 0); font-family: Helvetica; font-size: 20px; font-style: normal; font-variant-ligatures: normal; font-variant-caps: normal; font-weight: 400; letter-spacing: normal; orphans: 2; text-align: left; text-indent: 0px; text-transform: none; widows: 2; word-spacing: 0px; -webkit-text-stroke-width: 0px; white-space: normal; text-decoration-thickness: initial; text-decoration-style: initial; text-decoration-color: initial;&quot;&gt;&lt;br&gt;&lt;/div&gt;&lt;div style=&quot;forced-color-adjust: none; color: rgb(0, 0, 0); font-family: Helvetica; font-size: 20px; font-style: normal; font-variant-ligatures: normal; font-variant-caps: normal; font-weight: 400; letter-spacing: normal; orphans: 2; text-align: left; text-indent: 0px; text-transform: none; widows: 2; word-spacing: 0px; -webkit-text-stroke-width: 0px; white-space: normal; text-decoration-thickness: initial; text-decoration-style: initial; text-decoration-color: initial;&quot;&gt;&lt;br&gt;&lt;/div&gt;&lt;div style=&quot;forced-color-adjust: none; color: rgb(0, 0, 0); font-family: Helvetica; font-size: 20px; font-style: normal; font-variant-ligatures: normal; font-variant-caps: normal; font-weight: 400; letter-spacing: normal; orphans: 2; text-align: left; text-indent: 0px; text-transform: none; widows: 2; word-spacing: 0px; -webkit-text-stroke-width: 0px; white-space: normal; text-decoration-thickness: initial; text-decoration-style: initial; text-decoration-color: initial;&quot;&gt;&lt;br&gt;&lt;/div&gt;&lt;div style=&quot;forced-color-adjust: none; color: rgb(0, 0, 0); font-family: Helvetica; font-size: 20px; font-style: normal; font-variant-ligatures: normal; font-variant-caps: normal; font-weight: 400; letter-spacing: normal; orphans: 2; text-align: left; text-indent: 0px; text-transform: none; widows: 2; word-spacing: 0px; -webkit-text-stroke-width: 0px; white-space: normal; text-decoration-thickness: initial; text-decoration-style: initial; text-decoration-color: initial;&quot;&gt;&lt;br&gt;&lt;/div&gt;&lt;div style=&quot;forced-color-adjust: none; color: rgb(0, 0, 0); font-family: Helvetica; font-size: 20px; font-style: normal; font-variant-ligatures: normal; font-variant-caps: normal; font-weight: 400; letter-spacing: normal; orphans: 2; text-align: left; text-indent: 0px; text-transform: none; widows: 2; word-spacing: 0px; -webkit-text-stroke-width: 0px; white-space: normal; text-decoration-thickness: initial; text-decoration-style: initial; text-decoration-color: initial;&quot;&gt;&lt;br&gt;&lt;/div&gt;&lt;div style=&quot;forced-color-adjust: none; color: rgb(0, 0, 0); font-family: Helvetica; font-size: 20px; font-style: normal; font-variant-ligatures: normal; font-variant-caps: normal; font-weight: 400; letter-spacing: normal; orphans: 2; text-align: left; text-indent: 0px; text-transform: none; widows: 2; word-spacing: 0px; -webkit-text-stroke-width: 0px; white-space: normal; text-decoration-thickness: initial; text-decoration-style: initial; text-decoration-color: initial;&quot;&gt;&lt;br&gt;&lt;/div&gt;&lt;div style=&quot;forced-color-adjust: none; color: rgb(0, 0, 0); font-family: Helvetica; font-size: 20px; font-style: normal; font-variant-ligatures: normal; font-variant-caps: normal; font-weight: 400; letter-spacing: normal; orphans: 2; text-align: left; text-indent: 0px; text-transform: none; widows: 2; word-spacing: 0px; -webkit-text-stroke-width: 0px; white-space: normal; text-decoration-thickness: initial; text-decoration-style: initial; text-decoration-color: initial;&quot;&gt;&lt;br&gt;&lt;/div&gt;&lt;div style=&quot;forced-color-adjust: none; color: rgb(0, 0, 0); font-family: Helvetica; font-size: 20px; font-style: normal; font-variant-ligatures: normal; font-variant-caps: normal; font-weight: 400; letter-spacing: normal; orphans: 2; text-align: left; text-indent: 0px; text-transform: none; widows: 2; word-spacing: 0px; -webkit-text-stroke-width: 0px; white-space: normal; text-decoration-thickness: initial; text-decoration-style: initial; text-decoration-color: initial;&quot;&gt;&lt;br&gt;&lt;/div&gt;&lt;div style=&quot;forced-color-adjust: none; color: rgb(0, 0, 0); font-family: Helvetica; font-size: 20px; font-style: normal; font-variant-ligatures: normal; font-variant-caps: normal; font-weight: 400; letter-spacing: normal; orphans: 2; text-align: left; text-indent: 0px; text-transform: none; widows: 2; word-spacing: 0px; -webkit-text-stroke-width: 0px; white-space: normal; text-decoration-thickness: initial; text-decoration-style: initial; text-decoration-color: initial;&quot;&gt;&lt;br&gt;&lt;/div&gt;&lt;div style=&quot;forced-color-adjust: none; color: rgb(0, 0, 0); font-family: Helvetica; font-size: 20px; font-style: normal; font-variant-ligatures: normal; font-variant-caps: normal; font-weight: 400; letter-spacing: normal; orphans: 2; text-align: left; text-indent: 0px; text-transform: none; widows: 2; word-spacing: 0px; -webkit-text-stroke-width: 0px; white-space: normal; text-decoration-thickness: initial; text-decoration-style: initial; text-decoration-color: initial;&quot;&gt;&lt;br&gt;&lt;/div&gt;&lt;div style=&quot;forced-color-adjust: none; color: rgb(0, 0, 0); font-family: Helvetica; font-size: 20px; font-style: normal; font-variant-ligatures: normal; font-variant-caps: normal; font-weight: 400; letter-spacing: normal; orphans: 2; text-align: left; text-indent: 0px; text-transform: none; widows: 2; word-spacing: 0px; -webkit-text-stroke-width: 0px; white-space: normal; text-decoration-thickness: initial; text-decoration-style: initial; text-decoration-color: initial;&quot;&gt;&lt;br&gt;&lt;/div&gt;&lt;div style=&quot;forced-color-adjust: none; color: rgb(0, 0, 0); font-family: Helvetica; font-size: 20px; font-style: normal; font-variant-ligatures: normal; font-variant-caps: normal; font-weight: 400; letter-spacing: normal; orphans: 2; text-align: left; text-indent: 0px; text-transform: none; widows: 2; word-spacing: 0px; -webkit-text-stroke-width: 0px; white-space: normal; text-decoration-thickness: initial; text-decoration-style: initial; text-decoration-color: initial;&quot;&gt;&lt;br&gt;&lt;/div&gt;&lt;div style=&quot;forced-color-adjust: none; color: rgb(0, 0, 0); font-family: Helvetica; font-size: 20px; font-style: normal; font-variant-ligatures: normal; font-variant-caps: normal; font-weight: 400; letter-spacing: normal; orphans: 2; text-align: left; text-indent: 0px; text-transform: none; widows: 2; word-spacing: 0px; -webkit-text-stroke-width: 0px; white-space: normal; text-decoration-thickness: initial; text-decoration-style: initial; text-decoration-color: initial;&quot;&gt;&lt;br&gt;&lt;/div&gt;&lt;div style=&quot;forced-color-adjust: none; color: rgb(0, 0, 0); font-family: Helvetica; font-size: 20px; font-style: normal; font-variant-ligatures: normal; font-variant-caps: normal; font-weight: 400; letter-spacing: normal; orphans: 2; text-align: left; text-indent: 0px; text-transform: none; widows: 2; word-spacing: 0px; -webkit-text-stroke-width: 0px; white-space: normal; text-decoration-thickness: initial; text-decoration-style: initial; text-decoration-color: initial;&quot;&gt;&lt;br&gt;&lt;/div&gt;&lt;div style=&quot;forced-color-adjust: none; color: rgb(0, 0, 0); font-family: Helvetica; font-size: 20px; font-style: normal; font-variant-ligatures: normal; font-variant-caps: normal; font-weight: 400; letter-spacing: normal; orphans: 2; text-align: left; text-indent: 0px; text-transform: none; widows: 2; word-spacing: 0px; -webkit-text-stroke-width: 0px; white-space: normal; text-decoration-thickness: initial; text-decoration-style: initial; text-decoration-color: initial;&quot;&gt;&lt;br&gt;&lt;/div&gt;&lt;div style=&quot;forced-color-adjust: none; color: rgb(0, 0, 0); font-family: Helvetica; font-size: 20px; font-style: normal; font-variant-ligatures: normal; font-variant-caps: normal; font-weight: 400; letter-spacing: normal; orphans: 2; text-align: left; text-indent: 0px; text-transform: none; widows: 2; word-spacing: 0px; -webkit-text-stroke-width: 0px; white-space: normal; text-decoration-thickness: initial; text-decoration-style: initial; text-decoration-color: initial;&quot;&gt;&lt;br&gt;&lt;/div&gt;&lt;div style=&quot;forced-color-adjust: none; color: rgb(0, 0, 0); font-family: Helvetica; font-size: 20px; font-style: normal; font-variant-ligatures: normal; font-variant-caps: normal; font-weight: 400; letter-spacing: normal; orphans: 2; text-align: left; text-indent: 0px; text-transform: none; widows: 2; word-spacing: 0px; -webkit-text-stroke-width: 0px; white-space: normal; text-decoration-thickness: initial; text-decoration-style: initial; text-decoration-color: initial;&quot;&gt;&lt;br&gt;&lt;/div&gt;&lt;div style=&quot;forced-color-adjust: none; color: rgb(0, 0, 0); font-family: Helvetica; font-size: 20px; font-style: normal; font-variant-ligatures: normal; font-variant-caps: normal; font-weight: 400; letter-spacing: normal; orphans: 2; text-align: left; text-indent: 0px; text-transform: none; widows: 2; word-spacing: 0px; -webkit-text-stroke-width: 0px; white-space: normal; text-decoration-thickness: initial; text-decoration-style: initial; text-decoration-color: initial;&quot;&gt;&lt;br&gt;&lt;/div&gt;&lt;div style=&quot;forced-color-adjust: none; color: rgb(0, 0, 0); font-family: Helvetica; font-size: 20px; font-style: normal; font-variant-ligatures: normal; font-variant-caps: normal; font-weight: 400; letter-spacing: normal; orphans: 2; text-align: left; text-indent: 0px; text-transform: none; widows: 2; word-spacing: 0px; -webkit-text-stroke-width: 0px; white-space: normal; text-decoration-thickness: initial; text-decoration-style: initial; text-decoration-color: initial;&quot;&gt;&lt;br&gt;&lt;/div&gt;&lt;div style=&quot;forced-color-adjust: none; color: rgb(0, 0, 0); font-family: Helvetica; font-size: 20px; font-style: normal; font-variant-ligatures: normal; font-variant-caps: normal; font-weight: 400; letter-spacing: normal; orphans: 2; text-align: left; text-indent: 0px; text-transform: none; widows: 2; word-spacing: 0px; -webkit-text-stroke-width: 0px; white-space: normal; text-decoration-thickness: initial; text-decoration-style: initial; text-decoration-color: initial;&quot;&gt;&lt;br&gt;&lt;/div&gt;&lt;div style=&quot;forced-color-adjust: none; color: rgb(0, 0, 0); font-family: Helvetica; font-size: 20px; font-style: normal; font-variant-ligatures: normal; font-variant-caps: normal; font-weight: 400; letter-spacing: normal; orphans: 2; text-align: left; text-indent: 0px; text-transform: none; widows: 2; word-spacing: 0px; -webkit-text-stroke-width: 0px; white-space: normal; text-decoration-thickness: initial; text-decoration-style: initial; text-decoration-color: initial;&quot;&gt;&lt;br&gt;&lt;/div&gt;&lt;div style=&quot;forced-color-adjust: none; color: rgb(0, 0, 0); font-family: Helvetica; font-size: 20px; font-style: normal; font-variant-ligatures: normal; font-variant-caps: normal; font-weight: 400; letter-spacing: normal; orphans: 2; text-align: left; text-indent: 0px; text-transform: none; widows: 2; word-spacing: 0px; -webkit-text-stroke-width: 0px; white-space: normal; text-decoration-thickness: initial; text-decoration-style: initial; text-decoration-color: initial;&quot;&gt;&lt;br&gt;&lt;/div&gt;&lt;div style=&quot;forced-color-adjust: none; color: rgb(0, 0, 0); font-family: Helvetica; font-size: 20px; font-style: normal; font-variant-ligatures: normal; font-variant-caps: normal; font-weight: 400; letter-spacing: normal; orphans: 2; text-align: left; text-indent: 0px; text-transform: none; widows: 2; word-spacing: 0px; -webkit-text-stroke-width: 0px; white-space: normal; text-decoration-thickness: initial; text-decoration-style: initial; text-decoration-color: initial;&quot;&gt;&lt;br&gt;&lt;/div&gt;&lt;div style=&quot;forced-color-adjust: none; color: rgb(0, 0, 0); font-family: Helvetica; font-size: 20px; font-style: normal; font-variant-ligatures: normal; font-variant-caps: normal; font-weight: 400; letter-spacing: normal; orphans: 2; text-align: left; text-indent: 0px; text-transform: none; widows: 2; word-spacing: 0px; -webkit-text-stroke-width: 0px; white-space: normal; text-decoration-thickness: initial; text-decoration-style: initial; text-decoration-color: initial;&quot;&gt;&lt;br&gt;&lt;/div&gt;&lt;div style=&quot;forced-color-adjust: none; color: rgb(0, 0, 0); font-family: Helvetica; font-size: 20px; font-style: normal; font-variant-ligatures: normal; font-variant-caps: normal; font-weight: 400; letter-spacing: normal; orphans: 2; text-align: left; text-indent: 0px; text-transform: none; widows: 2; word-spacing: 0px; -webkit-text-stroke-width: 0px; white-space: normal; text-decoration-thickness: initial; text-decoration-style: initial; text-decoration-color: initial;&quot;&gt;&lt;br&gt;&lt;/div&gt;&lt;div style=&quot;forced-color-adjust: none; color: rgb(0, 0, 0); font-family: Helvetica; font-size: 20px; font-style: normal; font-variant-ligatures: normal; font-variant-caps: normal; font-weight: 400; letter-spacing: normal; orphans: 2; text-align: left; text-indent: 0px; text-transform: none; widows: 2; word-spacing: 0px; -webkit-text-stroke-width: 0px; white-space: normal; text-decoration-thickness: initial; text-decoration-style: initial; text-decoration-color: initial;&quot;&gt;&lt;br&gt;&lt;/div&gt;&lt;div style=&quot;forced-color-adjust: none; color: rgb(0, 0, 0); font-family: Helvetica; font-size: 20px; font-style: normal; font-variant-ligatures: normal; font-variant-caps: normal; font-weight: 400; letter-spacing: normal; orphans: 2; text-align: left; text-indent: 0px; text-transform: none; widows: 2; word-spacing: 0px; -webkit-text-stroke-width: 0px; white-space: normal; text-decoration-thickness: initial; text-decoration-style: initial; text-decoration-color: initial;&quot;&gt;&lt;br&gt;&lt;/div&gt;&lt;div style=&quot;forced-color-adjust: none; color: rgb(0, 0, 0); font-family: Helvetica; font-size: 20px; font-style: normal; font-variant-ligatures: normal; font-variant-caps: normal; font-weight: 400; letter-spacing: normal; orphans: 2; text-align: left; text-indent: 0px; text-transform: none; widows: 2; word-spacing: 0px; -webkit-text-stroke-width: 0px; white-space: normal; text-decoration-thickness: initial; text-decoration-style: initial; text-decoration-color: initial;&quot;&gt;&lt;br&gt;&lt;/div&gt;&lt;div style=&quot;forced-color-adjust: none; color: rgb(0, 0, 0); font-family: Helvetica; font-size: 20px; font-style: normal; font-variant-ligatures: normal; font-variant-caps: normal; font-weight: 400; letter-spacing: normal; orphans: 2; text-align: left; text-indent: 0px; text-transform: none; widows: 2; word-spacing: 0px; -webkit-text-stroke-width: 0px; white-space: normal; text-decoration-thickness: initial; text-decoration-style: initial; text-decoration-color: initial;&quot;&gt;&lt;br&gt;&lt;/div&gt;&lt;div style=&quot;forced-color-adjust: none; color: rgb(0, 0, 0); font-family: Helvetica; font-size: 20px; font-style: normal; font-variant-ligatures: normal; font-variant-caps: normal; font-weight: 400; letter-spacing: normal; orphans: 2; text-align: left; text-indent: 0px; text-transform: none; widows: 2; word-spacing: 0px; -webkit-text-stroke-width: 0px; white-space: normal; text-decoration-thickness: initial; text-decoration-style: initial; text-decoration-color: initial;&quot;&gt;&lt;br&gt;&lt;/div&gt;&lt;div style=&quot;forced-color-adjust: none; color: rgb(0, 0, 0); font-family: Helvetica; font-size: 20px; font-style: normal; font-variant-ligatures: normal; font-variant-caps: normal; font-weight: 400; letter-spacing: normal; orphans: 2; text-align: left; text-indent: 0px; text-transform: none; widows: 2; word-spacing: 0px; -webkit-text-stroke-width: 0px; white-space: normal; text-decoration-thickness: initial; text-decoration-style: initial; text-decoration-color: initial;&quot;&gt;&lt;br&gt;&lt;/div&gt;&lt;div style=&quot;forced-color-adjust: none; color: rgb(0, 0, 0); font-family: Helvetica; font-size: 20px; font-style: normal; font-variant-ligatures: normal; font-variant-caps: normal; font-weight: 400; letter-spacing: normal; orphans: 2; text-align: left; text-indent: 0px; text-transform: none; widows: 2; word-spacing: 0px; -webkit-text-stroke-width: 0px; white-space: normal; text-decoration-thickness: initial; text-decoration-style: initial; text-decoration-color: initial;&quot;&gt;&lt;br&gt;&lt;/div&gt;&lt;div style=&quot;forced-color-adjust: none; color: rgb(0, 0, 0); font-family: Helvetica; font-size: 20px; font-style: normal; font-variant-ligatures: normal; font-variant-caps: normal; font-weight: 400; letter-spacing: normal; orphans: 2; text-align: left; text-indent: 0px; text-transform: none; widows: 2; word-spacing: 0px; -webkit-text-stroke-width: 0px; white-space: normal; text-decoration-thickness: initial; text-decoration-style: initial; text-decoration-color: initial;&quot;&gt;&lt;br&gt;&lt;/div&gt;&lt;div style=&quot;forced-color-adjust: none; color: rgb(0, 0, 0); font-family: Helvetica; font-size: 20px; font-style: normal; font-variant-ligatures: normal; font-variant-caps: normal; font-weight: 400; letter-spacing: normal; orphans: 2; text-align: left; text-indent: 0px; text-transform: none; widows: 2; word-spacing: 0px; -webkit-text-stroke-width: 0px; white-space: normal; text-decoration-thickness: initial; text-decoration-style: initial; text-decoration-color: initial;&quot;&gt;&lt;br&gt;&lt;/div&gt;&lt;div style=&quot;forced-color-adjust: none; color: rgb(0, 0, 0); font-family: Helvetica; font-size: 20px; font-style: normal; font-variant-ligatures: normal; font-variant-caps: normal; font-weight: 400; letter-spacing: normal; orphans: 2; text-align: left; text-indent: 0px; text-transform: none; widows: 2; word-spacing: 0px; -webkit-text-stroke-width: 0px; white-space: normal; text-decoration-thickness: initial; text-decoration-style: initial; text-decoration-color: initial;&quot;&gt;&lt;br&gt;&lt;/div&gt;&lt;div style=&quot;forced-color-adjust: none; color: rgb(0, 0, 0); font-family: Helvetica; font-size: 20px; font-style: normal; font-variant-ligatures: normal; font-variant-caps: normal; font-weight: 400; letter-spacing: normal; orphans: 2; text-align: left; text-indent: 0px; text-transform: none; widows: 2; word-spacing: 0px; -webkit-text-stroke-width: 0px; white-space: normal; text-decoration-thickness: initial; text-decoration-style: initial; text-decoration-color: initial;&quot;&gt;&lt;br&gt;&lt;/div&gt;&lt;div style=&quot;forced-color-adjust: none; color: rgb(0, 0, 0); font-family: Helvetica; font-size: 20px; font-style: normal; font-variant-ligatures: normal; font-variant-caps: normal; font-weight: 400; letter-spacing: normal; orphans: 2; text-align: left; text-indent: 0px; text-transform: none; widows: 2; word-spacing: 0px; -webkit-text-stroke-width: 0px; white-space: normal; text-decoration-thickness: initial; text-decoration-style: initial; text-decoration-color: initial;&quot;&gt;&lt;br&gt;&lt;/div&gt;&lt;div style=&quot;forced-color-adjust: none; color: rgb(0, 0, 0); font-family: Helvetica; font-size: 20px; font-style: normal; font-variant-ligatures: normal; font-variant-caps: normal; font-weight: 400; letter-spacing: normal; orphans: 2; text-align: left; text-indent: 0px; text-transform: none; widows: 2; word-spacing: 0px; -webkit-text-stroke-width: 0px; white-space: normal; text-decoration-thickness: initial; text-decoration-style: initial; text-decoration-color: initial;&quot;&gt;&lt;br&gt;&lt;/div&gt;&lt;div style=&quot;forced-color-adjust: none; color: rgb(0, 0, 0); font-family: Helvetica; font-size: 20px; font-style: normal; font-variant-ligatures: normal; font-variant-caps: normal; font-weight: 400; letter-spacing: normal; orphans: 2; text-align: left; text-indent: 0px; text-transform: none; widows: 2; word-spacing: 0px; -webkit-text-stroke-width: 0px; white-space: normal; text-decoration-thickness: initial; text-decoration-style: initial; text-decoration-color: initial;&quot;&gt;&lt;br&gt;&lt;/div&gt;&lt;div style=&quot;forced-color-adjust: none; color: rgb(0, 0, 0); font-family: Helvetica; font-size: 20px; font-style: normal; font-variant-ligatures: normal; font-variant-caps: normal; font-weight: 400; letter-spacing: normal; orphans: 2; text-align: left; text-indent: 0px; text-transform: none; widows: 2; word-spacing: 0px; -webkit-text-stroke-width: 0px; white-space: normal; text-decoration-thickness: initial; text-decoration-style: initial; text-decoration-color: initial;&quot;&gt;&lt;br&gt;&lt;/div&gt;&lt;div style=&quot;forced-color-adjust: none; color: rgb(0, 0, 0); font-family: Helvetica; font-size: 20px; font-style: normal; font-variant-ligatures: normal; font-variant-caps: normal; font-weight: 400; letter-spacing: normal; orphans: 2; text-align: left; text-indent: 0px; text-transform: none; widows: 2; word-spacing: 0px; -webkit-text-stroke-width: 0px; white-space: normal; text-decoration-thickness: initial; text-decoration-style: initial; text-decoration-color: initial;&quot;&gt;&lt;br&gt;&lt;/div&gt;&lt;div style=&quot;forced-color-adjust: none; color: rgb(0, 0, 0); font-family: Helvetica; font-size: 20px; font-style: normal; font-variant-ligatures: normal; font-variant-caps: normal; font-weight: 400; letter-spacing: normal; orphans: 2; text-align: left; text-indent: 0px; text-transform: none; widows: 2; word-spacing: 0px; -webkit-text-stroke-width: 0px; white-space: normal; text-decoration-thickness: initial; text-decoration-style: initial; text-decoration-color: initial;&quot;&gt;&lt;br&gt;&lt;/div&gt;&lt;div style=&quot;forced-color-adjust: none; color: rgb(0, 0, 0); font-family: Helvetica; font-size: 20px; font-style: normal; font-variant-ligatures: normal; font-variant-caps: normal; font-weight: 400; letter-spacing: normal; orphans: 2; text-align: left; text-indent: 0px; text-transform: none; widows: 2; word-spacing: 0px; -webkit-text-stroke-width: 0px; white-space: normal; text-decoration-thickness: initial; text-decoration-style: initial; text-decoration-color: initial;&quot;&gt;&lt;br&gt;&lt;/div&gt;&lt;div style=&quot;forced-color-adjust: none; color: rgb(0, 0, 0); font-family: Helvetica; font-size: 20px; font-style: normal; font-variant-ligatures: normal; font-variant-caps: normal; font-weight: 400; letter-spacing: normal; orphans: 2; text-align: left; text-indent: 0px; text-transform: none; widows: 2; word-spacing: 0px; -webkit-text-stroke-width: 0px; white-space: normal; text-decoration-thickness: initial; text-decoration-style: initial; text-decoration-color: initial;&quot;&gt;&lt;br&gt;&lt;/div&gt;&lt;div style=&quot;forced-color-adjust: none; color: rgb(0, 0, 0); font-family: Helvetica; font-size: 20px; font-style: normal; font-variant-ligatures: normal; font-variant-caps: normal; font-weight: 400; letter-spacing: normal; orphans: 2; text-align: left; text-indent: 0px; text-transform: none; widows: 2; word-spacing: 0px; -webkit-text-stroke-width: 0px; white-space: normal; text-decoration-thickness: initial; text-decoration-style: initial; text-decoration-color: initial;&quot;&gt;&lt;br&gt;&lt;/div&gt;&lt;div style=&quot;forced-color-adjust: none; color: rgb(0, 0, 0); font-family: Helvetica; font-size: 20px; font-style: normal; font-variant-ligatures: normal; font-variant-caps: normal; font-weight: 400; letter-spacing: normal; orphans: 2; text-align: left; text-indent: 0px; text-transform: none; widows: 2; word-spacing: 0px; -webkit-text-stroke-width: 0px; white-space: normal; text-decoration-thickness: initial; text-decoration-style: initial; text-decoration-color: initial;&quot;&gt;&lt;br&gt;&lt;/div&gt;&lt;div style=&quot;forced-color-adjust: none; color: rgb(0, 0, 0); font-family: Helvetica; font-size: 20px; font-style: normal; font-variant-ligatures: normal; font-variant-caps: normal; font-weight: 400; letter-spacing: normal; orphans: 2; text-align: left; text-indent: 0px; text-transform: none; widows: 2; word-spacing: 0px; -webkit-text-stroke-width: 0px; white-space: normal; text-decoration-thickness: initial; text-decoration-style: initial; text-decoration-color: initial;&quot;&gt;&lt;br&gt;&lt;/div&gt;&lt;div style=&quot;forced-color-adjust: none; color: rgb(0, 0, 0); font-family: Helvetica; font-size: 20px; font-style: normal; font-variant-ligatures: normal; font-variant-caps: normal; font-weight: 400; letter-spacing: normal; orphans: 2; text-align: left; text-indent: 0px; text-transform: none; widows: 2; word-spacing: 0px; -webkit-text-stroke-width: 0px; white-space: normal; text-decoration-thickness: initial; text-decoration-style: initial; text-decoration-color: initial;&quot;&gt;&lt;br&gt;&lt;/div&gt;&lt;div style=&quot;forced-color-adjust: none; color: rgb(0, 0, 0); font-family: Helvetica; font-size: 20px; font-style: normal; font-variant-ligatures: normal; font-variant-caps: normal; font-weight: 400; letter-spacing: normal; orphans: 2; text-align: left; text-indent: 0px; text-transform: none; widows: 2; word-spacing: 0px; -webkit-text-stroke-width: 0px; white-space: normal; text-decoration-thickness: initial; text-decoration-style: initial; text-decoration-color: initial;&quot;&gt;&lt;br&gt;&lt;/div&gt;&lt;div style=&quot;forced-color-adjust: none; color: rgb(0, 0, 0); font-family: Helvetica; font-size: 20px; font-style: normal; font-variant-ligatures: normal; font-variant-caps: normal; font-weight: 400; letter-spacing: normal; orphans: 2; text-align: left; text-indent: 0px; text-transform: none; widows: 2; word-spacing: 0px; -webkit-text-stroke-width: 0px; white-space: normal; text-decoration-thickness: initial; text-decoration-style: initial; text-decoration-color: initial;&quot;&gt;&lt;br&gt;&lt;/div&gt;&lt;div style=&quot;forced-color-adjust: none; color: rgb(0, 0, 0); font-family: Helvetica; font-size: 20px; font-style: normal; font-variant-ligatures: normal; font-variant-caps: normal; font-weight: 400; letter-spacing: normal; orphans: 2; text-align: left; text-indent: 0px; text-transform: none; widows: 2; word-spacing: 0px; -webkit-text-stroke-width: 0px; white-space: normal; text-decoration-thickness: initial; text-decoration-style: initial; text-decoration-color: initial;&quot;&gt;&lt;br&gt;&lt;/div&gt;&lt;div style=&quot;forced-color-adjust: none; color: rgb(0, 0, 0); font-family: Helvetica; font-size: 20px; font-style: normal; font-variant-ligatures: normal; font-variant-caps: normal; font-weight: 400; letter-spacing: normal; orphans: 2; text-align: left; text-indent: 0px; text-transform: none; widows: 2; word-spacing: 0px; -webkit-text-stroke-width: 0px; white-space: normal; text-decoration-thickness: initial; text-decoration-style: initial; text-decoration-color: initial;&quot;&gt;&lt;br&gt;&lt;/div&gt;&lt;div style=&quot;forced-color-adjust: none; color: rgb(0, 0, 0); font-family: Helvetica; font-size: 20px; font-style: normal; font-variant-ligatures: normal; font-variant-caps: normal; font-weight: 400; letter-spacing: normal; orphans: 2; text-align: left; text-indent: 0px; text-transform: none; widows: 2; word-spacing: 0px; -webkit-text-stroke-width: 0px; white-space: normal; text-decoration-thickness: initial; text-decoration-style: initial; text-decoration-color: initial;&quot;&gt;&lt;br&gt;&lt;/div&gt;&lt;div style=&quot;forced-color-adjust: none; color: rgb(0, 0, 0); font-family: Helvetica; font-size: 20px; font-style: normal; font-variant-ligatures: normal; font-variant-caps: normal; font-weight: 400; letter-spacing: normal; orphans: 2; text-align: left; text-indent: 0px; text-transform: none; widows: 2; word-spacing: 0px; -webkit-text-stroke-width: 0px; white-space: normal; text-decoration-thickness: initial; text-decoration-style: initial; text-decoration-color: initial;&quot;&gt;&lt;br&gt;&lt;/div&gt;&lt;div style=&quot;forced-color-adjust: none; color: rgb(0, 0, 0); font-family: Helvetica; font-size: 20px; font-style: normal; font-variant-ligatures: normal; font-variant-caps: normal; font-weight: 400; letter-spacing: normal; orphans: 2; text-align: left; text-indent: 0px; text-transform: none; widows: 2; word-spacing: 0px; -webkit-text-stroke-width: 0px; white-space: normal; text-decoration-thickness: initial; text-decoration-style: initial; text-decoration-color: initial;&quot;&gt;&lt;br&gt;&lt;/div&gt;&lt;div style=&quot;forced-color-adjust: none; color: rgb(0, 0, 0); font-family: Helvetica; font-size: 20px; font-style: normal; font-variant-ligatures: normal; font-variant-caps: normal; font-weight: 400; letter-spacing: normal; orphans: 2; text-align: left; text-indent: 0px; text-transform: none; widows: 2; word-spacing: 0px; -webkit-text-stroke-width: 0px; white-space: normal; text-decoration-thickness: initial; text-decoration-style: initial; text-decoration-color: initial;&quot;&gt;&lt;br&gt;&lt;/div&gt;&lt;div style=&quot;forced-color-adjust: none; color: rgb(0, 0, 0); font-family: Helvetica; font-size: 20px; font-style: normal; font-variant-ligatures: normal; font-variant-caps: normal; font-weight: 400; letter-spacing: normal; orphans: 2; text-align: left; text-indent: 0px; text-transform: none; widows: 2; word-spacing: 0px; -webkit-text-stroke-width: 0px; white-space: normal; text-decoration-thickness: initial; text-decoration-style: initial; text-decoration-color: initial;&quot;&gt;&lt;br&gt;&lt;/div&gt;&lt;div style=&quot;forced-color-adjust: none; color: rgb(0, 0, 0); font-family: Helvetica; font-size: 20px; font-style: normal; font-variant-ligatures: normal; font-variant-caps: normal; font-weight: 400; letter-spacing: normal; orphans: 2; text-align: left; text-indent: 0px; text-transform: none; widows: 2; word-spacing: 0px; -webkit-text-stroke-width: 0px; white-space: normal; text-decoration-thickness: initial; text-decoration-style: initial; text-decoration-color: initial;&quot;&gt;}&lt;/div&gt;" style="text;whiteSpace=wrap;html=1;strokeColor=default;spacing=10;fillColor=none;" vertex="1" parent="_3at-q2v9w0iWCzONIYG-16">
          <mxGeometry x="48.55" y="279" width="959.45" height="1753" as="geometry" />
        </mxCell>
        <UserObject label="&lt;div style=&quot;line-height: 19px;&quot;&gt;&lt;div style=&quot;font-family: Consolas, &amp;quot;Courier New&amp;quot;, monospace; font-size: 14px; font-weight: normal; white-space: pre; color: rgb(204, 204, 204);&quot;&gt;&lt;span style=&quot;color: #6a9955;&quot;&gt;      //lesson 40 acknowlege functions - ackCallBack()&lt;/span&gt;&lt;/div&gt;&lt;div style=&quot;font-family: Consolas, &amp;quot;Courier New&amp;quot;, monospace; font-size: 14px; font-weight: normal; white-space: pre;&quot;&gt;&lt;span style=&quot;color: rgb(204, 204, 204);&quot;&gt;&amp;nbsp; &amp;nbsp; &amp;nbsp; &lt;/span&gt;&lt;span style=&quot;color: rgb(156, 220, 254);&quot;&gt;socket&lt;/span&gt;&lt;span style=&quot;color: rgb(204, 204, 204);&quot;&gt;.&lt;/span&gt;&lt;span style=&quot;color: rgb(220, 220, 170);&quot;&gt;on&lt;/span&gt;&lt;span style=&quot;color: rgb(204, 204, 204);&quot;&gt;(&lt;/span&gt;&lt;span style=&quot;color: rgb(206, 145, 120);&quot;&gt;&quot;joinRoom&quot;&lt;/span&gt;&lt;span style=&quot;color: rgb(204, 204, 204);&quot;&gt;, &lt;/span&gt;&lt;span style=&quot;color: rgb(86, 156, 214);&quot;&gt;async&lt;/span&gt;&lt;span style=&quot;color: rgb(204, 204, 204);&quot;&gt; (&lt;/span&gt;&lt;span style=&quot;color: rgb(156, 220, 254);&quot;&gt;roomObj&lt;/span&gt;&lt;span style=&quot;color: rgb(204, 204, 204);&quot;&gt;, &lt;/span&gt;&lt;span style=&quot;background-color: rgb(255, 255, 0);&quot;&gt;ackCallback&lt;/span&gt;&lt;span style=&quot;color: rgb(204, 204, 204);&quot;&gt;) &lt;/span&gt;&lt;span style=&quot;color: rgb(86, 156, 214);&quot;&gt;=&amp;gt;&lt;/span&gt;&lt;span style=&quot;color: rgb(204, 204, 204);&quot;&gt; {&lt;/span&gt;&lt;/div&gt;&lt;div style=&quot;font-family: Consolas, &amp;quot;Courier New&amp;quot;, monospace; font-size: 14px; font-weight: normal; white-space: pre; color: rgb(204, 204, 204);&quot;&gt;&lt;span style=&quot;color: #cccccc;&quot;&gt;&amp;nbsp; &amp;nbsp; &amp;nbsp; &amp;nbsp; &lt;/span&gt;&lt;span style=&quot;color: #6a9955;&quot;&gt;//need to fetch the history&lt;/span&gt;&lt;/div&gt;&lt;div style=&quot;font-family: Consolas, &amp;quot;Courier New&amp;quot;, monospace; font-size: 14px; white-space: pre;&quot;&gt;&lt;span style=&quot;font-weight: normal; color: rgb(204, 204, 204);&quot;&gt;&amp;nbsp; &amp;nbsp; &amp;nbsp; &amp;nbsp; &lt;/span&gt;&lt;span style=&quot;font-weight: normal; color: rgb(86, 156, 214);&quot;&gt;const&lt;/span&gt;&lt;span style=&quot;font-weight: normal; color: rgb(204, 204, 204);&quot;&gt; &lt;/span&gt;&lt;span style=&quot;font-weight: normal; color: rgb(79, 193, 255);&quot;&gt;thisNs&lt;/span&gt;&lt;span style=&quot;font-weight: normal; color: rgb(204, 204, 204);&quot;&gt; &lt;/span&gt;&lt;span style=&quot;font-weight: normal; color: rgb(212, 212, 212);&quot;&gt;=&lt;/span&gt;&lt;span style=&quot;font-weight: normal; color: rgb(204, 204, 204);&quot;&gt; &lt;/span&gt;&lt;font style=&quot;&quot; color=&quot;#ff8000&quot;&gt;&lt;b&gt;namespaces&lt;/b&gt;&lt;/font&gt;&lt;span style=&quot;font-weight: normal; color: rgb(204, 204, 204);&quot;&gt;[&lt;/span&gt;&lt;span style=&quot;font-weight: normal; color: rgb(156, 220, 254);&quot;&gt;roomObj&lt;/span&gt;&lt;span style=&quot;font-weight: normal; color: rgb(204, 204, 204);&quot;&gt;.&lt;/span&gt;&lt;span style=&quot;font-weight: normal; background-color: rgb(0, 255, 255);&quot;&gt;&lt;font color=&quot;#33001a&quot;&gt;namespaceId&lt;/font&gt;&lt;/span&gt;&lt;span style=&quot;font-weight: normal; color: rgb(204, 204, 204);&quot;&gt;];&lt;/span&gt;&lt;/div&gt;&lt;font style=&quot;font-family: Consolas, &amp;quot;Courier New&amp;quot;, monospace; font-size: 14px; font-weight: normal; white-space: pre;&quot; color=&quot;#cccccc&quot;&gt;&lt;br&gt;&lt;/font&gt;&lt;div style=&quot;font-family: Consolas, &amp;quot;Courier New&amp;quot;, monospace; font-size: 14px; font-weight: normal; white-space: pre; color: rgb(204, 204, 204);&quot;&gt;&lt;span style=&quot;color: #cccccc;&quot;&gt;&amp;nbsp; &amp;nbsp; &amp;nbsp; &amp;nbsp; &lt;/span&gt;&lt;span style=&quot;color: #6a9955;&quot;&gt;//roomInstance&lt;/span&gt;&lt;/div&gt;&lt;div style=&quot;font-family: Consolas, &amp;quot;Courier New&amp;quot;, monospace; font-size: 14px; font-weight: normal; white-space: pre; color: rgb(204, 204, 204);&quot;&gt;&lt;span style=&quot;color: #cccccc;&quot;&gt;&amp;nbsp; &amp;nbsp; &amp;nbsp; &amp;nbsp; &lt;/span&gt;&lt;span style=&quot;color: #569cd6;&quot;&gt;const&lt;/span&gt;&lt;span style=&quot;color: #cccccc;&quot;&gt; &lt;/span&gt;&lt;span style=&quot;color: #4fc1ff;&quot;&gt;thisRoomObj&lt;/span&gt;&lt;span style=&quot;color: #cccccc;&quot;&gt; &lt;/span&gt;&lt;span style=&quot;color: #d4d4d4;&quot;&gt;=&lt;/span&gt;&lt;span style=&quot;color: #cccccc;&quot;&gt; &lt;/span&gt;&lt;span style=&quot;color: #4fc1ff;&quot;&gt;thisNs&lt;/span&gt;&lt;span style=&quot;color: #cccccc;&quot;&gt;.&lt;/span&gt;&lt;span style=&quot;color: #9cdcfe;&quot;&gt;rooms&lt;/span&gt;&lt;span style=&quot;color: #cccccc;&quot;&gt;.&lt;/span&gt;&lt;span style=&quot;color: #dcdcaa;&quot;&gt;find&lt;/span&gt;&lt;span style=&quot;color: #cccccc;&quot;&gt;(&lt;/span&gt;&lt;/div&gt;&lt;div style=&quot;font-family: Consolas, &amp;quot;Courier New&amp;quot;, monospace; font-size: 14px; font-weight: normal; white-space: pre; color: rgb(204, 204, 204);&quot;&gt;&lt;span style=&quot;color: #cccccc;&quot;&gt;&amp;nbsp; &amp;nbsp; &amp;nbsp; &amp;nbsp; &amp;nbsp; (&lt;/span&gt;&lt;span style=&quot;color: #9cdcfe;&quot;&gt;room&lt;/span&gt;&lt;span style=&quot;color: #cccccc;&quot;&gt;) &lt;/span&gt;&lt;span style=&quot;color: #569cd6;&quot;&gt;=&amp;gt;&lt;/span&gt;&lt;span style=&quot;color: #cccccc;&quot;&gt; &lt;/span&gt;&lt;span style=&quot;color: #9cdcfe;&quot;&gt;room&lt;/span&gt;&lt;span style=&quot;color: #cccccc;&quot;&gt;.&lt;/span&gt;&lt;span style=&quot;color: #9cdcfe;&quot;&gt;roomTitle&lt;/span&gt;&lt;span style=&quot;color: #cccccc;&quot;&gt; &lt;/span&gt;&lt;span style=&quot;color: #d4d4d4;&quot;&gt;===&lt;/span&gt;&lt;span style=&quot;color: #cccccc;&quot;&gt; &lt;/span&gt;&lt;span style=&quot;color: #9cdcfe;&quot;&gt;roomObj&lt;/span&gt;&lt;span style=&quot;color: #cccccc;&quot;&gt;.&lt;/span&gt;&lt;span style=&quot;color: #9cdcfe;&quot;&gt;roomTitle&lt;/span&gt;&lt;/div&gt;&lt;div style=&quot;font-family: Consolas, &amp;quot;Courier New&amp;quot;, monospace; font-size: 14px; font-weight: normal; white-space: pre; color: rgb(204, 204, 204);&quot;&gt;&lt;span style=&quot;color: #cccccc;&quot;&gt;&amp;nbsp; &amp;nbsp; &amp;nbsp; &amp;nbsp; );&lt;/span&gt;&lt;/div&gt;&lt;font style=&quot;font-family: Consolas, &amp;quot;Courier New&amp;quot;, monospace; font-size: 14px; font-weight: normal; white-space: pre;&quot; color=&quot;#cccccc&quot;&gt;&lt;br&gt;&lt;/font&gt;&lt;div style=&quot;font-family: Consolas, &amp;quot;Courier New&amp;quot;, monospace; font-size: 14px; font-weight: normal; white-space: pre; color: rgb(204, 204, 204);&quot;&gt;&lt;span style=&quot;color: #cccccc;&quot;&gt;&amp;nbsp; &amp;nbsp; &amp;nbsp; &amp;nbsp; &lt;/span&gt;&lt;span style=&quot;color: #569cd6;&quot;&gt;const&lt;/span&gt;&lt;span style=&quot;color: #cccccc;&quot;&gt; &lt;/span&gt;&lt;span style=&quot;color: #4fc1ff;&quot;&gt;thisRoomsHistory&lt;/span&gt;&lt;span style=&quot;color: #cccccc;&quot;&gt; &lt;/span&gt;&lt;span style=&quot;color: #d4d4d4;&quot;&gt;=&lt;/span&gt;&lt;span style=&quot;color: #cccccc;&quot;&gt; &lt;/span&gt;&lt;span style=&quot;color: #4fc1ff;&quot;&gt;thisRoomObj&lt;/span&gt;&lt;span style=&quot;color: #cccccc;&quot;&gt;.&lt;/span&gt;&lt;span style=&quot;color: #9cdcfe;&quot;&gt;history&lt;/span&gt;&lt;span style=&quot;color: #cccccc;&quot;&gt;;&lt;/span&gt;&lt;/div&gt;&lt;font style=&quot;font-family: Consolas, &amp;quot;Courier New&amp;quot;, monospace; font-size: 14px; font-weight: normal; white-space: pre;&quot; color=&quot;#cccccc&quot;&gt;&lt;br&gt;&lt;/font&gt;&lt;div style=&quot;font-family: Consolas, &amp;quot;Courier New&amp;quot;, monospace; font-size: 14px; font-weight: normal; white-space: pre; color: rgb(204, 204, 204);&quot;&gt;&lt;span style=&quot;color: #cccccc;&quot;&gt;&amp;nbsp; &amp;nbsp; &amp;nbsp; &amp;nbsp; &lt;/span&gt;&lt;span style=&quot;color: #6a9955;&quot;&gt;//leave all rooms, because the client can only be in one room&lt;/span&gt;&lt;/div&gt;&lt;div style=&quot;font-family: Consolas, &amp;quot;Courier New&amp;quot;, monospace; font-size: 14px; font-weight: normal; white-space: pre; color: rgb(204, 204, 204);&quot;&gt;&lt;span style=&quot;color: #cccccc;&quot;&gt;&amp;nbsp; &amp;nbsp; &amp;nbsp; &amp;nbsp; &lt;/span&gt;&lt;span style=&quot;color: #569cd6;&quot;&gt;const&lt;/span&gt;&lt;span style=&quot;color: #cccccc;&quot;&gt; &lt;/span&gt;&lt;span style=&quot;color: #4fc1ff;&quot;&gt;rooms&lt;/span&gt;&lt;span style=&quot;color: #cccccc;&quot;&gt; &lt;/span&gt;&lt;span style=&quot;color: #d4d4d4;&quot;&gt;=&lt;/span&gt;&lt;span style=&quot;color: #cccccc;&quot;&gt; &lt;/span&gt;&lt;span style=&quot;color: #9cdcfe;&quot;&gt;socket&lt;/span&gt;&lt;span style=&quot;color: #cccccc;&quot;&gt;.&lt;/span&gt;&lt;span style=&quot;color: #9cdcfe;&quot;&gt;rooms&lt;/span&gt;&lt;span style=&quot;color: #cccccc;&quot;&gt;; &lt;/span&gt;&lt;span style=&quot;color: #6a9955;&quot;&gt;//returns a Set()&lt;/span&gt;&lt;/div&gt;&lt;font style=&quot;font-family: Consolas, &amp;quot;Courier New&amp;quot;, monospace; font-size: 14px; font-weight: normal; white-space: pre;&quot; color=&quot;#cccccc&quot;&gt;&lt;br&gt;&lt;/font&gt;&lt;div style=&quot;font-family: Consolas, &amp;quot;Courier New&amp;quot;, monospace; font-size: 14px; font-weight: normal; white-space: pre; color: rgb(204, 204, 204);&quot;&gt;&lt;span style=&quot;color: #cccccc;&quot;&gt;&amp;nbsp; &amp;nbsp; &amp;nbsp; &amp;nbsp; &lt;/span&gt;&lt;span style=&quot;color: #6a9955;&quot;&gt;//you can also create a var i=0, then increment i++&lt;/span&gt;&lt;/div&gt;&lt;div style=&quot;font-family: Consolas, &amp;quot;Courier New&amp;quot;, monospace; font-size: 14px; font-weight: normal; white-space: pre; color: rgb(204, 204, 204);&quot;&gt;&lt;span style=&quot;color: #cccccc;&quot;&gt;&amp;nbsp; &amp;nbsp; &amp;nbsp; &amp;nbsp; &lt;/span&gt;&lt;span style=&quot;color: #6a9955;&quot;&gt;//as forEach iterates in ascending order&lt;/span&gt;&lt;/div&gt;&lt;div style=&quot;font-family: Consolas, &amp;quot;Courier New&amp;quot;, monospace; font-size: 14px; font-weight: normal; white-space: pre; color: rgb(204, 204, 204);&quot;&gt;&lt;span style=&quot;color: #cccccc;&quot;&gt;&amp;nbsp; &amp;nbsp; &amp;nbsp; &amp;nbsp; &lt;/span&gt;&lt;span style=&quot;color: #4ec9b0;&quot;&gt;Array&lt;/span&gt;&lt;span style=&quot;color: #cccccc;&quot;&gt;.&lt;/span&gt;&lt;span style=&quot;color: #dcdcaa;&quot;&gt;from&lt;/span&gt;&lt;span style=&quot;color: #cccccc;&quot;&gt;(&lt;/span&gt;&lt;span style=&quot;color: #4fc1ff;&quot;&gt;rooms&lt;/span&gt;&lt;span style=&quot;color: #cccccc;&quot;&gt;).&lt;/span&gt;&lt;span style=&quot;color: #dcdcaa;&quot;&gt;forEach&lt;/span&gt;&lt;span style=&quot;color: #cccccc;&quot;&gt;((&lt;/span&gt;&lt;span style=&quot;color: #9cdcfe;&quot;&gt;room&lt;/span&gt;&lt;span style=&quot;color: #cccccc;&quot;&gt;, &lt;/span&gt;&lt;span style=&quot;color: #9cdcfe;&quot;&gt;index&lt;/span&gt;&lt;span style=&quot;color: #cccccc;&quot;&gt;) &lt;/span&gt;&lt;span style=&quot;color: #569cd6;&quot;&gt;=&amp;gt;&lt;/span&gt;&lt;span style=&quot;color: #cccccc;&quot;&gt; {&lt;/span&gt;&lt;/div&gt;&lt;div style=&quot;font-family: Consolas, &amp;quot;Courier New&amp;quot;, monospace; font-size: 14px; font-weight: normal; white-space: pre; color: rgb(204, 204, 204);&quot;&gt;&lt;span style=&quot;color: #cccccc;&quot;&gt;&amp;nbsp; &amp;nbsp; &amp;nbsp; &amp;nbsp; &amp;nbsp; &lt;/span&gt;&lt;span style=&quot;color: #6a9955;&quot;&gt;//we dont want to leave the sockets personal room which is guaranteed to be first&lt;/span&gt;&lt;/div&gt;&lt;div style=&quot;font-family: Consolas, &amp;quot;Courier New&amp;quot;, monospace; font-size: 14px; font-weight: normal; white-space: pre; color: rgb(204, 204, 204);&quot;&gt;&lt;span style=&quot;color: #cccccc;&quot;&gt;&amp;nbsp; &amp;nbsp; &amp;nbsp; &amp;nbsp; &amp;nbsp; &lt;/span&gt;&lt;span style=&quot;color: #c586c0;&quot;&gt;if&lt;/span&gt;&lt;span style=&quot;color: #cccccc;&quot;&gt; (&lt;/span&gt;&lt;span style=&quot;color: #9cdcfe;&quot;&gt;index&lt;/span&gt;&lt;span style=&quot;color: #cccccc;&quot;&gt; &lt;/span&gt;&lt;span style=&quot;color: #d4d4d4;&quot;&gt;!==&lt;/span&gt;&lt;span style=&quot;color: #cccccc;&quot;&gt; &lt;/span&gt;&lt;span style=&quot;color: #b5cea8;&quot;&gt;0&lt;/span&gt;&lt;span style=&quot;color: #cccccc;&quot;&gt;) {&lt;/span&gt;&lt;/div&gt;&lt;div style=&quot;font-family: Consolas, &amp;quot;Courier New&amp;quot;, monospace; font-size: 14px; font-weight: normal; white-space: pre; color: rgb(204, 204, 204);&quot;&gt;&lt;span style=&quot;color: #cccccc;&quot;&gt;&amp;nbsp; &amp;nbsp; &amp;nbsp; &amp;nbsp; &amp;nbsp; &amp;nbsp; &lt;/span&gt;&lt;span style=&quot;color: #9cdcfe;&quot;&gt;socket&lt;/span&gt;&lt;span style=&quot;color: #cccccc;&quot;&gt;.&lt;/span&gt;&lt;span style=&quot;color: #dcdcaa;&quot;&gt;leave&lt;/span&gt;&lt;span style=&quot;color: #cccccc;&quot;&gt;(&lt;/span&gt;&lt;span style=&quot;color: #9cdcfe;&quot;&gt;room&lt;/span&gt;&lt;span style=&quot;color: #cccccc;&quot;&gt;);&lt;/span&gt;&lt;/div&gt;&lt;div style=&quot;font-family: Consolas, &amp;quot;Courier New&amp;quot;, monospace; font-size: 14px; font-weight: normal; white-space: pre; color: rgb(204, 204, 204);&quot;&gt;&lt;span style=&quot;color: #cccccc;&quot;&gt;&amp;nbsp; &amp;nbsp; &amp;nbsp; &amp;nbsp; &amp;nbsp; }&lt;/span&gt;&lt;/div&gt;&lt;div style=&quot;font-family: Consolas, &amp;quot;Courier New&amp;quot;, monospace; font-size: 14px; font-weight: normal; white-space: pre; color: rgb(204, 204, 204);&quot;&gt;&lt;span style=&quot;color: #cccccc;&quot;&gt;&amp;nbsp; &amp;nbsp; &amp;nbsp; &amp;nbsp; });&lt;/span&gt;&lt;/div&gt;&lt;font style=&quot;font-family: Consolas, &amp;quot;Courier New&amp;quot;, monospace; font-size: 14px; font-weight: normal; white-space: pre;&quot; color=&quot;#cccccc&quot;&gt;&lt;br&gt;&lt;/font&gt;&lt;div style=&quot;font-family: Consolas, &amp;quot;Courier New&amp;quot;, monospace; font-size: 14px; font-weight: normal; white-space: pre; color: rgb(204, 204, 204);&quot;&gt;&lt;span style=&quot;color: #cccccc;&quot;&gt;&amp;nbsp; &amp;nbsp; &amp;nbsp; &amp;nbsp; &lt;/span&gt;&lt;span style=&quot;color: #6a9955;&quot;&gt;//join the room&lt;/span&gt;&lt;/div&gt;&lt;div style=&quot;font-family: Consolas, &amp;quot;Courier New&amp;quot;, monospace; font-size: 14px; font-weight: normal; white-space: pre; color: rgb(204, 204, 204);&quot;&gt;&lt;span style=&quot;color: #cccccc;&quot;&gt;&amp;nbsp; &amp;nbsp; &amp;nbsp; &amp;nbsp; &lt;/span&gt;&lt;span style=&quot;color: #6a9955;&quot;&gt;//NOTE: roomTitle is coming from CLIENT (Not safe) - do auth so user (socket) has right to join room&lt;/span&gt;&lt;/div&gt;&lt;div style=&quot;font-family: Consolas, &amp;quot;Courier New&amp;quot;, monospace; font-size: 14px; font-weight: normal; white-space: pre;&quot;&gt;&lt;span style=&quot;color: rgb(204, 204, 204);&quot;&gt;&amp;nbsp; &amp;nbsp; &amp;nbsp; &amp;nbsp; &lt;/span&gt;&lt;span style=&quot;color: rgb(156, 220, 254);&quot;&gt;socket&lt;/span&gt;&lt;span style=&quot;color: rgb(204, 204, 204);&quot;&gt;.&lt;/span&gt;&lt;span style=&quot;color: rgb(220, 220, 170);&quot;&gt;join&lt;/span&gt;&lt;span style=&quot;color: rgb(204, 204, 204);&quot;&gt;(&lt;/span&gt;&lt;span style=&quot;color: rgb(156, 220, 254);&quot;&gt;roomObj&lt;/span&gt;&lt;span style=&quot;color: rgb(204, 204, 204);&quot;&gt;.&lt;/span&gt;&lt;span style=&quot;color: rgb(156, 220, 254);&quot;&gt;roomTitle&lt;/span&gt;&lt;span style=&quot;color: rgb(204, 204, 204);&quot;&gt;); &lt;/span&gt;&lt;font color=&quot;#66cc00&quot;&gt;//&lt;span style=&quot;background-color: initial; font-family: Helvetica; font-size: 12px; white-space: normal;&quot;&gt;The parameter passed to &lt;/span&gt;&lt;code style=&quot;background-color: initial; font-size: 12px; white-space: normal;&quot;&gt;socket.join()&lt;/code&gt;&lt;span style=&quot;background-color: initial; font-family: Helvetica; font-size: 12px; white-space: normal;&quot;&gt; must be a string that identifies the room.&lt;/span&gt;&lt;/font&gt;&lt;/div&gt;&lt;font style=&quot;font-family: Consolas, &amp;quot;Courier New&amp;quot;, monospace; font-size: 14px; font-weight: normal; white-space: pre;&quot; color=&quot;#cccccc&quot;&gt;&lt;br&gt;&lt;/font&gt;&lt;div style=&quot;font-family: Consolas, &amp;quot;Courier New&amp;quot;, monospace; font-size: 14px; font-weight: normal; white-space: pre; color: rgb(204, 204, 204);&quot;&gt;&lt;span style=&quot;color: #cccccc;&quot;&gt;&amp;nbsp; &amp;nbsp; &amp;nbsp; &amp;nbsp; &lt;/span&gt;&lt;span style=&quot;color: #6a9955;&quot;&gt;//fetch the number of sockets in this room&lt;/span&gt;&lt;/div&gt;&lt;div style=&quot;font-family: Consolas, &amp;quot;Courier New&amp;quot;, monospace; font-size: 14px; font-weight: normal; white-space: pre; color: rgb(204, 204, 204);&quot;&gt;&lt;span style=&quot;color: #cccccc;&quot;&gt;&amp;nbsp; &amp;nbsp; &amp;nbsp; &amp;nbsp; &lt;/span&gt;&lt;span style=&quot;color: #569cd6;&quot;&gt;const&lt;/span&gt;&lt;span style=&quot;color: #cccccc;&quot;&gt; &lt;/span&gt;&lt;span style=&quot;color: #4fc1ff;&quot;&gt;sockets&lt;/span&gt;&lt;span style=&quot;color: #cccccc;&quot;&gt; &lt;/span&gt;&lt;span style=&quot;color: #d4d4d4;&quot;&gt;=&lt;/span&gt;&lt;span style=&quot;color: #cccccc;&quot;&gt; &lt;/span&gt;&lt;span style=&quot;color: #c586c0;&quot;&gt;await&lt;/span&gt;&lt;span style=&quot;color: #cccccc;&quot;&gt; &lt;/span&gt;&lt;span style=&quot;color: #9cdcfe;&quot;&gt;io&lt;/span&gt;&lt;/div&gt;&lt;div style=&quot;font-family: Consolas, &amp;quot;Courier New&amp;quot;, monospace; font-size: 14px; white-space: pre;&quot;&gt;&lt;span style=&quot;font-weight: normal; color: rgb(204, 204, 204);&quot;&gt;&amp;nbsp; &amp;nbsp; &amp;nbsp; &amp;nbsp; &amp;nbsp; .&lt;/span&gt;&lt;span style=&quot;font-weight: normal; color: rgb(220, 220, 170);&quot;&gt;of&lt;/span&gt;&lt;span style=&quot;font-weight: normal; color: rgb(204, 204, 204);&quot;&gt;(&lt;/span&gt;&lt;font style=&quot;&quot; color=&quot;#ff8000&quot;&gt;&lt;b&gt;namespace&lt;/b&gt;&lt;/font&gt;&lt;span style=&quot;font-weight: normal; color: rgb(204, 204, 204);&quot;&gt;.&lt;/span&gt;&lt;span style=&quot;font-weight: normal; color: rgb(156, 220, 254);&quot;&gt;endpoint&lt;/span&gt;&lt;span style=&quot;font-weight: normal; color: rgb(204, 204, 204);&quot;&gt;)&lt;/span&gt;&lt;/div&gt;&lt;div style=&quot;font-family: Consolas, &amp;quot;Courier New&amp;quot;, monospace; font-size: 14px; font-weight: normal; white-space: pre; color: rgb(204, 204, 204);&quot;&gt;&lt;span style=&quot;color: #cccccc;&quot;&gt;&amp;nbsp; &amp;nbsp; &amp;nbsp; &amp;nbsp; &amp;nbsp; .&lt;/span&gt;&lt;span style=&quot;color: #dcdcaa;&quot;&gt;in&lt;/span&gt;&lt;span style=&quot;color: #cccccc;&quot;&gt;(&lt;/span&gt;&lt;span style=&quot;color: #9cdcfe;&quot;&gt;roomObj&lt;/span&gt;&lt;span style=&quot;color: #cccccc;&quot;&gt;.&lt;/span&gt;&lt;span style=&quot;color: #9cdcfe;&quot;&gt;roomTitle&lt;/span&gt;&lt;span style=&quot;color: #cccccc;&quot;&gt;)&lt;/span&gt;&lt;/div&gt;&lt;div style=&quot;font-family: Consolas, &amp;quot;Courier New&amp;quot;, monospace; font-size: 14px; font-weight: normal; white-space: pre; color: rgb(204, 204, 204);&quot;&gt;&lt;span style=&quot;color: #cccccc;&quot;&gt;&amp;nbsp; &amp;nbsp; &amp;nbsp; &amp;nbsp; &amp;nbsp; .&lt;/span&gt;&lt;span style=&quot;color: #dcdcaa;&quot;&gt;fetchSockets&lt;/span&gt;&lt;span style=&quot;color: #cccccc;&quot;&gt;();&lt;/span&gt;&lt;/div&gt;&lt;div style=&quot;font-family: Consolas, &amp;quot;Courier New&amp;quot;, monospace; font-size: 14px; font-weight: normal; white-space: pre; color: rgb(204, 204, 204);&quot;&gt;&lt;span style=&quot;color: #cccccc;&quot;&gt;&lt;br&gt;&lt;/span&gt;&lt;/div&gt;&lt;div style=&quot;font-family: Consolas, &amp;quot;Courier New&amp;quot;, monospace; font-size: 14px; font-weight: normal; white-space: pre; color: rgb(204, 204, 204);&quot;&gt;&lt;span style=&quot;color: #cccccc;&quot;&gt;&amp;nbsp; &amp;nbsp; &amp;nbsp; &amp;nbsp; &lt;/span&gt;&lt;span style=&quot;color: #569cd6;&quot;&gt;const&lt;/span&gt;&lt;span style=&quot;color: #cccccc;&quot;&gt; &lt;/span&gt;&lt;span style=&quot;color: #4fc1ff;&quot;&gt;socketCount&lt;/span&gt;&lt;span style=&quot;color: #cccccc;&quot;&gt; &lt;/span&gt;&lt;span style=&quot;color: #d4d4d4;&quot;&gt;=&lt;/span&gt;&lt;span style=&quot;color: #cccccc;&quot;&gt; &lt;/span&gt;&lt;span style=&quot;color: #4fc1ff;&quot;&gt;sockets&lt;/span&gt;&lt;span style=&quot;color: #cccccc;&quot;&gt;.&lt;/span&gt;&lt;span style=&quot;color: #9cdcfe;&quot;&gt;length&lt;/span&gt;&lt;span style=&quot;color: #cccccc;&quot;&gt;;&lt;/span&gt;&lt;/div&gt;&lt;div style=&quot;font-family: Consolas, &amp;quot;Courier New&amp;quot;, monospace; font-size: 14px; font-weight: normal; white-space: pre; color: rgb(204, 204, 204);&quot;&gt;&lt;span style=&quot;color: #cccccc;&quot;&gt;&lt;br&gt;&lt;/span&gt;&lt;/div&gt;&lt;/div&gt;&lt;blockquote style=&quot;margin: 0 0 0 40px; border: none; padding: 0px;&quot;&gt;&lt;span style=&quot;background-color: rgb(102, 204, 0);&quot;&gt;After processing the joinRoom event on the server side, if the server wants to acknowledge the client&#39;s request or send a response back to the client,&amp;nbsp;&lt;/span&gt;&lt;div style=&quot;line-height: 19px;&quot;&gt;&lt;div style=&quot;&quot;&gt;&lt;span style=&quot;background-color: rgb(102, 204, 0);&quot;&gt;it can invoke &lt;font style=&quot;&quot; face=&quot;Consolas, Courier New, monospace&quot;&gt;&lt;span style=&quot;font-size: 14px; white-space: pre;&quot;&gt;ackCallback&lt;/span&gt;&lt;/font&gt; with necessary data.&lt;/span&gt;&lt;/div&gt;&lt;/div&gt;&lt;/blockquote&gt;&lt;div style=&quot;line-height: 19px;&quot;&gt;&lt;font style=&quot;font-family: Consolas, &amp;quot;Courier New&amp;quot;, monospace; font-size: 14px; font-weight: normal; white-space: pre;&quot; color=&quot;#cccccc&quot;&gt;&lt;br&gt;&lt;/font&gt;&lt;div style=&quot;font-family: Consolas, &amp;quot;Courier New&amp;quot;, monospace; font-size: 14px; font-weight: normal; white-space: pre;&quot;&gt;&lt;span style=&quot;color: rgb(204, 204, 204);&quot;&gt;&amp;nbsp; &amp;nbsp; &amp;nbsp; &amp;nbsp; &lt;/span&gt;&lt;span style=&quot;background-color: rgb(255, 255, 0);&quot;&gt;ackCallback&lt;/span&gt;&lt;span style=&quot;color: rgb(204, 204, 204);&quot;&gt;({&lt;/span&gt;&lt;/div&gt;&lt;div style=&quot;font-family: Consolas, &amp;quot;Courier New&amp;quot;, monospace; font-size: 14px; font-weight: normal; white-space: pre; color: rgb(204, 204, 204);&quot;&gt;&lt;span style=&quot;color: #cccccc;&quot;&gt;&amp;nbsp; &amp;nbsp; &amp;nbsp; &amp;nbsp; &amp;nbsp; &lt;/span&gt;&lt;span style=&quot;color: #9cdcfe;&quot;&gt;numUsers&lt;/span&gt;&lt;span style=&quot;color: #9cdcfe;&quot;&gt;:&lt;/span&gt;&lt;span style=&quot;color: #cccccc;&quot;&gt; &lt;/span&gt;&lt;span style=&quot;color: #4fc1ff;&quot;&gt;socketCount&lt;/span&gt;&lt;span style=&quot;color: #cccccc;&quot;&gt;,&lt;/span&gt;&lt;/div&gt;&lt;div style=&quot;font-family: Consolas, &amp;quot;Courier New&amp;quot;, monospace; font-size: 14px; font-weight: normal; white-space: pre; color: rgb(204, 204, 204);&quot;&gt;&lt;span style=&quot;color: #cccccc;&quot;&gt;&amp;nbsp; &amp;nbsp; &amp;nbsp; &amp;nbsp; &amp;nbsp; &lt;/span&gt;&lt;span style=&quot;color: #9cdcfe;&quot;&gt;thisRoomsHistory&lt;/span&gt;&lt;span style=&quot;color: #cccccc;&quot;&gt;,&lt;/span&gt;&lt;/div&gt;&lt;div style=&quot;font-family: Consolas, &amp;quot;Courier New&amp;quot;, monospace; font-size: 14px; font-weight: normal; white-space: pre; color: rgb(204, 204, 204);&quot;&gt;&lt;span style=&quot;color: #cccccc;&quot;&gt;&amp;nbsp; &amp;nbsp; &amp;nbsp; &amp;nbsp; });&lt;/span&gt;&lt;/div&gt;&lt;div style=&quot;font-family: Consolas, &amp;quot;Courier New&amp;quot;, monospace; font-size: 14px; font-weight: normal; white-space: pre; color: rgb(204, 204, 204);&quot;&gt;&lt;span style=&quot;color: #cccccc;&quot;&gt;&lt;br&gt;&lt;/span&gt;&lt;/div&gt;&lt;div style=&quot;font-family: Consolas, &amp;quot;Courier New&amp;quot;, monospace; font-size: 14px; font-weight: normal; white-space: pre; color: rgb(204, 204, 204);&quot;&gt;&lt;span style=&quot;color: #cccccc;&quot;&gt;&amp;nbsp; &amp;nbsp; &amp;nbsp;});&lt;/span&gt;&lt;/div&gt;&lt;/div&gt;&lt;div&gt;&lt;br&gt;&lt;/div&gt;" link="&lt;div style=&quot;forced-color-adjust: none; line-height: 19px;&quot;&gt;&lt;font style=&quot;forced-color-adjust: none; font-size: 20px;&quot;&gt;io.of(namespace.endpoint).on(&quot;connection&quot;, (socket) =&amp;gt; {&lt;/font&gt;&lt;/div&gt;&lt;div style=&quot;forced-color-adjust: none; line-height: 19px;&quot;&gt;&lt;br style=&quot;forced-color-adjust: none; color: rgb(0, 0, 0); font-family: Helvetica; font-size: 20px; font-style: normal; font-variant-ligatures: normal; font-variant-caps: normal; font-weight: 400; letter-spacing: normal; orphans: 2; text-align: left; text-indent: 0px; text-transform: none; widows: 2; word-spacing: 0px; -webkit-text-stroke-width: 0px; white-space: normal; background-color: rgb(255, 255, 255); text-decoration-thickness: initial; text-decoration-style: initial; text-decoration-color: initial;&quot;&gt;&#xa;&#xa;&lt;/div&gt;" id="_3at-q2v9w0iWCzONIYG-11">
          <mxCell style="text;whiteSpace=wrap;html=1;strokeColor=default;spacing=10;fillColor=#000000;" vertex="1" parent="_3at-q2v9w0iWCzONIYG-16">
            <mxGeometry x="73" y="336" width="935" height="893" as="geometry" />
          </mxCell>
        </UserObject>
        <UserObject label="&lt;div style=&quot;line-height: 19px;&quot;&gt;&lt;div style=&quot;font-size: 20px;&quot;&gt;&lt;b style=&quot;background-color: rgb(0, 255, 0);&quot;&gt;io&lt;/b&gt;&lt;span style=&quot;background-color: initial;&quot;&gt;.of(&lt;/span&gt;&lt;font style=&quot;background-color: initial;&quot; color=&quot;#ff8000&quot;&gt;&lt;b&gt;namespace&lt;/b&gt;&lt;/font&gt;&lt;span style=&quot;background-color: initial;&quot;&gt;.endpoint)&lt;/span&gt;&amp;nbsp;-&amp;gt; initializes a namespace in Socket.IO.&lt;/div&gt;&lt;div style=&quot;font-size: 20px;&quot;&gt;&lt;br&gt;&lt;/div&gt;&lt;div style=&quot;font-size: 20px;&quot;&gt;&lt;span style=&quot;background-color: initial;&quot;&gt;.of(&lt;/span&gt;&lt;font style=&quot;background-color: initial;&quot; color=&quot;#ff8000&quot;&gt;&lt;b&gt;namespace&lt;/b&gt;&lt;/font&gt;&lt;span style=&quot;background-color: initial;&quot;&gt;.endpoint)&lt;/span&gt;&lt;span style=&quot;background-color: initial;&quot;&gt;-&amp;gt; creates or retrieves a namespace based on the namespace and endpoint&lt;/span&gt;&lt;br&gt;&lt;/div&gt;&lt;div style=&quot;font-size: 20px;&quot;&gt;&lt;span style=&quot;background-color: initial;&quot;&gt;&lt;br&gt;&lt;/span&gt;&lt;/div&gt;&lt;div style=&quot;&quot;&gt;&lt;b style=&quot;background-color: rgb(255, 255, 0);&quot;&gt;ackCallback &lt;/b&gt;is a function that the client can optionally use to acknowledge receipt of the message or to send a response back to the server.&lt;span style=&quot;font-size: 20px; background-color: initial;&quot;&gt;&lt;br&gt;&lt;/span&gt;&lt;/div&gt;&lt;/div&gt;" link="&lt;div style=&quot;color: #cccccc;background-color: #1f1f1f;font-family: Consolas, &#39;Courier New&#39;, monospace;font-weight: normal;font-size: 14px;line-height: 19px;white-space: pre;&quot;&gt;&lt;div&gt;&lt;span style=&quot;color: #cccccc;&quot;&gt;&amp;nbsp;&lt;/span&gt;&lt;span style=&quot;color: #6a9955;&quot;&gt;// io.of(namespace.endpoint) -&amp;gt; initializes a namespace in Socket.IO.&lt;/span&gt;&lt;/div&gt;&lt;div&gt;&lt;span style=&quot;color: #cccccc;&quot;&gt;&amp;nbsp; &amp;nbsp; &lt;/span&gt;&lt;span style=&quot;color: #6a9955;&quot;&gt;//&#39;.of(namespace.endpoint)&#39; -&amp;gt; creates or retrieves a namespace based on the namespace and endpoint&lt;/span&gt;&lt;/div&gt;&lt;/div&gt;" id="_3at-q2v9w0iWCzONIYG-12">
          <mxCell style="text;whiteSpace=wrap;html=1;fontSize=20;" vertex="1" parent="_3at-q2v9w0iWCzONIYG-16">
            <mxGeometry x="11" y="69" width="1023" height="123" as="geometry" />
          </mxCell>
        </UserObject>
        <mxCell id="_3at-q2v9w0iWCzONIYG-15" value="&lt;div style=&quot;line-height: 19px;&quot;&gt;&lt;div style=&quot;font-family: Consolas, &amp;quot;Courier New&amp;quot;, monospace; font-size: 14px; font-weight: normal; white-space: pre;&quot;&gt;&lt;font style=&quot;&quot; color=&quot;#9cdcfe&quot;&gt; &lt;/font&gt;&lt;font style=&quot;&quot; color=&quot;#cccccc&quot;&gt;&amp;nbsp; &amp;nbsp; &lt;/font&gt;&lt;span style=&quot;color: rgb(204, 204, 204);&quot;&gt;&amp;nbsp; &lt;/span&gt;&lt;span style=&quot;color: rgb(156, 220, 254);&quot;&gt;socket&lt;/span&gt;&lt;span style=&quot;color: rgb(204, 204, 204);&quot;&gt;.&lt;/span&gt;&lt;span style=&quot;color: rgb(220, 220, 170);&quot;&gt;on&lt;/span&gt;&lt;span style=&quot;color: rgb(204, 204, 204);&quot;&gt;(&lt;/span&gt;&lt;span style=&quot;color: rgb(206, 145, 120);&quot;&gt;&quot;newMessageToRoom&quot;&lt;/span&gt;&lt;span style=&quot;color: rgb(204, 204, 204);&quot;&gt;, (&lt;/span&gt;&lt;span style=&quot;color: rgb(156, 220, 254);&quot;&gt;messageObj&lt;/span&gt;&lt;span style=&quot;color: rgb(204, 204, 204);&quot;&gt;) &lt;/span&gt;&lt;span style=&quot;color: rgb(86, 156, 214);&quot;&gt;=&amp;gt;&lt;/span&gt;&lt;span style=&quot;color: rgb(204, 204, 204);&quot;&gt; {&lt;/span&gt;&lt;/div&gt;&lt;div style=&quot;color: rgb(204, 204, 204); font-family: Consolas, &amp;quot;Courier New&amp;quot;, monospace; font-size: 14px; line-height: 19px; white-space: pre;&quot;&gt;&lt;div&gt;&lt;/div&gt;&lt;/div&gt;&lt;div style=&quot;font-family: Consolas, &amp;quot;Courier New&amp;quot;, monospace; font-size: 14px; font-weight: normal; white-space: pre;&quot;&gt;&lt;span style=&quot;background-color: initial;&quot;&gt;&lt;font color=&quot;#cccccc&quot;&gt;&amp;nbsp; &amp;nbsp; &lt;/font&gt;&lt;/span&gt;&lt;/div&gt;&lt;div style=&quot;font-family: Consolas, &amp;quot;Courier New&amp;quot;, monospace; font-size: 14px; font-weight: normal; white-space: pre;&quot;&gt;&lt;span style=&quot;color: rgb(156, 220, 254); background-color: initial;&quot;&gt;&lt;br&gt;&lt;/span&gt;&lt;/div&gt;&lt;div style=&quot;font-family: Consolas, &amp;quot;Courier New&amp;quot;, monospace; font-size: 14px; font-weight: normal; white-space: pre;&quot;&gt;&lt;span style=&quot;color: rgb(156, 220, 254); background-color: initial;&quot;&gt;        console&lt;/span&gt;&lt;span style=&quot;color: rgb(204, 204, 204); background-color: initial;&quot;&gt;.&lt;/span&gt;&lt;span style=&quot;color: rgb(220, 220, 170); background-color: initial;&quot;&gt;log&lt;/span&gt;&lt;span style=&quot;color: rgb(204, 204, 204); background-color: initial;&quot;&gt;(&lt;/span&gt;&lt;span style=&quot;color: rgb(206, 145, 120); background-color: initial;&quot;&gt;&quot;messageObj:&quot;&lt;/span&gt;&lt;span style=&quot;color: rgb(204, 204, 204); background-color: initial;&quot;&gt;, &lt;/span&gt;&lt;span style=&quot;color: rgb(156, 220, 254); background-color: initial;&quot;&gt;messageObj&lt;/span&gt;&lt;span style=&quot;color: rgb(204, 204, 204); background-color: initial;&quot;&gt;);&lt;/span&gt;&lt;font color=&quot;#cccccc&quot;&gt;&lt;br&gt;&lt;/font&gt;&lt;/div&gt;&lt;br&gt;&lt;div style=&quot;color: rgb(204, 204, 204); font-family: Consolas, &amp;quot;Courier New&amp;quot;, monospace; font-size: 14px; font-weight: normal; white-space: pre;&quot;&gt;&lt;span style=&quot;color: #cccccc;&quot;&gt;&amp;nbsp; &amp;nbsp; &amp;nbsp; &amp;nbsp; &lt;/span&gt;&lt;span style=&quot;color: #6a9955;&quot;&gt;//broadcast this to all connected clients in room&lt;/span&gt;&lt;/div&gt;&lt;div style=&quot;color: rgb(204, 204, 204); font-family: Consolas, &amp;quot;Courier New&amp;quot;, monospace; font-size: 14px; font-weight: normal; white-space: pre;&quot;&gt;&lt;span style=&quot;color: #cccccc;&quot;&gt;&amp;nbsp; &amp;nbsp; &amp;nbsp; &amp;nbsp; &lt;/span&gt;&lt;span style=&quot;color: #6a9955;&quot;&gt;//how can we find out what room this socket is in?&lt;/span&gt;&lt;/div&gt;&lt;div style=&quot;font-family: Consolas, &amp;quot;Courier New&amp;quot;, monospace; font-size: 14px; font-weight: normal; white-space: pre;&quot;&gt;&lt;font color=&quot;#ffffff&quot;&gt;&lt;br&gt;&lt;/font&gt;&lt;/div&gt;&lt;/div&gt;&lt;blockquote style=&quot;margin: 0 0 0 40px; border: none; padding: 0px;&quot;&gt;&lt;div style=&quot;line-height: 19px;&quot;&gt;&lt;div style=&quot;&quot;&gt;&lt;li style=&quot;&quot;&gt;&lt;font color=&quot;#66cc00&quot;&gt;socket.rooms is a property that contains a Set-like object listing all rooms (including the default room) that the socket is currently joined to. &lt;/font&gt;&lt;/li&gt;&lt;/div&gt;&lt;/div&gt;&lt;div style=&quot;line-height: 19px;&quot;&gt;&lt;div style=&quot;&quot;&gt;&lt;li style=&quot;&quot;&gt;&lt;font color=&quot;#66cc00&quot;&gt;By default, a socket is always joined to its own room, identified by its &lt;font face=&quot;Consolas, Courier New, monospace&quot;&gt;&lt;span style=&quot;font-size: 14px; white-space: pre;&quot;&gt;socket.id&lt;/span&gt;&lt;/font&gt;.&lt;/font&gt;&lt;/li&gt;&lt;li style=&quot;&quot;&gt;&lt;font color=&quot;#66cc00&quot;&gt;&lt;b&gt;&lt;code&gt;[...rooms]&lt;/code&gt; converts the &lt;code&gt;rooms&lt;/code&gt; Set-like object into an array. This is done to easily access individual elements of the Set.&lt;br&gt;&lt;/b&gt;&lt;/font&gt;&lt;/li&gt;&lt;li&gt;&lt;span style=&quot;background-color: rgb(102, 204, 0);&quot;&gt;&lt;b&gt;Sets do not support direct indexing like arrays (&lt;code&gt;rooms[1]&lt;/code&gt; wouldn&#39;t work directly on a Set).&lt;/b&gt;&lt;/span&gt;&lt;/li&gt;&lt;li&gt;&lt;b style=&quot;color: rgb(102, 204, 0); background-color: initial;&quot;&gt;The first element (&lt;code&gt;[0]&lt;/code&gt;) is typically the socket&#39;s own room, identified by its &lt;code&gt;socket.id&lt;/code&gt;.&lt;/b&gt;&lt;br&gt;&lt;/li&gt;&lt;li&gt;&lt;font color=&quot;#66cc00&quot;&gt;&lt;b&gt;The second element (&lt;code&gt;[1]&lt;/code&gt;) is often the specific room the socket has joined.&lt;/b&gt;&lt;/font&gt;&lt;/li&gt;&lt;li&gt;&lt;font color=&quot;#66cc00&quot;&gt;&lt;b&gt;&lt;br&gt;&lt;/b&gt;&lt;/font&gt;&lt;/li&gt;&lt;/div&gt;&lt;/div&gt;&lt;/blockquote&gt;&lt;div style=&quot;line-height: 19px;&quot;&gt;&lt;div style=&quot;color: rgb(204, 204, 204); font-family: Consolas, &amp;quot;Courier New&amp;quot;, monospace; font-size: 14px; font-weight: normal; white-space: pre;&quot;&gt;&lt;span style=&quot;color: #cccccc;&quot;&gt;&amp;nbsp; &amp;nbsp; &amp;nbsp; &amp;nbsp; &lt;/span&gt;&lt;span style=&quot;color: #569cd6;&quot;&gt;const&lt;/span&gt;&lt;span style=&quot;color: #cccccc;&quot;&gt; &lt;/span&gt;&lt;span style=&quot;color: #4fc1ff;&quot;&gt;rooms&lt;/span&gt;&lt;span style=&quot;color: #cccccc;&quot;&gt; &lt;/span&gt;&lt;span style=&quot;color: #d4d4d4;&quot;&gt;=&lt;/span&gt;&lt;span style=&quot;color: #cccccc;&quot;&gt; &lt;/span&gt;&lt;span style=&quot;color: #9cdcfe;&quot;&gt;socket&lt;/span&gt;&lt;span style=&quot;color: #cccccc;&quot;&gt;.&lt;/span&gt;&lt;span style=&quot;color: #9cdcfe;&quot;&gt;rooms&lt;/span&gt;&lt;span style=&quot;color: #cccccc;&quot;&gt;;&lt;/span&gt;&lt;/div&gt;&lt;div style=&quot;color: rgb(204, 204, 204); font-family: Consolas, &amp;quot;Courier New&amp;quot;, monospace; font-size: 14px; font-weight: normal; white-space: pre;&quot;&gt;&lt;span style=&quot;color: #cccccc;&quot;&gt;&amp;nbsp; &amp;nbsp; &amp;nbsp; &amp;nbsp; &lt;/span&gt;&lt;span style=&quot;color: #569cd6;&quot;&gt;const&lt;/span&gt;&lt;span style=&quot;color: #cccccc;&quot;&gt; &lt;/span&gt;&lt;span style=&quot;color: #4fc1ff;&quot;&gt;currentRoom&lt;/span&gt;&lt;span style=&quot;color: #cccccc;&quot;&gt; &lt;/span&gt;&lt;span style=&quot;color: #d4d4d4;&quot;&gt;=&lt;/span&gt;&lt;span style=&quot;color: #cccccc;&quot;&gt; [&lt;/span&gt;&lt;span style=&quot;color: #d4d4d4;&quot;&gt;...&lt;/span&gt;&lt;span style=&quot;color: #4fc1ff;&quot;&gt;rooms&lt;/span&gt;&lt;span style=&quot;color: #cccccc;&quot;&gt;][&lt;/span&gt;&lt;span style=&quot;color: #b5cea8;&quot;&gt;1&lt;/span&gt;&lt;span style=&quot;color: #cccccc;&quot;&gt;];&lt;/span&gt;&lt;/div&gt;&lt;br&gt;&lt;div style=&quot;color: rgb(204, 204, 204); font-family: Consolas, &amp;quot;Courier New&amp;quot;, monospace; font-size: 14px; font-weight: normal; white-space: pre;&quot;&gt;&lt;span style=&quot;color: #cccccc;&quot;&gt;&amp;nbsp; &amp;nbsp; &amp;nbsp; &amp;nbsp; &lt;/span&gt;&lt;span style=&quot;color: #6a9955;&quot;&gt;//send out this messageObj to everyone including the sender&lt;/span&gt;&lt;/div&gt;&lt;div style=&quot;color: rgb(204, 204, 204); font-family: Consolas, &amp;quot;Courier New&amp;quot;, monospace; font-size: 14px; font-weight: normal; white-space: pre;&quot;&gt;&lt;span style=&quot;color: #cccccc;&quot;&gt;&amp;nbsp; &amp;nbsp; &amp;nbsp; &amp;nbsp; &lt;/span&gt;&lt;span style=&quot;color: #9cdcfe;&quot;&gt;io&lt;/span&gt;&lt;span style=&quot;color: #cccccc;&quot;&gt;.&lt;/span&gt;&lt;span style=&quot;color: #dcdcaa;&quot;&gt;of&lt;/span&gt;&lt;span style=&quot;color: #cccccc;&quot;&gt;(&lt;/span&gt;&lt;span style=&quot;color: #9cdcfe;&quot;&gt;namespace&lt;/span&gt;&lt;span style=&quot;color: #cccccc;&quot;&gt;.&lt;/span&gt;&lt;span style=&quot;color: #9cdcfe;&quot;&gt;endpoint&lt;/span&gt;&lt;span style=&quot;color: #cccccc;&quot;&gt;)&lt;/span&gt;&lt;/div&gt;&lt;div style=&quot;color: rgb(204, 204, 204); font-family: Consolas, &amp;quot;Courier New&amp;quot;, monospace; font-size: 14px; font-weight: normal; white-space: pre;&quot;&gt;&lt;span style=&quot;color: #cccccc;&quot;&gt;&amp;nbsp; &amp;nbsp; &amp;nbsp; &amp;nbsp; &amp;nbsp; .&lt;/span&gt;&lt;span style=&quot;color: #dcdcaa;&quot;&gt;in&lt;/span&gt;&lt;span style=&quot;color: #cccccc;&quot;&gt;(&lt;/span&gt;&lt;span style=&quot;color: #4fc1ff;&quot;&gt;currentRoom&lt;/span&gt;&lt;span style=&quot;color: #cccccc;&quot;&gt;)&lt;/span&gt;&lt;/div&gt;&lt;div style=&quot;color: rgb(204, 204, 204); font-family: Consolas, &amp;quot;Courier New&amp;quot;, monospace; font-size: 14px; font-weight: normal; white-space: pre;&quot;&gt;&lt;span style=&quot;color: #cccccc;&quot;&gt;&amp;nbsp; &amp;nbsp; &amp;nbsp; &amp;nbsp; &amp;nbsp; .&lt;/span&gt;&lt;span style=&quot;color: #dcdcaa;&quot;&gt;emit&lt;/span&gt;&lt;span style=&quot;color: #cccccc;&quot;&gt;(&lt;/span&gt;&lt;span style=&quot;color: #ce9178;&quot;&gt;&quot;messageToRoom&quot;&lt;/span&gt;&lt;span style=&quot;color: #cccccc;&quot;&gt;, &lt;/span&gt;&lt;span style=&quot;color: #9cdcfe;&quot;&gt;messageObj&lt;/span&gt;&lt;span style=&quot;color: #cccccc;&quot;&gt;);&lt;/span&gt;&lt;/div&gt;&lt;br&gt;&lt;div style=&quot;color: rgb(204, 204, 204); font-family: Consolas, &amp;quot;Courier New&amp;quot;, monospace; font-size: 14px; font-weight: normal; white-space: pre;&quot;&gt;&lt;span style=&quot;color: #cccccc;&quot;&gt;&amp;nbsp; &amp;nbsp; &amp;nbsp; &amp;nbsp; &lt;/span&gt;&lt;span style=&quot;color: #6a9955;&quot;&gt;//add this message to this rooms history&lt;/span&gt;&lt;/div&gt;&lt;div style=&quot;font-family: Consolas, &amp;quot;Courier New&amp;quot;, monospace; font-size: 14px; font-weight: normal; white-space: pre;&quot;&gt;&lt;span style=&quot;color: rgb(204, 204, 204);&quot;&gt;&amp;nbsp; &amp;nbsp; &amp;nbsp; &amp;nbsp; &lt;/span&gt;&lt;span style=&quot;color: rgb(86, 156, 214);&quot;&gt;const&lt;/span&gt;&lt;span style=&quot;color: rgb(204, 204, 204);&quot;&gt; &lt;/span&gt;&lt;span style=&quot;color: rgb(79, 193, 255);&quot;&gt;thisNs&lt;/span&gt;&lt;span style=&quot;color: rgb(204, 204, 204);&quot;&gt; &lt;/span&gt;&lt;span style=&quot;color: rgb(212, 212, 212);&quot;&gt;=&lt;/span&gt;&lt;span style=&quot;color: rgb(204, 204, 204);&quot;&gt; &lt;/span&gt;&lt;span style=&quot;color: rgb(156, 220, 254);&quot;&gt;namespaces&lt;/span&gt;&lt;span style=&quot;color: rgb(204, 204, 204);&quot;&gt;[&lt;/span&gt;&lt;span style=&quot;color: rgb(156, 220, 254);&quot;&gt;messageObj&lt;/span&gt;&lt;span style=&quot;color: rgb(204, 204, 204);&quot;&gt;.&lt;/span&gt;&lt;span style=&quot;background-color: rgb(255, 0, 128);&quot;&gt;&lt;font color=&quot;#ffffff&quot;&gt;selectedNsId&lt;/font&gt;&lt;/span&gt;&lt;span style=&quot;color: rgb(204, 204, 204);&quot;&gt;];&lt;/span&gt;&lt;/div&gt;&lt;div style=&quot;color: rgb(204, 204, 204); font-family: Consolas, &amp;quot;Courier New&amp;quot;, monospace; font-size: 14px; font-weight: normal; white-space: pre;&quot;&gt;&lt;span style=&quot;color: #cccccc;&quot;&gt;&amp;nbsp; &amp;nbsp; &amp;nbsp; &amp;nbsp; &lt;/span&gt;&lt;span style=&quot;color: #569cd6;&quot;&gt;const&lt;/span&gt;&lt;span style=&quot;color: #cccccc;&quot;&gt; &lt;/span&gt;&lt;span style=&quot;color: #4fc1ff;&quot;&gt;thisRoom&lt;/span&gt;&lt;span style=&quot;color: #cccccc;&quot;&gt; &lt;/span&gt;&lt;span style=&quot;color: #d4d4d4;&quot;&gt;=&lt;/span&gt;&lt;span style=&quot;color: #cccccc;&quot;&gt; &lt;/span&gt;&lt;span style=&quot;color: #4fc1ff;&quot;&gt;thisNs&lt;/span&gt;&lt;span style=&quot;color: #cccccc;&quot;&gt;.&lt;/span&gt;&lt;span style=&quot;color: #9cdcfe;&quot;&gt;rooms&lt;/span&gt;&lt;span style=&quot;color: #cccccc;&quot;&gt;.&lt;/span&gt;&lt;span style=&quot;color: #dcdcaa;&quot;&gt;find&lt;/span&gt;&lt;span style=&quot;color: #cccccc;&quot;&gt;(&lt;/span&gt;&lt;/div&gt;&lt;div style=&quot;color: rgb(204, 204, 204); font-family: Consolas, &amp;quot;Courier New&amp;quot;, monospace; font-size: 14px; font-weight: normal; white-space: pre;&quot;&gt;&lt;span style=&quot;color: #cccccc;&quot;&gt;&amp;nbsp; &amp;nbsp; &amp;nbsp; &amp;nbsp; &amp;nbsp; (&lt;/span&gt;&lt;span style=&quot;color: #9cdcfe;&quot;&gt;room&lt;/span&gt;&lt;span style=&quot;color: #cccccc;&quot;&gt;) &lt;/span&gt;&lt;span style=&quot;color: #569cd6;&quot;&gt;=&amp;gt;&lt;/span&gt;&lt;span style=&quot;color: #cccccc;&quot;&gt; &lt;/span&gt;&lt;span style=&quot;color: #9cdcfe;&quot;&gt;room&lt;/span&gt;&lt;span style=&quot;color: #cccccc;&quot;&gt;.&lt;/span&gt;&lt;span style=&quot;color: #9cdcfe;&quot;&gt;roomTitle&lt;/span&gt;&lt;span style=&quot;color: #cccccc;&quot;&gt; &lt;/span&gt;&lt;span style=&quot;color: #d4d4d4;&quot;&gt;===&lt;/span&gt;&lt;span style=&quot;color: #cccccc;&quot;&gt; &lt;/span&gt;&lt;span style=&quot;color: #4fc1ff;&quot;&gt;currentRoom&lt;/span&gt;&lt;/div&gt;&lt;div style=&quot;color: rgb(204, 204, 204); font-family: Consolas, &amp;quot;Courier New&amp;quot;, monospace; font-size: 14px; font-weight: normal; white-space: pre;&quot;&gt;&lt;span style=&quot;color: rgb(204, 204, 204);&quot;&gt;&amp;nbsp; &amp;nbsp; &amp;nbsp; &amp;nbsp; );&lt;/span&gt;&lt;/div&gt;&lt;div style=&quot;color: rgb(204, 204, 204); font-family: Consolas, &amp;quot;Courier New&amp;quot;, monospace; font-size: 14px; font-weight: normal; white-space: pre;&quot;&gt;&lt;span style=&quot;color: rgb(204, 204, 204);&quot;&gt;&lt;br&gt;&lt;/span&gt;&lt;/div&gt;&lt;div style=&quot;color: rgb(204, 204, 204); font-family: Consolas, &amp;quot;Courier New&amp;quot;, monospace; font-size: 14px; font-weight: normal; white-space: pre;&quot;&gt;&lt;span style=&quot;color: #cccccc;&quot;&gt;&amp;nbsp; &amp;nbsp; &amp;nbsp; &amp;nbsp; &lt;/span&gt;&lt;span style=&quot;color: #9cdcfe;&quot;&gt;console&lt;/span&gt;&lt;span style=&quot;color: #cccccc;&quot;&gt;.&lt;/span&gt;&lt;span style=&quot;color: #dcdcaa;&quot;&gt;log&lt;/span&gt;&lt;span style=&quot;color: #cccccc;&quot;&gt;(&lt;/span&gt;&lt;span style=&quot;color: #4fc1ff;&quot;&gt;thisRoom&lt;/span&gt;&lt;span style=&quot;color: #cccccc;&quot;&gt;);&lt;/span&gt;&lt;/div&gt;&lt;br&gt;&lt;div style=&quot;color: rgb(204, 204, 204); font-family: Consolas, &amp;quot;Courier New&amp;quot;, monospace; font-size: 14px; font-weight: normal; white-space: pre;&quot;&gt;&lt;span style=&quot;color: #cccccc;&quot;&gt;&amp;nbsp; &amp;nbsp; &amp;nbsp; &amp;nbsp; &lt;/span&gt;&lt;span style=&quot;color: #6a9955;&quot;&gt;//push message on rooms history[] array&lt;/span&gt;&lt;/div&gt;&lt;div style=&quot;color: rgb(204, 204, 204); font-family: Consolas, &amp;quot;Courier New&amp;quot;, monospace; font-size: 14px; font-weight: normal; white-space: pre;&quot;&gt;&lt;span style=&quot;color: #cccccc;&quot;&gt;&amp;nbsp; &amp;nbsp; &amp;nbsp; &amp;nbsp; &lt;/span&gt;&lt;span style=&quot;color: #4fc1ff;&quot;&gt;thisRoom&lt;/span&gt;&lt;span style=&quot;color: #cccccc;&quot;&gt;.&lt;/span&gt;&lt;span style=&quot;color: #dcdcaa;&quot;&gt;addMessage&lt;/span&gt;&lt;span style=&quot;color: #cccccc;&quot;&gt;(&lt;/span&gt;&lt;span style=&quot;color: #9cdcfe;&quot;&gt;messageObj&lt;/span&gt;&lt;span style=&quot;color: #cccccc;&quot;&gt;);&lt;/span&gt;&lt;/div&gt;&lt;div style=&quot;color: rgb(204, 204, 204); font-family: Consolas, &amp;quot;Courier New&amp;quot;, monospace; font-size: 14px; font-weight: normal; white-space: pre;&quot;&gt;&lt;span style=&quot;color: rgb(204, 204, 204);&quot;&gt;&amp;nbsp; &amp;nbsp; &amp;nbsp; });&lt;/span&gt;&lt;/div&gt;&lt;div style=&quot;color: rgb(204, 204, 204); font-family: Consolas, &amp;quot;Courier New&amp;quot;, monospace; font-size: 14px; font-weight: normal; white-space: pre;&quot;&gt;&lt;span style=&quot;color: rgb(204, 204, 204);&quot;&gt;    }&lt;/span&gt;&lt;/div&gt;&lt;/div&gt;" style="text;whiteSpace=wrap;html=1;fillColor=#000000;spacing=10;" vertex="1" parent="_3at-q2v9w0iWCzONIYG-16">
          <mxGeometry x="73" y="1288" width="935" height="714" as="geometry" />
        </mxCell>
        <mxCell id="_3at-q2v9w0iWCzONIYG-27" value="&lt;h1&gt;1. get namespace - using &#39;roomObj&#39;&lt;/h1&gt;" style="text;html=1;align=center;verticalAlign=middle;whiteSpace=wrap;rounded=0;fontColor=#FFFFFF;fontStyle=1;labelBorderColor=#FFFFFF;spacing=10;" vertex="1" parent="_3at-q2v9w0iWCzONIYG-16">
          <mxGeometry x="482" y="376" width="468" height="75" as="geometry" />
        </mxCell>
        <mxCell id="_3at-q2v9w0iWCzONIYG-28" value="&lt;h1&gt;2. from namespace - find room&lt;/h1&gt;" style="text;html=1;align=center;verticalAlign=middle;whiteSpace=wrap;rounded=0;fontColor=#FFFFFF;fontStyle=1;labelBorderColor=#FFFFFF;spacing=10;" vertex="1" parent="_3at-q2v9w0iWCzONIYG-16">
          <mxGeometry x="476" y="455" width="491" height="75" as="geometry" />
        </mxCell>
        <mxCell id="_3at-q2v9w0iWCzONIYG-29" value="&lt;h1&gt;3. from room - get room&#39;s history property&lt;span style=&quot;background-color: initial; font-size: 12px;&quot;&gt;&amp;nbsp;&lt;/span&gt;&lt;/h1&gt;" style="text;html=1;align=center;verticalAlign=middle;whiteSpace=wrap;rounded=0;fontColor=#FFFFFF;fontStyle=1;labelBorderColor=#FFFFFF;spacing=10;" vertex="1" parent="_3at-q2v9w0iWCzONIYG-16">
          <mxGeometry x="466" y="516" width="541" height="75" as="geometry" />
        </mxCell>
        <mxCell id="_3at-q2v9w0iWCzONIYG-30" value="&lt;h1&gt;4. socket -&amp;gt; join the room&lt;/h1&gt;" style="text;html=1;align=center;verticalAlign=middle;whiteSpace=wrap;rounded=0;fontColor=#FFFFFF;fontStyle=1;labelBorderColor=#FFFFFF;spacing=10;" vertex="1" parent="_3at-q2v9w0iWCzONIYG-16">
          <mxGeometry x="271" y="750" width="317" height="75" as="geometry" />
        </mxCell>
        <mxCell id="_3at-q2v9w0iWCzONIYG-31" value="&lt;h1&gt;5. get sockets in room of a namespace&lt;/h1&gt;" style="text;html=1;align=center;verticalAlign=middle;whiteSpace=wrap;rounded=0;fontColor=#FFFFFF;fontStyle=1;labelBorderColor=#FFFFFF;spacing=10;" vertex="1" parent="_3at-q2v9w0iWCzONIYG-16">
          <mxGeometry x="434" y="873" width="514" height="75" as="geometry" />
        </mxCell>
        <mxCell id="_3at-q2v9w0iWCzONIYG-32" value="&lt;h1&gt;6. call callback -&amp;gt; pass socket count + room&#39;s history&lt;/h1&gt;" style="text;html=1;align=center;verticalAlign=middle;whiteSpace=wrap;rounded=0;fontColor=#FFFFFF;fontStyle=1;labelBorderColor=#FFFFFF;spacing=10;" vertex="1" parent="_3at-q2v9w0iWCzONIYG-16">
          <mxGeometry x="322" y="1101" width="651" height="75" as="geometry" />
        </mxCell>
        <mxCell id="_3at-q2v9w0iWCzONIYG-19" style="edgeStyle=orthogonalEdgeStyle;rounded=0;orthogonalLoop=1;jettySize=auto;html=1;entryX=0.809;entryY=1;entryDx=0;entryDy=0;entryPerimeter=0;" edge="1" parent="1" source="_w_OkT1hiIyt1mrQMRYV-25" target="_w_OkT1hiIyt1mrQMRYV-23">
          <mxGeometry relative="1" as="geometry" />
        </mxCell>
        <mxCell id="_3at-q2v9w0iWCzONIYG-23" style="edgeStyle=orthogonalEdgeStyle;rounded=0;orthogonalLoop=1;jettySize=auto;html=1;entryX=0;entryY=0.901;entryDx=0;entryDy=0;entryPerimeter=0;" edge="1" parent="1" source="_3at-q2v9w0iWCzONIYG-21">
          <mxGeometry relative="1" as="geometry">
            <mxPoint x="-105" y="1338.5929999999998" as="targetPoint" />
          </mxGeometry>
        </mxCell>
        <mxCell id="_3at-q2v9w0iWCzONIYG-24" value="" style="group" vertex="1" connectable="0" parent="1">
          <mxGeometry x="-514" y="1256" width="295" height="131" as="geometry" />
        </mxCell>
        <mxCell id="_3at-q2v9w0iWCzONIYG-21" value="socket.&lt;span class=&quot;hljs-title function_&quot;&gt;emit&lt;/span&gt;(&lt;span class=&quot;hljs-string&quot;&gt;&#39;joinRoom&#39;&lt;/span&gt;, roomObj, &lt;span style=&quot;background-color: rgb(255, 255, 0);&quot;&gt;&lt;span class=&quot;hljs-function&quot;&gt;(&lt;span class=&quot;hljs-params&quot;&gt;response&lt;/span&gt;) =&amp;gt;&lt;/span&gt; {&lt;/span&gt;&lt;div&gt;&lt;span style=&quot;background-color: rgb(255, 255, 0);&quot;&gt;&lt;br&gt;    &lt;span class=&quot;hljs-variable language_&quot;&gt;&amp;nbsp; &amp;nbsp;console&lt;/span&gt;.&lt;span class=&quot;hljs-title function_&quot;&gt;log&lt;/span&gt;(&lt;span class=&quot;hljs-string&quot;&gt;&#39;Server acknowledged:&#39;&lt;/span&gt;, response);&lt;/span&gt;&lt;/div&gt;&lt;div&gt;&lt;span style=&quot;background-color: rgb(255, 255, 0);&quot;&gt;&lt;br&gt;});&lt;/span&gt;&lt;/div&gt;" style="text;whiteSpace=wrap;html=1;strokeColor=default;spacing=10;" vertex="1" parent="_3at-q2v9w0iWCzONIYG-24">
          <mxGeometry y="35" width="295" height="96" as="geometry" />
        </mxCell>
        <mxCell id="_3at-q2v9w0iWCzONIYG-22" value="CLIENT-SIDE" style="text;html=1;align=left;verticalAlign=middle;whiteSpace=wrap;rounded=0;" vertex="1" parent="_3at-q2v9w0iWCzONIYG-24">
          <mxGeometry x="1" width="116" height="30" as="geometry" />
        </mxCell>
        <UserObject label="&lt;div style=&quot;line-height: 19px;&quot;&gt;&lt;div style=&quot;&quot;&gt;nameSpaceSockets[selectedNsId].emit(&quot;newMessageToRoom&quot;, {&lt;/div&gt;&lt;div style=&quot;&quot;&gt;&amp;nbsp; &amp;nbsp; newMessage,&lt;/div&gt;&lt;div style=&quot;&quot;&gt;&amp;nbsp; &amp;nbsp; date: Date.now(),&lt;/div&gt;&lt;div style=&quot;&quot;&gt;&amp;nbsp; &amp;nbsp; avatar: &quot;https://via.placeholder.com/30&quot;,&lt;/div&gt;&lt;div style=&quot;&quot;&gt;&amp;nbsp; &amp;nbsp; userName,&lt;/div&gt;&lt;div style=&quot;&quot;&gt;&amp;nbsp; &amp;nbsp; &lt;span style=&quot;background-color: rgb(255, 0, 128);&quot;&gt;&lt;font color=&quot;#ffffff&quot;&gt;selectedNsId&lt;/font&gt;&lt;/span&gt;,&lt;/div&gt;&lt;div style=&quot;&quot;&gt;});&lt;/div&gt;&lt;br&gt;&lt;/div&gt;" link="&lt;div style=&quot;color: #cccccc;background-color: #1f1f1f;font-family: Consolas, &#39;Courier New&#39;, monospace;font-weight: normal;font-size: 14px;line-height: 19px;white-space: pre;&quot;&gt;&lt;div&gt;&lt;span style=&quot;color: #6a9955;&quot;&gt;// &amp;nbsp; nameSpaceSockets[selectedNsId].emit(&quot;newMessageToRoom&quot;, {&lt;/span&gt;&lt;/div&gt;&lt;div&gt;&lt;span style=&quot;color: #6a9955;&quot;&gt;// &amp;nbsp; &amp;nbsp; newMessage,&lt;/span&gt;&lt;/div&gt;&lt;div&gt;&lt;span style=&quot;color: #6a9955;&quot;&gt;// &amp;nbsp; &amp;nbsp; date: Date.now(),&lt;/span&gt;&lt;/div&gt;&lt;div&gt;&lt;span style=&quot;color: #6a9955;&quot;&gt;// &amp;nbsp; &amp;nbsp; avatar: &quot;https://via.placeholder.com/30&quot;,&lt;/span&gt;&lt;/div&gt;&lt;div&gt;&lt;span style=&quot;color: #6a9955;&quot;&gt;// &amp;nbsp; &amp;nbsp; userName,&lt;/span&gt;&lt;/div&gt;&lt;div&gt;&lt;span style=&quot;color: #6a9955;&quot;&gt;// &amp;nbsp; &amp;nbsp; selectedNsId,&lt;/span&gt;&lt;/div&gt;&lt;div&gt;&lt;span style=&quot;color: #6a9955;&quot;&gt;// &amp;nbsp; });&lt;/span&gt;&lt;/div&gt;&lt;br&gt;&lt;/div&gt;" id="_3at-q2v9w0iWCzONIYG-34">
          <mxCell style="text;whiteSpace=wrap;html=1;spacing=10;strokeColor=default;" vertex="1" parent="1">
            <mxGeometry x="-634" y="2205" width="413" height="174" as="geometry" />
          </mxCell>
        </UserObject>
        <mxCell id="_3at-q2v9w0iWCzONIYG-35" style="edgeStyle=orthogonalEdgeStyle;rounded=0;orthogonalLoop=1;jettySize=auto;html=1;entryX=0.003;entryY=0.068;entryDx=0;entryDy=0;entryPerimeter=0;" edge="1" parent="1" source="_3at-q2v9w0iWCzONIYG-34" target="_3at-q2v9w0iWCzONIYG-15">
          <mxGeometry relative="1" as="geometry" />
        </mxCell>
      </root>
    </mxGraphModel>
  </diagram>
</mxfile>
